<svg width="550" height="440" viewBox="0 0 550 440" fill="none" xmlns="http://www.w3.org/2000/svg">
<g clip-path="url(#clip0_33_761)">
<path d="M74.3939 328.884C81.3083 328.884 86.9136 314.17 86.9136 296.019C86.9136 277.869 81.3083 263.155 74.3939 263.155C67.4794 263.155 61.8742 277.869 61.8742 296.019C61.8742 314.17 67.4794 328.884 74.3939 328.884Z" fill="#00FAAC"/>
<path d="M113.291 275.771C117.205 263.444 116.032 252.068 110.671 250.363C105.31 248.658 97.7913 257.269 93.8773 269.596C89.9632 281.923 91.1363 293.298 96.4973 295.004C101.858 296.709 109.377 288.098 113.291 275.771Z" fill="#00FAAC"/>
<path d="M21.4347 350.088C8.69111 347.928 -0.875403 341.676 0.0528225 336.125C0.981048 330.573 12.0845 327.816 24.8256 329.986C37.5667 332.157 47.1357 338.398 46.2075 343.95C45.2793 349.502 34.1758 352.249 21.4347 350.088Z" fill="#00FAAC"/>
<path d="M125.074 319.704C114.431 330.279 101.858 334.851 96.9882 329.936C92.1182 325.022 96.8021 312.475 107.445 301.911C118.088 291.346 130.661 286.767 135.531 291.679C140.401 296.591 135.717 309.139 125.074 319.704Z" fill="#00FAAC"/>
<path d="M51.7391 290.727C62.0301 305.672 65.0965 321.426 58.5889 325.918C52.0813 330.409 38.4648 321.932 28.1688 306.987C17.8727 292.041 14.8114 276.287 21.319 271.796C27.8266 267.304 41.4482 275.781 51.7391 290.727Z" fill="#00FAAC"/>
<path d="M76.2403 372.882C76.1248 372.882 76.014 372.836 75.9316 372.755C75.8493 372.674 75.802 372.564 75.8001 372.449L74.8316 327.262C74.8293 327.145 74.8734 327.032 74.9543 326.948C75.0352 326.864 75.1462 326.815 75.263 326.813C75.3797 326.81 75.4926 326.855 75.5769 326.936C75.6611 327.017 75.7097 327.128 75.712 327.245L76.6805 372.431C76.6818 372.489 76.6718 372.546 76.6509 372.6C76.63 372.654 76.5986 372.704 76.5587 372.746C76.5188 372.787 76.471 372.821 76.418 372.844C76.3651 372.868 76.3081 372.88 76.2503 372.882H76.2403Z" fill="#1D2BB2"/>
<path d="M75.2718 327.685C75.157 327.685 75.0469 327.639 74.9647 327.559C74.8826 327.479 74.8348 327.369 74.8316 327.255L73.6644 283.81C73.6629 283.753 73.6728 283.695 73.6936 283.641C73.7143 283.587 73.7455 283.538 73.7853 283.496C73.8251 283.454 73.8728 283.42 73.9257 283.396C73.9785 283.373 74.0355 283.36 74.0933 283.359C74.1511 283.357 74.2086 283.367 74.2626 283.388C74.3166 283.409 74.3659 283.44 74.4079 283.48C74.4498 283.519 74.4835 283.567 74.507 283.62C74.5305 283.673 74.5433 283.73 74.5448 283.788L75.717 327.232C75.7187 327.29 75.709 327.347 75.6884 327.402C75.6678 327.456 75.6368 327.505 75.5971 327.547C75.5573 327.589 75.5097 327.623 75.4569 327.647C75.4042 327.67 75.3472 327.683 75.2894 327.685H75.2718Z" fill="#1D2BB2"/>
<path d="M74.1046 280.479C73.988 280.476 73.8775 280.427 73.797 280.343C73.7164 280.258 73.6724 280.145 73.6744 280.029L73.76 276.7C73.7619 276.585 73.8089 276.476 73.8908 276.395C73.9727 276.315 74.0829 276.27 74.1977 276.27H74.2077C74.2654 276.271 74.3223 276.284 74.3751 276.307C74.4278 276.331 74.4755 276.364 74.5152 276.406C74.555 276.448 74.586 276.497 74.6067 276.551C74.6273 276.605 74.637 276.663 74.6354 276.72L74.5523 280.049C74.5491 280.165 74.5003 280.275 74.4165 280.356C74.3328 280.436 74.2207 280.481 74.1046 280.479Z" fill="#1D2BB2"/>
<path d="M70.9049 371.638C70.7923 371.638 70.684 371.595 70.6021 371.518C70.5203 371.441 70.4711 371.335 70.4646 371.222C69.5993 355.235 65.4537 339.34 58.1386 323.971C58.1115 323.919 58.0952 323.861 58.0907 323.803C58.0862 323.744 58.0936 323.684 58.1124 323.628C58.1313 323.572 58.1612 323.521 58.2005 323.476C58.2397 323.432 58.2874 323.396 58.3408 323.371C58.3942 323.346 58.4521 323.331 58.5111 323.329C58.5702 323.326 58.6291 323.336 58.6844 323.357C58.7397 323.377 58.7903 323.409 58.8331 323.45C58.8759 323.491 58.91 323.54 58.9335 323.594C66.2939 339.065 70.4672 355.066 71.34 371.18C71.3462 371.296 71.306 371.41 71.2282 371.497C71.1504 371.584 71.0413 371.636 70.925 371.643L70.9049 371.638Z" fill="#1D2BB2"/>
<path d="M58.5411 324.223C58.4578 324.223 58.3763 324.2 58.306 324.155C58.2356 324.11 58.1793 324.047 58.1436 323.971C52.4822 312.126 45.2724 301.086 36.7039 291.142C36.6661 291.098 36.6372 291.048 36.619 290.993C36.6008 290.938 36.5936 290.88 36.5979 290.822C36.6021 290.764 36.6176 290.708 36.6435 290.656C36.6695 290.604 36.7054 290.558 36.7492 290.52C36.7929 290.483 36.8437 290.454 36.8987 290.435C36.9536 290.417 37.0115 290.41 37.0692 290.414C37.1269 290.418 37.1832 290.434 37.2349 290.46C37.2866 290.486 37.3327 290.522 37.3705 290.566C45.9906 300.57 53.2435 311.676 58.9385 323.594C58.9885 323.699 58.9946 323.82 58.9554 323.93C58.9163 324.04 58.8351 324.13 58.7298 324.18C58.671 324.209 58.6064 324.224 58.5411 324.223Z" fill="#1D2BB2"/>
<path d="M33.7079 287.592C33.6477 287.592 33.5881 287.58 33.5328 287.556C33.4775 287.532 33.4275 287.497 33.3859 287.454C31.288 285.221 29.9925 284.032 29.9799 284.02C29.9343 283.981 29.8969 283.934 29.87 283.881C29.843 283.828 29.8271 283.77 29.8231 283.711C29.8192 283.652 29.8273 283.592 29.8469 283.536C29.8666 283.48 29.8974 283.428 29.9376 283.384C29.9777 283.34 30.0263 283.305 30.0804 283.28C30.1345 283.256 30.1931 283.242 30.2525 283.241C30.312 283.24 30.3711 283.25 30.4262 283.273C30.4814 283.295 30.5315 283.328 30.5736 283.37C30.5736 283.37 31.9068 284.594 34.0274 286.85C34.0906 286.911 34.1337 286.991 34.1511 287.078C34.1685 287.165 34.1593 287.255 34.1248 287.336C34.0904 287.418 34.0321 287.487 33.9578 287.535C33.8834 287.583 33.7963 287.607 33.7079 287.605V287.592Z" fill="#1D2BB2"/>
<path d="M77.4779 369.173C77.4301 369.173 77.3825 369.165 77.337 369.151C77.2268 369.113 77.1358 369.034 77.084 368.929C77.0321 368.825 77.0236 368.705 77.0603 368.594C82.0914 353.487 88.9361 339.892 97.4159 328.164C97.4886 328.087 97.5868 328.038 97.6923 328.028C97.7979 328.017 97.9037 328.045 97.9903 328.106C98.0769 328.167 98.1385 328.258 98.1637 328.361C98.189 328.464 98.1762 328.573 98.1278 328.667C89.7033 340.325 82.8938 353.845 77.8955 368.858C77.8686 368.949 77.8136 369.028 77.7384 369.085C77.6633 369.141 77.572 369.172 77.4779 369.173Z" fill="#1D2BB2"/>
<path d="M97.7655 328.861C97.675 328.861 97.5869 328.832 97.514 328.778C97.467 328.744 97.4272 328.701 97.3969 328.652C97.3665 328.603 97.3462 328.548 97.3371 328.491C97.3279 328.434 97.3302 328.376 97.3437 328.32C97.3573 328.263 97.3818 328.21 97.4159 328.164C101.711 322.19 106.55 316.627 111.87 311.546C111.912 311.506 111.961 311.475 112.015 311.455C112.069 311.434 112.127 311.424 112.185 311.425C112.243 311.427 112.299 311.44 112.352 311.463C112.405 311.487 112.453 311.521 112.493 311.563C112.532 311.605 112.564 311.654 112.584 311.708C112.605 311.762 112.615 311.82 112.613 311.878C112.612 311.936 112.599 311.993 112.575 312.045C112.552 312.098 112.518 312.146 112.476 312.186C107.199 317.232 102.399 322.756 98.1378 328.687C98.0947 328.745 98.0382 328.79 97.9733 328.821C97.9084 328.851 97.8371 328.865 97.7655 328.861Z" fill="#1D2BB2"/>
<path d="M116.582 308.344C116.492 308.343 116.404 308.316 116.331 308.264C116.257 308.212 116.201 308.139 116.17 308.055C116.139 307.971 116.135 307.879 116.158 307.792C116.18 307.705 116.229 307.627 116.297 307.568C122.762 302.112 127.3 299.763 127.345 299.736C127.397 299.706 127.454 299.688 127.513 299.681C127.572 299.675 127.631 299.68 127.688 299.697C127.745 299.714 127.798 299.743 127.843 299.78C127.889 299.818 127.926 299.865 127.953 299.918C127.98 299.97 127.996 300.028 128.001 300.087C128.005 300.146 127.997 300.206 127.978 300.262C127.959 300.318 127.929 300.37 127.889 300.414C127.85 300.458 127.802 300.493 127.748 300.519C127.703 300.541 123.245 302.858 116.863 308.241C116.785 308.307 116.685 308.344 116.582 308.344Z" fill="#1D2BB2"/>
<path d="M76.6528 374.513C76.6302 374.516 76.6075 374.516 76.5849 374.513C76.4693 374.495 76.3655 374.432 76.2962 374.338C76.2269 374.243 76.1978 374.125 76.2151 374.01C80.5493 346.062 89.814 313.875 96.8197 291.802C96.8554 291.69 96.9339 291.598 97.0379 291.544C97.1419 291.49 97.263 291.48 97.3744 291.516C97.4858 291.552 97.5785 291.63 97.632 291.735C97.6856 291.839 97.6956 291.96 97.6599 292.071C90.6617 314.114 81.4122 346.246 77.0855 374.151C77.0677 374.252 77.0145 374.345 76.9353 374.411C76.8561 374.477 76.7561 374.514 76.6528 374.513Z" fill="#1D2BB2"/>
<path d="M97.2398 292.373C97.1944 292.373 97.1494 292.365 97.1065 292.351C97.0513 292.333 97 292.305 96.9557 292.268C96.9114 292.23 96.8749 292.185 96.8483 292.133C96.8216 292.082 96.8054 292.026 96.8005 291.968C96.7956 291.91 96.8021 291.852 96.8197 291.797C98.2058 287.436 99.627 283.073 101.048 278.833C101.086 278.722 101.165 278.631 101.27 278.579C101.375 278.527 101.496 278.518 101.607 278.556C101.717 278.593 101.809 278.673 101.861 278.778C101.913 278.883 101.921 279.004 101.883 279.115C100.465 283.35 99.0434 287.708 97.6599 292.066C97.6312 292.155 97.5751 292.233 97.4997 292.288C97.4242 292.343 97.3332 292.373 97.2398 292.373Z" fill="#1D2BB2"/>
<path d="M102.633 275.96C102.585 275.96 102.538 275.952 102.492 275.937C102.437 275.919 102.387 275.89 102.343 275.852C102.299 275.814 102.264 275.767 102.238 275.715C102.212 275.663 102.197 275.607 102.193 275.549C102.189 275.491 102.197 275.433 102.215 275.378C104.145 269.703 105.37 266.314 105.383 266.289C105.402 266.235 105.433 266.185 105.472 266.142C105.511 266.1 105.558 266.065 105.61 266.041C105.663 266.016 105.72 266.002 105.777 266C105.835 265.997 105.893 266.006 105.947 266.026C106.002 266.046 106.052 266.076 106.094 266.116C106.137 266.155 106.171 266.202 106.196 266.254C106.22 266.307 106.234 266.364 106.236 266.421C106.239 266.479 106.23 266.537 106.21 266.591C106.21 266.624 104.975 269.995 103.051 275.655C103.022 275.744 102.966 275.82 102.891 275.875C102.816 275.93 102.726 275.959 102.633 275.96Z" fill="#1D2BB2"/>
<path d="M66.802 363.012C66.71 363.012 66.6202 362.983 66.5454 362.929C66.4706 362.875 66.4143 362.8 66.3845 362.712C62.8829 352.48 55.8193 345.289 45.4101 341.334C45.3539 341.315 45.302 341.285 45.2576 341.246C45.2133 341.207 45.1773 341.159 45.1519 341.105C45.1265 341.051 45.1122 340.993 45.1098 340.934C45.1074 340.875 45.117 340.815 45.138 340.76C45.159 340.704 45.191 340.654 45.2321 340.611C45.2732 340.568 45.3225 340.534 45.377 340.511C45.4315 340.488 45.4902 340.476 45.5495 340.476C45.6088 340.476 45.6675 340.488 45.722 340.511C56.3954 344.562 63.6275 351.936 67.2171 362.415C67.2547 362.526 67.247 362.647 67.1956 362.752C67.1441 362.856 67.0533 362.937 66.9429 362.974C66.8986 362.995 66.8509 363.008 66.802 363.012Z" fill="#1D2BB2"/>
<path d="M45.5661 341.364C45.5126 341.364 45.4597 341.354 45.4101 341.334C40.6608 339.531 35.3178 338.446 29.5347 338.106C29.4181 338.099 29.3091 338.046 29.2313 337.959C29.1536 337.872 29.1134 337.757 29.1196 337.64C29.1286 337.524 29.1821 337.416 29.2688 337.339C29.3556 337.262 29.4688 337.221 29.585 337.225C35.4587 337.57 40.8872 338.675 45.722 340.498C45.8189 340.534 45.9001 340.603 45.9512 340.693C46.0023 340.783 46.0201 340.888 46.0015 340.99C45.9829 341.092 45.929 341.184 45.8494 341.25C45.7698 341.316 45.6695 341.352 45.5661 341.352V341.364Z" fill="#1D2BB2"/>
<path d="M19.1884 338.363C19.0736 338.369 18.9613 338.329 18.8754 338.253C18.7895 338.176 18.7368 338.069 18.7286 337.955C18.7204 337.84 18.7573 337.727 18.8315 337.639C18.9056 337.551 19.0111 337.496 19.1255 337.485C19.1909 337.485 20.7203 337.26 23.2585 337.162C23.3164 337.159 23.3745 337.168 23.4291 337.188C23.4837 337.207 23.5338 337.238 23.5764 337.277C23.6191 337.317 23.6535 337.364 23.6775 337.417C23.7015 337.47 23.7147 337.527 23.7163 337.585C23.7204 337.702 23.6782 337.815 23.599 337.9C23.5198 337.986 23.41 338.036 23.2937 338.041C20.8058 338.139 19.2689 338.356 19.2512 338.358L19.1884 338.363Z" fill="#1D2BB2"/>
<path d="M130.48 350.088C143.221 347.928 152.79 341.676 151.849 336.125C150.908 330.573 139.82 327.816 127.076 329.986C114.333 332.157 104.766 338.398 105.707 343.95C106.648 349.502 117.726 352.249 130.48 350.088Z" fill="#00FAAC"/>
<path d="M85.1125 363.012C85.0636 363.012 85.015 363.004 84.9691 362.987C84.9145 362.968 84.8641 362.939 84.8208 362.901C84.7776 362.862 84.7423 362.816 84.7171 362.764C84.6918 362.712 84.6771 362.656 84.6737 362.598C84.6703 362.54 84.6784 362.483 84.6974 362.428C88.3173 351.853 95.6424 344.434 106.469 340.408C106.524 340.386 106.582 340.376 106.64 340.378C106.699 340.379 106.756 340.392 106.809 340.416C106.863 340.44 106.911 340.474 106.951 340.517C106.991 340.559 107.022 340.61 107.042 340.664C107.062 340.719 107.072 340.778 107.069 340.836C107.067 340.894 107.053 340.952 107.028 341.005C107.003 341.058 106.968 341.105 106.925 341.144C106.882 341.184 106.831 341.214 106.776 341.233C96.2109 345.164 89.0619 352.39 85.5301 362.713C85.5002 362.8 85.444 362.875 85.3691 362.929C85.2943 362.983 85.2046 363.012 85.1125 363.012Z" fill="#1D2BB2"/>
<path d="M106.623 341.261C106.519 341.261 106.42 341.225 106.34 341.158C106.261 341.092 106.208 341 106.19 340.899C106.171 340.797 106.189 340.692 106.24 340.602C106.292 340.513 106.373 340.444 106.469 340.408C111.618 338.492 117.409 337.386 123.678 337.16C123.736 337.157 123.793 337.166 123.848 337.186C123.902 337.206 123.952 337.236 123.994 337.275C124.037 337.315 124.071 337.362 124.095 337.415C124.118 337.468 124.132 337.525 124.133 337.583C124.136 337.641 124.126 337.698 124.106 337.753C124.087 337.807 124.056 337.857 124.017 337.899C123.978 337.942 123.93 337.976 123.878 338.001C123.825 338.025 123.768 338.039 123.711 338.041C117.535 338.275 111.837 339.35 106.776 341.233C106.727 341.251 106.675 341.26 106.623 341.261Z" fill="#1D2BB2"/>
<path d="M132.726 338.363H132.663C132.663 338.363 131.639 338.219 129.939 338.111C129.881 338.108 129.825 338.093 129.772 338.067C129.72 338.042 129.674 338.006 129.636 337.963C129.597 337.919 129.568 337.869 129.549 337.814C129.53 337.759 129.523 337.701 129.526 337.643C129.535 337.527 129.588 337.419 129.675 337.342C129.762 337.265 129.876 337.224 129.992 337.23C131.733 337.338 132.744 337.482 132.787 337.482C132.9 337.493 133.005 337.549 133.079 337.636C133.153 337.723 133.189 337.836 133.182 337.95C133.174 338.065 133.122 338.171 133.037 338.248C132.952 338.324 132.84 338.365 132.726 338.36V338.363Z" fill="#1D2BB2"/>
<path d="M106.439 400.967C110.292 392.887 112.314 384.054 112.361 375.1C112.369 369.738 111.571 364.406 109.991 359.283H43.3096C41.7308 364.406 40.9328 369.739 40.9425 375.1C40.9875 384.054 43.0096 392.887 46.8641 400.967H106.439Z" fill="white"/>
<path d="M106.439 401.408H46.8641C46.7808 401.408 46.6993 401.384 46.6289 401.34C46.5586 401.295 46.5023 401.231 46.4666 401.156C42.5721 393.021 40.534 384.121 40.4998 375.1C40.4889 369.694 41.2937 364.317 42.887 359.152C42.9153 359.063 42.9712 358.985 43.0467 358.929C43.1222 358.873 43.2134 358.843 43.3071 358.843H109.991C110.085 358.842 110.177 358.872 110.253 358.928C110.329 358.984 110.385 359.062 110.414 359.152C112.007 364.317 112.812 369.694 112.801 375.1C112.768 384.121 110.73 393.022 106.836 401.159C106.8 401.234 106.744 401.297 106.674 401.341C106.603 401.385 106.522 401.408 106.439 401.408ZM47.1408 400.527H106.155C109.916 392.576 111.882 383.894 111.913 375.097C111.918 369.888 111.156 364.707 109.649 359.721H43.6367C42.1287 364.707 41.3658 369.888 41.3727 375.097C41.407 383.895 43.3763 392.577 47.1408 400.527Z" fill="#1D2BB2"/>
<path d="M154.397 65.5123C154.364 65.5117 154.333 65.4982 154.309 65.4747C154.286 65.4513 154.272 65.4196 154.272 65.3864V64.757C154.272 64.7236 154.285 64.6916 154.308 64.668C154.332 64.6444 154.364 64.6311 154.397 64.6311C154.431 64.6311 154.463 64.6444 154.486 64.668C154.51 64.6916 154.523 64.7236 154.523 64.757V65.3864C154.523 65.4198 154.51 65.4518 154.486 65.4754C154.463 65.4991 154.431 65.5123 154.397 65.5123Z" fill="#1A2E35"/>
<path d="M154.397 63.6492C154.364 63.6492 154.332 63.6359 154.308 63.6123C154.285 63.5887 154.272 63.5567 154.272 63.5233V62.2896C154.272 62.2562 154.285 62.2242 154.308 62.2006C154.332 62.177 154.364 62.1637 154.397 62.1637C154.431 62.1637 154.463 62.177 154.486 62.2006C154.51 62.2242 154.523 62.2562 154.523 62.2896V63.5233C154.523 63.5567 154.51 63.5887 154.486 63.6123C154.463 63.6359 154.431 63.6492 154.397 63.6492ZM154.397 61.1818C154.364 61.1818 154.332 61.1685 154.308 61.1449C154.285 61.1213 154.272 61.0893 154.272 61.0559V59.8222C154.272 59.789 154.286 59.7573 154.309 59.7339C154.333 59.7104 154.364 59.6969 154.397 59.6963C154.431 59.6963 154.463 59.7096 154.486 59.7332C154.51 59.7568 154.523 59.7888 154.523 59.8222V61.0559C154.523 61.0893 154.51 61.1213 154.486 61.1449C154.463 61.1685 154.431 61.1818 154.397 61.1818ZM154.397 58.7144C154.364 58.7144 154.332 58.7011 154.308 58.6775C154.285 58.6539 154.272 58.6219 154.272 58.5885V57.3573C154.272 57.3239 154.285 57.2919 154.308 57.2683C154.332 57.2447 154.364 57.2314 154.397 57.2314C154.431 57.2314 154.463 57.2447 154.486 57.2683C154.51 57.2919 154.523 57.3239 154.523 57.3573V58.5885C154.523 58.6219 154.51 58.6539 154.486 58.6775C154.463 58.7011 154.431 58.7144 154.397 58.7144ZM154.397 56.2495C154.364 56.2488 154.333 56.2354 154.309 56.2119C154.286 56.1884 154.272 56.1568 154.272 56.1236V54.8874C154.272 54.854 154.285 54.8219 154.308 54.7983C154.332 54.7747 154.364 54.7615 154.397 54.7615C154.431 54.7615 154.463 54.7747 154.486 54.7983C154.51 54.8219 154.523 54.854 154.523 54.8874V56.1211C154.523 56.1378 154.52 56.1544 154.514 56.17C154.508 56.1856 154.499 56.1997 154.487 56.2117C154.475 56.2237 154.462 56.2332 154.446 56.2396C154.431 56.2461 154.414 56.2495 154.397 56.2495ZM154.397 53.7821C154.364 53.7821 154.332 53.7688 154.308 53.7452C154.285 53.7216 154.272 53.6895 154.272 53.6562V52.4225C154.272 52.3891 154.285 52.357 154.308 52.3334C154.332 52.3098 154.364 52.2966 154.397 52.2966C154.431 52.2966 154.463 52.3098 154.486 52.3334C154.51 52.357 154.523 52.3891 154.523 52.4225V53.6562C154.523 53.6727 154.52 53.6891 154.514 53.7043C154.507 53.7196 154.498 53.7335 154.486 53.7452C154.475 53.7569 154.461 53.7661 154.445 53.7725C154.43 53.7788 154.414 53.7821 154.397 53.7821ZM154.397 51.3146C154.364 51.3146 154.332 51.3014 154.308 51.2778C154.285 51.2542 154.272 51.2221 154.272 51.1887V49.955C154.272 49.9219 154.286 49.8902 154.309 49.8667C154.333 49.8433 154.364 49.8298 154.397 49.8292C154.431 49.8292 154.463 49.8424 154.486 49.866C154.51 49.8896 154.523 49.9217 154.523 49.955V51.1887C154.523 51.2053 154.52 51.2216 154.514 51.2369C154.507 51.2522 154.498 51.2661 154.486 51.2778C154.475 51.2895 154.461 51.2987 154.445 51.3051C154.43 51.3114 154.414 51.3146 154.397 51.3146ZM154.397 48.8472C154.364 48.8472 154.332 48.834 154.308 48.8103C154.285 48.7867 154.272 48.7547 154.272 48.7213V47.4876C154.272 47.4544 154.286 47.4228 154.309 47.3993C154.333 47.3759 154.364 47.3624 154.397 47.3617C154.431 47.3617 154.463 47.375 154.486 47.3986C154.51 47.4222 154.523 47.4542 154.523 47.4876V48.7213C154.522 48.7543 154.509 48.7857 154.485 48.8087C154.462 48.8318 154.43 48.8447 154.397 48.8447V48.8472ZM154.397 46.3823C154.364 46.3817 154.333 46.3682 154.309 46.3447C154.286 46.3213 154.272 46.2896 154.272 46.2564V45.0227C154.272 44.9893 154.285 44.9573 154.308 44.9337C154.332 44.9101 154.364 44.8968 154.397 44.8968C154.431 44.8968 154.463 44.9101 154.486 44.9337C154.51 44.9573 154.523 44.9893 154.523 45.0227V46.2564C154.523 46.2898 154.51 46.3218 154.486 46.3455C154.463 46.3691 154.431 46.3823 154.397 46.3823ZM154.397 43.9149C154.364 43.9143 154.333 43.9008 154.309 43.8773C154.286 43.8539 154.272 43.8222 154.272 43.789V42.5503C154.272 42.5169 154.285 42.4849 154.308 42.4613C154.332 42.4377 154.364 42.4244 154.397 42.4244C154.431 42.4244 154.463 42.4377 154.486 42.4613C154.51 42.4849 154.523 42.5169 154.523 42.5503V43.784C154.524 43.8009 154.521 43.8178 154.515 43.8337C154.509 43.8496 154.5 43.864 154.488 43.8763C154.476 43.8885 154.462 43.8982 154.447 43.9049C154.431 43.9115 154.414 43.9149 154.397 43.9149ZM154.397 41.4475C154.364 41.4475 154.332 41.4342 154.308 41.4106C154.285 41.387 154.272 41.355 154.272 41.3216V40.0879C154.272 40.0547 154.286 40.0231 154.309 39.9996C154.333 39.9761 154.364 39.9627 154.397 39.962C154.431 39.962 154.463 39.9753 154.486 39.9989C154.51 40.0225 154.523 40.0545 154.523 40.0879V41.3216C154.523 41.3381 154.52 41.3545 154.514 41.3698C154.507 41.3851 154.498 41.3989 154.486 41.4106C154.475 41.4223 154.461 41.4316 154.445 41.4379C154.43 41.4442 154.414 41.4475 154.397 41.4475ZM154.397 38.9801C154.364 38.9801 154.332 38.9668 154.308 38.9432C154.285 38.9196 154.272 38.8876 154.272 38.8542V37.6205C154.272 37.5873 154.286 37.5557 154.309 37.5322C154.333 37.5087 154.364 37.4952 154.397 37.4946C154.431 37.4946 154.463 37.5079 154.486 37.5315C154.51 37.5551 154.523 37.5871 154.523 37.6205V38.8542C154.523 38.8707 154.52 38.8871 154.514 38.9024C154.507 38.9176 154.498 38.9315 154.486 38.9432C154.475 38.9549 154.461 38.9642 154.445 38.9705C154.43 38.9768 154.414 38.9801 154.397 38.9801ZM154.397 36.5127C154.364 36.5127 154.332 36.4994 154.308 36.4758C154.285 36.4522 154.272 36.4202 154.272 36.3868V35.1556C154.272 35.1222 154.285 35.0902 154.308 35.0666C154.332 35.043 154.364 35.0297 154.397 35.0297C154.431 35.0297 154.463 35.043 154.486 35.0666C154.51 35.0902 154.523 35.1222 154.523 35.1556V36.3868C154.522 36.4193 154.508 36.45 154.485 36.4726C154.461 36.4951 154.43 36.5077 154.397 36.5076V36.5127ZM154.397 34.0478C154.364 34.0471 154.333 34.0337 154.309 34.0102C154.286 33.9867 154.272 33.9551 154.272 33.9219V32.6882C154.272 32.6548 154.285 32.6228 154.308 32.5992C154.332 32.5755 154.364 32.5623 154.397 32.5623C154.431 32.5623 154.463 32.5755 154.486 32.5992C154.51 32.6228 154.523 32.6548 154.523 32.6882V33.9219C154.523 33.9384 154.52 33.9548 154.514 33.9701C154.507 33.9853 154.498 33.9992 154.486 34.0109C154.475 34.0226 154.461 34.0319 154.445 34.0382C154.43 34.0445 154.414 34.0478 154.397 34.0478ZM154.397 31.5804C154.364 31.5804 154.332 31.5671 154.308 31.5435C154.285 31.5199 154.272 31.4879 154.272 31.4545V30.2132C154.272 30.1798 154.285 30.1478 154.308 30.1242C154.332 30.1006 154.364 30.0873 154.397 30.0873C154.431 30.0873 154.463 30.1006 154.486 30.1242C154.51 30.1478 154.523 30.1798 154.523 30.2132V31.4469C154.524 31.4641 154.522 31.4813 154.516 31.4974C154.51 31.5136 154.501 31.5284 154.489 31.5409C154.477 31.5534 154.463 31.5633 154.447 31.5701C154.432 31.5769 154.415 31.5804 154.397 31.5804ZM154.397 29.1129C154.364 29.1129 154.332 29.0997 154.308 29.0761C154.285 29.0525 154.272 29.0204 154.272 28.9871V27.7533C154.272 27.7202 154.286 27.6885 154.309 27.665C154.333 27.6416 154.364 27.6281 154.397 27.6275C154.431 27.6275 154.463 27.6407 154.486 27.6643C154.51 27.6879 154.523 27.72 154.523 27.7533V28.9871C154.523 29.0036 154.52 29.02 154.514 29.0352C154.507 29.0505 154.498 29.0644 154.486 29.0761C154.475 29.0878 154.461 29.097 154.445 29.1034C154.43 29.1097 154.414 29.1129 154.397 29.1129ZM154.397 26.6455C154.364 26.6455 154.332 26.6323 154.308 26.6087C154.285 26.585 154.272 26.553 154.272 26.5196V25.2859C154.272 25.2527 154.286 25.2211 154.309 25.1976C154.333 25.1742 154.364 25.1607 154.397 25.16C154.431 25.16 154.463 25.1733 154.486 25.1969C154.51 25.2205 154.523 25.2525 154.523 25.2859V26.5196C154.523 26.5362 154.52 26.5525 154.514 26.5678C154.507 26.5831 154.498 26.597 154.486 26.6087C154.475 26.6203 154.461 26.6296 154.445 26.6359C154.43 26.6423 154.414 26.6455 154.397 26.6455ZM154.397 24.1806C154.364 24.18 154.333 24.1665 154.309 24.143C154.286 24.1196 154.272 24.0879 154.272 24.0547V22.821C154.272 22.7876 154.285 22.7556 154.308 22.732C154.332 22.7084 154.364 22.6951 154.397 22.6951C154.431 22.6951 154.463 22.7084 154.486 22.732C154.51 22.7556 154.523 22.7876 154.523 22.821V24.0547C154.521 24.0864 154.506 24.1158 154.483 24.1373C154.46 24.1588 154.429 24.1707 154.397 24.1706V24.1806ZM154.397 21.7132C154.364 21.7126 154.333 21.6991 154.309 21.6756C154.286 21.6522 154.272 21.6205 154.272 21.5873V20.3536C154.272 20.3202 154.285 20.2882 154.308 20.2646C154.332 20.241 154.364 20.2277 154.397 20.2277C154.431 20.2277 154.463 20.241 154.486 20.2646C154.51 20.2882 154.523 20.3202 154.523 20.3536V21.5873C154.523 21.6039 154.52 21.6202 154.514 21.6355C154.507 21.6508 154.498 21.6647 154.486 21.6763C154.475 21.688 154.461 21.6973 154.445 21.7036C154.43 21.71 154.414 21.7132 154.397 21.7132ZM154.397 19.2458C154.364 19.2458 154.332 19.2325 154.308 19.2089C154.285 19.1853 154.272 19.1533 154.272 19.1199V17.8761C154.272 17.8429 154.286 17.8113 154.309 17.7878C154.333 17.7644 154.364 17.7509 154.397 17.7502C154.431 17.7502 154.463 17.7635 154.486 17.7871C154.51 17.8107 154.523 17.8427 154.523 17.8761V19.1098C154.525 19.1272 154.522 19.1447 154.517 19.1611C154.511 19.1776 154.502 19.1927 154.49 19.2054C154.478 19.2182 154.464 19.2284 154.448 19.2354C154.432 19.2423 154.415 19.2459 154.397 19.2458Z" fill="#1A2E35"/>
<path d="M154.397 16.7784C154.364 16.7784 154.332 16.7652 154.308 16.7416C154.285 16.718 154.272 16.6859 154.272 16.6525V16.0231C154.272 15.9899 154.286 15.9583 154.309 15.9348C154.333 15.9113 154.364 15.8979 154.397 15.8972C154.431 15.8972 154.463 15.9105 154.486 15.9341C154.51 15.9577 154.523 15.9897 154.523 16.0231V16.6525C154.523 16.6859 154.51 16.718 154.486 16.7416C154.463 16.7652 154.431 16.7784 154.397 16.7784Z" fill="#1A2E35"/>
<path d="M154.397 189.752C154.364 189.751 154.333 189.738 154.309 189.714C154.286 189.691 154.272 189.659 154.272 189.626V188.996C154.272 188.963 154.285 188.931 154.308 188.907C154.332 188.884 154.364 188.871 154.397 188.871C154.431 188.871 154.463 188.884 154.486 188.907C154.51 188.931 154.523 188.963 154.523 188.996V189.626C154.523 189.659 154.51 189.691 154.486 189.715C154.463 189.739 154.431 189.752 154.397 189.752Z" fill="#1A2E35"/>
<path d="M154.397 187.871C154.364 187.87 154.333 187.857 154.309 187.833C154.286 187.81 154.272 187.778 154.272 187.745V186.486C154.272 186.453 154.286 186.421 154.309 186.398C154.333 186.374 154.364 186.361 154.397 186.36C154.431 186.36 154.463 186.374 154.486 186.397C154.51 186.421 154.523 186.453 154.523 186.486V187.745C154.523 187.778 154.51 187.81 154.486 187.834C154.463 187.858 154.431 187.871 154.397 187.871ZM154.397 185.368C154.364 185.368 154.332 185.355 154.308 185.331C154.285 185.308 154.272 185.276 154.272 185.242V183.984C154.272 183.95 154.285 183.918 154.308 183.895C154.332 183.871 154.364 183.858 154.397 183.858C154.431 183.858 154.463 183.871 154.486 183.895C154.51 183.918 154.523 183.95 154.523 183.984V185.242C154.523 185.259 154.52 185.275 154.514 185.291C154.507 185.306 154.498 185.32 154.486 185.331C154.475 185.343 154.461 185.352 154.445 185.359C154.43 185.365 154.414 185.368 154.397 185.368ZM154.397 182.868C154.364 182.868 154.332 182.855 154.308 182.831C154.285 182.808 154.272 182.776 154.272 182.742V181.483C154.272 181.45 154.286 181.419 154.309 181.395C154.333 181.372 154.364 181.358 154.397 181.357C154.431 181.357 154.463 181.371 154.486 181.394C154.51 181.418 154.523 181.45 154.523 181.483V182.742C154.523 182.776 154.51 182.808 154.486 182.831C154.463 182.855 154.431 182.868 154.397 182.868ZM154.397 180.368C154.364 180.367 154.333 180.354 154.309 180.33C154.286 180.307 154.272 180.275 154.272 180.242V178.983C154.272 178.95 154.285 178.918 154.308 178.894C154.332 178.871 154.364 178.857 154.397 178.857C154.431 178.857 154.463 178.871 154.486 178.894C154.51 178.918 154.523 178.95 154.523 178.983V180.242C154.523 180.276 154.51 180.308 154.486 180.331C154.463 180.355 154.431 180.368 154.397 180.368ZM154.397 177.865C154.364 177.865 154.332 177.852 154.308 177.828C154.285 177.805 154.272 177.773 154.272 177.739V176.481C154.272 176.447 154.285 176.415 154.308 176.392C154.332 176.368 154.364 176.355 154.397 176.355C154.431 176.355 154.463 176.368 154.486 176.392C154.51 176.415 154.523 176.447 154.523 176.481V177.739C154.523 177.756 154.52 177.772 154.514 177.788C154.507 177.803 154.498 177.817 154.486 177.828C154.475 177.84 154.461 177.849 154.445 177.856C154.43 177.862 154.414 177.865 154.397 177.865ZM154.397 175.365C154.364 175.365 154.332 175.352 154.308 175.328C154.285 175.305 154.272 175.273 154.272 175.239V173.98C154.272 173.947 154.286 173.916 154.309 173.892C154.333 173.869 154.364 173.855 154.397 173.855C154.431 173.855 154.463 173.868 154.486 173.891C154.51 173.915 154.523 173.947 154.523 173.98V175.239C154.523 175.273 154.51 175.305 154.486 175.328C154.463 175.352 154.431 175.365 154.397 175.365ZM154.397 172.865C154.364 172.864 154.333 172.851 154.309 172.827C154.286 172.804 154.272 172.772 154.272 172.739V171.48C154.272 171.447 154.285 171.415 154.308 171.391C154.332 171.368 154.364 171.354 154.397 171.354C154.431 171.354 154.463 171.368 154.486 171.391C154.51 171.415 154.523 171.447 154.523 171.48V172.739C154.523 172.773 154.51 172.805 154.486 172.828C154.463 172.852 154.431 172.865 154.397 172.865ZM154.397 170.362C154.364 170.362 154.332 170.349 154.308 170.326C154.285 170.302 154.272 170.27 154.272 170.237V168.978C154.272 168.944 154.285 168.912 154.308 168.889C154.332 168.865 154.364 168.852 154.397 168.852C154.431 168.852 154.463 168.865 154.486 168.889C154.51 168.912 154.523 168.944 154.523 168.978V170.237C154.523 170.27 154.51 170.302 154.486 170.326C154.463 170.349 154.431 170.362 154.397 170.362ZM154.397 167.862C154.364 167.862 154.333 167.848 154.309 167.825C154.286 167.801 154.272 167.77 154.272 167.736V166.477C154.272 166.444 154.285 166.412 154.308 166.388C154.332 166.365 154.364 166.352 154.397 166.352C154.431 166.352 154.463 166.365 154.486 166.388C154.51 166.412 154.523 166.444 154.523 166.477V167.736C154.523 167.77 154.51 167.802 154.486 167.825C154.463 167.849 154.431 167.862 154.397 167.862ZM154.397 165.36C154.364 165.36 154.332 165.346 154.308 165.323C154.285 165.299 154.272 165.267 154.272 165.234V163.975C154.272 163.941 154.285 163.909 154.308 163.886C154.332 163.862 154.364 163.849 154.397 163.849C154.431 163.849 154.463 163.862 154.486 163.886C154.51 163.909 154.523 163.941 154.523 163.975V165.234C154.523 165.267 154.51 165.299 154.486 165.323C154.463 165.346 154.431 165.36 154.397 165.36ZM154.397 162.859C154.364 162.859 154.332 162.846 154.308 162.823C154.285 162.799 154.272 162.767 154.272 162.734V161.475C154.272 161.441 154.286 161.41 154.309 161.386C154.333 161.363 154.364 161.349 154.397 161.349C154.431 161.349 154.463 161.362 154.486 161.386C154.51 161.409 154.523 161.441 154.523 161.475V162.734C154.523 162.767 154.51 162.799 154.486 162.823C154.463 162.846 154.431 162.859 154.397 162.859ZM154.397 160.359C154.364 160.359 154.333 160.345 154.309 160.322C154.286 160.298 154.272 160.267 154.272 160.233V158.975C154.272 158.941 154.285 158.909 154.308 158.886C154.332 158.862 154.364 158.849 154.397 158.849C154.431 158.849 154.463 158.862 154.486 158.886C154.51 158.909 154.523 158.941 154.523 158.975V160.233C154.523 160.267 154.51 160.299 154.486 160.322C154.463 160.346 154.431 160.359 154.397 160.359ZM154.397 157.857C154.364 157.857 154.332 157.843 154.308 157.82C154.285 157.796 154.272 157.764 154.272 157.731V156.472C154.272 156.438 154.285 156.406 154.308 156.383C154.332 156.359 154.364 156.346 154.397 156.346C154.431 156.346 154.463 156.359 154.486 156.383C154.51 156.406 154.523 156.438 154.523 156.472V157.731C154.524 157.748 154.522 157.765 154.516 157.781C154.51 157.797 154.501 157.812 154.489 157.825C154.477 157.837 154.463 157.847 154.447 157.854C154.432 157.861 154.415 157.864 154.397 157.864V157.857ZM154.397 155.356C154.364 155.356 154.332 155.343 154.308 155.32C154.285 155.296 154.272 155.264 154.272 155.231V153.972C154.272 153.939 154.286 153.907 154.309 153.883C154.333 153.86 154.364 153.846 154.397 153.846C154.431 153.846 154.463 153.859 154.486 153.883C154.51 153.906 154.523 153.938 154.523 153.972V155.231C154.521 155.262 154.506 155.292 154.483 155.313C154.46 155.335 154.429 155.347 154.397 155.346V155.356ZM154.397 152.856C154.364 152.856 154.333 152.842 154.309 152.819C154.286 152.795 154.272 152.764 154.272 152.73V151.472C154.272 151.438 154.285 151.406 154.308 151.383C154.332 151.359 154.364 151.346 154.397 151.346C154.431 151.346 154.463 151.359 154.486 151.383C154.51 151.406 154.523 151.438 154.523 151.472V152.73C154.523 152.764 154.51 152.796 154.486 152.819C154.463 152.843 154.431 152.856 154.397 152.856ZM154.397 150.354C154.364 150.354 154.332 150.34 154.308 150.317C154.285 150.293 154.272 150.261 154.272 150.228V148.969C154.272 148.936 154.286 148.904 154.309 148.881C154.333 148.857 154.364 148.844 154.397 148.843C154.431 148.843 154.463 148.856 154.486 148.88C154.51 148.903 154.523 148.936 154.523 148.969V150.228C154.523 150.261 154.51 150.293 154.486 150.317C154.463 150.34 154.431 150.354 154.397 150.354ZM154.397 147.854C154.364 147.853 154.333 147.839 154.309 147.816C154.286 147.792 154.272 147.761 154.272 147.728V146.469C154.272 146.435 154.285 146.403 154.308 146.38C154.332 146.356 154.364 146.343 154.397 146.343C154.431 146.343 154.463 146.356 154.486 146.38C154.51 146.403 154.523 146.435 154.523 146.469V147.728C154.523 147.761 154.51 147.793 154.486 147.817C154.463 147.84 154.431 147.854 154.397 147.854ZM154.397 145.351C154.364 145.351 154.332 145.338 154.308 145.314C154.285 145.29 154.272 145.258 154.272 145.225V143.966C154.272 143.933 154.285 143.901 154.308 143.877C154.332 143.853 154.364 143.84 154.397 143.84C154.431 143.84 154.463 143.853 154.486 143.877C154.51 143.901 154.523 143.933 154.523 143.966V145.225C154.523 145.258 154.51 145.29 154.486 145.314C154.463 145.338 154.431 145.351 154.397 145.351ZM154.397 142.851C154.364 142.851 154.332 142.837 154.308 142.814C154.285 142.79 154.272 142.758 154.272 142.725V141.466C154.272 141.433 154.286 141.401 154.309 141.378C154.333 141.354 154.364 141.341 154.397 141.34C154.431 141.34 154.463 141.353 154.486 141.377C154.51 141.401 154.523 141.433 154.523 141.466V142.725C154.523 142.758 154.51 142.79 154.486 142.814C154.463 142.837 154.431 142.851 154.397 142.851ZM154.397 140.351C154.364 140.35 154.333 140.336 154.309 140.313C154.286 140.29 154.272 140.258 154.272 140.225V138.966C154.272 138.932 154.285 138.9 154.308 138.877C154.332 138.853 154.364 138.84 154.397 138.84C154.431 138.84 154.463 138.853 154.486 138.877C154.51 138.9 154.523 138.932 154.523 138.966V140.225C154.523 140.258 154.51 140.29 154.486 140.314C154.463 140.337 154.431 140.351 154.397 140.351ZM154.397 137.848C154.364 137.848 154.332 137.835 154.308 137.811C154.285 137.787 154.272 137.755 154.272 137.722V136.463C154.272 136.43 154.285 136.398 154.308 136.374C154.332 136.351 154.364 136.337 154.397 136.337C154.431 136.337 154.463 136.351 154.486 136.374C154.51 136.398 154.523 136.43 154.523 136.463V137.722C154.523 137.755 154.51 137.787 154.486 137.811C154.463 137.835 154.431 137.848 154.397 137.848ZM154.397 135.348C154.364 135.348 154.332 135.334 154.308 135.311C154.285 135.287 154.272 135.255 154.272 135.222V133.963C154.272 133.93 154.286 133.898 154.309 133.875C154.333 133.851 154.364 133.838 154.397 133.837C154.431 133.837 154.463 133.85 154.486 133.874C154.51 133.898 154.523 133.93 154.523 133.963V135.222C154.523 135.255 154.51 135.287 154.486 135.311C154.463 135.334 154.431 135.348 154.397 135.348ZM154.397 132.845C154.364 132.845 154.332 132.832 154.308 132.808C154.285 132.785 154.272 132.753 154.272 132.719V131.46C154.272 131.427 154.285 131.395 154.308 131.371C154.332 131.348 154.364 131.334 154.397 131.334C154.431 131.334 154.463 131.348 154.486 131.371C154.51 131.395 154.523 131.427 154.523 131.46V132.719C154.523 132.753 154.51 132.785 154.486 132.808C154.463 132.832 154.431 132.845 154.397 132.845ZM154.397 130.345C154.364 130.345 154.332 130.332 154.308 130.308C154.285 130.284 154.272 130.252 154.272 130.219V128.96C154.272 128.927 154.286 128.895 154.309 128.872C154.333 128.848 154.364 128.835 154.397 128.834C154.431 128.834 154.463 128.848 154.486 128.871C154.51 128.895 154.523 128.927 154.523 128.96V130.219C154.523 130.252 154.51 130.284 154.486 130.308C154.463 130.332 154.431 130.345 154.397 130.345ZM154.397 127.845C154.364 127.844 154.333 127.831 154.309 127.807C154.286 127.784 154.272 127.752 154.272 127.719V126.46C154.272 126.427 154.285 126.395 154.308 126.371C154.332 126.347 154.364 126.334 154.397 126.334C154.431 126.334 154.463 126.347 154.486 126.371C154.51 126.395 154.523 126.427 154.523 126.46V127.719C154.523 127.752 154.51 127.784 154.486 127.808C154.463 127.832 154.431 127.845 154.397 127.845ZM154.397 125.342C154.364 125.342 154.332 125.329 154.308 125.305C154.285 125.282 154.272 125.25 154.272 125.216V123.957C154.272 123.924 154.285 123.892 154.308 123.868C154.332 123.845 154.364 123.831 154.397 123.831C154.431 123.831 154.463 123.845 154.486 123.868C154.51 123.892 154.523 123.924 154.523 123.957V125.216C154.523 125.25 154.51 125.282 154.486 125.305C154.463 125.329 154.431 125.342 154.397 125.342ZM154.397 122.842C154.364 122.842 154.332 122.829 154.308 122.805C154.285 122.782 154.272 122.75 154.272 122.716V121.457C154.272 121.424 154.286 121.392 154.309 121.369C154.333 121.345 154.364 121.332 154.397 121.331C154.431 121.331 154.463 121.345 154.486 121.368C154.51 121.392 154.523 121.424 154.523 121.457V122.716C154.523 122.75 154.51 122.782 154.486 122.805C154.463 122.829 154.431 122.842 154.397 122.842ZM154.397 120.342C154.364 120.341 154.333 120.328 154.309 120.304C154.286 120.281 154.272 120.249 154.272 120.216V118.957C154.272 118.924 154.285 118.892 154.308 118.868C154.332 118.844 154.364 118.831 154.397 118.831C154.431 118.831 154.463 118.844 154.486 118.868C154.51 118.892 154.523 118.924 154.523 118.957V120.216C154.524 120.233 154.522 120.25 154.516 120.266C154.51 120.283 154.501 120.297 154.489 120.31C154.477 120.322 154.463 120.332 154.447 120.339C154.432 120.346 154.415 120.349 154.397 120.349V120.342ZM154.397 117.839C154.364 117.839 154.332 117.826 154.308 117.802C154.285 117.779 154.272 117.747 154.272 117.713V116.454C154.272 116.421 154.286 116.39 154.309 116.366C154.333 116.343 154.364 116.329 154.397 116.329C154.431 116.329 154.463 116.342 154.486 116.365C154.51 116.389 154.523 116.421 154.523 116.454V117.713C154.521 117.745 154.507 117.775 154.484 117.797C154.46 117.819 154.429 117.832 154.397 117.832V117.839ZM154.397 115.339C154.364 115.338 154.333 115.325 154.309 115.301C154.286 115.278 154.272 115.246 154.272 115.213V113.954C154.272 113.921 154.285 113.889 154.308 113.865C154.332 113.842 154.364 113.828 154.397 113.828C154.431 113.828 154.463 113.842 154.486 113.865C154.51 113.889 154.523 113.921 154.523 113.954V115.213C154.523 115.247 154.51 115.279 154.486 115.302C154.463 115.326 154.431 115.339 154.397 115.339ZM154.397 112.836C154.364 112.836 154.332 112.823 154.308 112.8C154.285 112.776 154.272 112.744 154.272 112.711V111.452C154.272 111.418 154.285 111.386 154.308 111.363C154.332 111.339 154.364 111.326 154.397 111.326C154.431 111.326 154.463 111.339 154.486 111.363C154.51 111.386 154.523 111.418 154.523 111.452V112.711C154.523 112.744 154.51 112.776 154.486 112.8C154.463 112.823 154.431 112.836 154.397 112.836ZM154.397 110.336C154.364 110.336 154.332 110.323 154.308 110.299C154.285 110.276 154.272 110.244 154.272 110.21V108.951C154.272 108.918 154.286 108.887 154.309 108.863C154.333 108.84 154.364 108.826 154.397 108.826C154.431 108.826 154.463 108.839 154.486 108.862C154.51 108.886 154.523 108.918 154.523 108.951V110.21C154.523 110.244 154.51 110.276 154.486 110.299C154.463 110.323 154.431 110.336 154.397 110.336ZM154.397 107.836C154.364 107.835 154.333 107.822 154.309 107.799C154.286 107.775 154.272 107.743 154.272 107.71V106.451C154.272 106.418 154.285 106.386 154.308 106.362C154.332 106.339 154.364 106.325 154.397 106.325C154.431 106.325 154.463 106.339 154.486 106.362C154.51 106.386 154.523 106.418 154.523 106.451V107.71C154.523 107.744 154.51 107.776 154.486 107.799C154.463 107.823 154.431 107.836 154.397 107.836Z" fill="#1A2E35"/>
<path d="M154.397 105.333C154.364 105.333 154.332 105.32 154.308 105.297C154.285 105.273 154.272 105.241 154.272 105.207V104.578C154.272 104.545 154.286 104.513 154.309 104.49C154.333 104.466 154.364 104.453 154.397 104.452C154.431 104.452 154.463 104.465 154.486 104.489C154.51 104.513 154.523 104.545 154.523 104.578V105.207C154.523 105.241 154.51 105.273 154.486 105.297C154.463 105.32 154.431 105.333 154.397 105.333Z" fill="#1A2E35"/>
<path d="M494.576 56.5442H104.072C94.1969 56.5442 86.1917 64.5566 86.1917 74.4405V354.253C86.1917 364.137 94.1969 372.149 104.072 372.149H494.576C504.451 372.149 512.456 364.137 512.456 354.253V74.4405C512.456 64.5566 504.451 56.5442 494.576 56.5442Z" fill="white"/>
<path d="M297.404 372.708H103.71C98.8215 372.701 94.1356 370.754 90.6798 367.294C87.224 363.834 85.2807 359.143 85.276 354.25V74.4403C85.282 69.5477 87.2266 64.8573 90.6834 61.398C94.1401 57.9386 98.8265 55.9929 103.715 55.9875H218.503C218.644 55.9971 218.776 56.0599 218.873 56.1635C218.97 56.267 219.024 56.4035 219.024 56.5452C219.024 56.687 218.97 56.8234 218.873 56.927C218.776 57.0305 218.644 57.0934 218.503 57.1029H103.707C99.1143 57.1076 94.7109 58.9356 91.4631 62.1859C88.2152 65.4362 86.3882 69.8433 86.3828 74.4403V354.25C86.3915 358.846 88.2195 363.252 91.4666 366.502C94.7136 369.752 99.1151 371.581 103.707 371.59H297.402C297.549 371.59 297.691 371.649 297.795 371.753C297.899 371.857 297.958 371.999 297.958 372.146C297.958 372.294 297.899 372.436 297.795 372.54C297.691 372.644 297.549 372.703 297.402 372.703L297.404 372.708Z" fill="#1D2BB2"/>
<path d="M512.091 315.633C512.018 315.633 511.945 315.619 511.877 315.591C511.809 315.563 511.747 315.522 511.696 315.47C511.644 315.418 511.602 315.356 511.575 315.288C511.547 315.22 511.532 315.147 511.533 315.074V217.588C511.542 217.447 511.605 217.314 511.708 217.217C511.812 217.121 511.948 217.067 512.09 217.067C512.232 217.067 512.368 217.121 512.471 217.217C512.575 217.314 512.638 217.447 512.647 217.588V315.074C512.647 315.147 512.633 315.22 512.605 315.287C512.578 315.355 512.537 315.417 512.485 315.469C512.434 315.521 512.372 315.562 512.304 315.59C512.237 315.618 512.164 315.633 512.091 315.633Z" fill="#1D2BB2"/>
<path d="M512.091 144.898C512.018 144.898 511.945 144.884 511.878 144.856C511.81 144.828 511.748 144.787 511.696 144.735C511.645 144.684 511.603 144.622 511.575 144.555C511.547 144.487 511.533 144.414 511.533 144.341V74.4403C511.527 69.8433 509.7 65.4362 506.453 62.1859C503.205 58.9356 498.801 57.1076 494.208 57.1029H324.23C324.089 57.0934 323.956 57.0305 323.859 56.927C323.763 56.8234 323.709 56.687 323.709 56.5452C323.709 56.4035 323.763 56.267 323.859 56.1635C323.956 56.0599 324.089 55.9971 324.23 55.9875H494.208C499.097 55.9929 503.783 57.9386 507.24 61.398C510.696 64.8573 512.641 69.5477 512.647 74.4403V144.341C512.647 144.489 512.589 144.63 512.484 144.735C512.38 144.839 512.239 144.898 512.091 144.898Z" fill="#1D2BB2"/>
<path d="M399.233 76.3565H279.474C279.326 76.3565 279.185 76.2979 279.081 76.1935C278.976 76.0892 278.918 75.9477 278.918 75.8001C278.918 75.6525 278.976 75.511 279.081 75.4066C279.185 75.3023 279.326 75.2437 279.474 75.2437H399.235C399.382 75.2437 399.524 75.3023 399.628 75.4066C399.732 75.511 399.791 75.6525 399.791 75.8001C399.791 75.9477 399.732 76.0892 399.628 76.1935C399.524 76.2979 399.382 76.3565 399.235 76.3565H399.233Z" fill="#1D2BB2"/>
<path d="M108.786 145.102C108.639 145.102 108.497 145.043 108.393 144.939C108.289 144.834 108.23 144.693 108.23 144.545V88.4368C108.234 84.939 109.624 81.5856 112.095 79.1122C114.566 76.6389 117.917 75.2477 121.411 75.2437H225.139C225.286 75.2437 225.428 75.3023 225.532 75.4066C225.636 75.511 225.695 75.6525 225.695 75.8001C225.695 75.9477 225.636 76.0892 225.532 76.1935C225.428 76.2979 225.286 76.3565 225.139 76.3565H121.411C118.209 76.3565 115.138 77.6298 112.873 79.8962C110.609 82.1626 109.337 85.2366 109.337 88.4418V144.545C109.337 144.692 109.279 144.833 109.176 144.937C109.073 145.041 108.933 145.1 108.786 145.102Z" fill="#1D2BB2"/>
<path d="M347.204 333.403H121.411C117.916 333.398 114.566 332.007 112.095 329.533C109.624 327.059 108.234 323.705 108.23 320.207V230.628C108.23 230.48 108.289 230.339 108.393 230.234C108.497 230.13 108.639 230.071 108.786 230.071C108.933 230.071 109.075 230.13 109.179 230.234C109.283 230.339 109.342 230.48 109.342 230.628V320.207C109.342 323.413 110.614 326.487 112.878 328.753C115.143 331.019 118.214 332.293 121.416 332.293H347.209C347.35 332.302 347.483 332.365 347.58 332.469C347.676 332.572 347.73 332.709 347.73 332.85C347.73 332.992 347.676 333.129 347.58 333.232C347.483 333.336 347.35 333.399 347.209 333.408L347.204 333.403Z" fill="#1D2BB2"/>
<path d="M488.176 134.817C488.103 134.817 488.03 134.803 487.962 134.775C487.894 134.747 487.832 134.706 487.781 134.654C487.729 134.602 487.688 134.54 487.66 134.472C487.632 134.404 487.617 134.331 487.618 134.258V88.4342C487.618 85.229 486.346 82.1551 484.081 79.8886C481.817 77.6222 478.746 76.3489 475.543 76.3489H467.951C467.804 76.3489 467.663 76.2903 467.558 76.186C467.454 76.0816 467.396 75.9401 467.396 75.7925C467.396 75.6449 467.454 75.5034 467.558 75.3991C467.663 75.2947 467.804 75.2361 467.951 75.2361H475.543C479.038 75.2401 482.389 76.6313 484.86 79.1045C487.332 81.5778 488.722 84.9312 488.727 88.4292V134.253C488.728 134.326 488.715 134.399 488.687 134.467C488.66 134.535 488.62 134.597 488.569 134.649C488.518 134.702 488.456 134.743 488.389 134.772C488.322 134.801 488.249 134.816 488.176 134.817Z" fill="#1D2BB2"/>
<path d="M482.063 358.467H113.611C112.343 358.467 111.127 357.963 110.231 357.066C109.335 356.169 108.831 354.952 108.831 353.684C108.831 352.415 109.335 351.198 110.231 350.301C111.127 349.404 112.343 348.9 113.611 348.9H482.063C483.331 348.9 484.547 349.404 485.443 350.301C486.339 351.198 486.843 352.415 486.843 353.684C486.843 354.952 486.339 356.169 485.443 357.066C484.547 357.963 483.331 358.467 482.063 358.467Z" fill="white"/>
<path d="M482.063 359.034H113.611C112.196 359.034 110.84 358.472 109.84 357.471C108.84 356.47 108.278 355.112 108.278 353.696C108.278 352.281 108.84 350.923 109.84 349.922C110.84 348.921 112.196 348.359 113.611 348.359H482.063C483.478 348.359 484.834 348.921 485.834 349.922C486.835 350.923 487.396 352.281 487.396 353.696C487.396 355.112 486.835 356.47 485.834 357.471C484.834 358.472 483.478 359.034 482.063 359.034ZM113.611 349.466C112.492 349.466 111.419 349.911 110.628 350.703C109.837 351.495 109.392 352.569 109.392 353.689C109.392 354.809 109.837 355.883 110.628 356.674C111.419 357.466 112.492 357.911 113.611 357.911H482.063C483.182 357.911 484.255 357.466 485.046 356.674C485.838 355.883 486.282 354.809 486.282 353.689C486.282 352.569 485.838 351.495 485.046 350.703C484.255 349.911 483.182 349.466 482.063 349.466H113.611Z" fill="#1D2BB2"/>
<path d="M281.577 361.018C285.714 361.018 289.068 357.661 289.068 353.52C289.068 349.379 285.714 346.022 281.577 346.022C277.44 346.022 274.086 349.379 274.086 353.52C274.086 357.661 277.44 361.018 281.577 361.018Z" fill="white"/>
<path d="M281.577 361.574C279.985 361.574 278.428 361.102 277.105 360.217C275.781 359.331 274.749 358.073 274.14 356.601C273.531 355.129 273.371 353.509 273.682 351.946C273.992 350.383 274.759 348.947 275.885 347.82C277.011 346.694 278.445 345.926 280.006 345.616C281.568 345.305 283.186 345.464 284.657 346.074C286.128 346.684 287.385 347.716 288.27 349.041C289.154 350.366 289.626 351.924 289.626 353.518C289.626 355.654 288.778 357.704 287.269 359.215C285.759 360.726 283.712 361.574 281.577 361.574ZM281.577 346.579C280.205 346.578 278.864 346.985 277.723 347.747C276.582 348.51 275.693 349.594 275.168 350.862C274.642 352.13 274.505 353.526 274.772 354.873C275.039 356.219 275.7 357.457 276.669 358.428C277.639 359.399 278.875 360.06 280.22 360.328C281.566 360.596 282.96 360.459 284.228 359.933C285.495 359.408 286.578 358.518 287.341 357.377C288.103 356.235 288.51 354.893 288.51 353.52C288.508 351.68 287.777 349.916 286.477 348.615C285.177 347.314 283.415 346.581 281.577 346.579Z" fill="#1D2BB2"/>
<path d="M405.225 240.5H352.945V271.081H405.225V240.5Z" fill="white"/>
<path d="M405.225 271.521H352.945C352.828 271.521 352.716 271.475 352.633 271.392C352.551 271.31 352.504 271.198 352.504 271.081V240.5C352.504 240.383 352.551 240.271 352.633 240.188C352.716 240.106 352.828 240.059 352.945 240.059H405.225C405.341 240.059 405.453 240.106 405.536 240.188C405.618 240.271 405.665 240.383 405.665 240.5V271.081C405.665 271.198 405.618 271.31 405.536 271.392C405.453 271.475 405.341 271.521 405.225 271.521ZM353.385 270.64H404.784V240.951H353.385V270.64Z" fill="#1D2BB2"/>
<path d="M352.945 271.081L378.671 247.295L405.225 271.081H352.945Z" fill="white"/>
<path d="M405.225 271.521H352.945C352.858 271.52 352.774 271.492 352.702 271.443C352.631 271.393 352.576 271.324 352.544 271.243C352.512 271.162 352.505 271.074 352.523 270.989C352.541 270.904 352.583 270.827 352.645 270.766L378.371 246.983C378.452 246.909 378.557 246.867 378.667 246.867C378.777 246.867 378.882 246.909 378.963 246.983L405.519 270.768C405.585 270.828 405.631 270.906 405.652 270.993C405.673 271.08 405.667 271.17 405.635 271.254C405.603 271.337 405.547 271.408 405.474 271.459C405.4 271.509 405.313 271.536 405.225 271.536V271.521ZM354.069 270.64H404.072L378.666 247.892L354.069 270.64Z" fill="#1D2BB2"/>
<path d="M352.945 240.5L379.083 255.79L405.225 240.5H352.945Z" fill="white"/>
<path d="M379.088 256.231C379.01 256.231 378.934 256.21 378.867 256.171L352.728 240.88C352.643 240.831 352.576 240.755 352.539 240.664C352.502 240.572 352.497 240.471 352.524 240.377C352.55 240.283 352.606 240.201 352.682 240.143C352.759 240.084 352.853 240.052 352.95 240.052H405.224C405.321 240.052 405.415 240.084 405.492 240.143C405.568 240.201 405.624 240.283 405.65 240.377C405.677 240.471 405.672 240.572 405.635 240.664C405.598 240.755 405.531 240.831 405.446 240.88L379.307 256.171C379.241 256.209 379.165 256.23 379.088 256.231ZM354.57 240.951L379.083 255.289L403.599 240.951H354.57Z" fill="#1D2BB2"/>
<path d="M378.623 240.656C378.506 240.656 378.394 240.61 378.312 240.527C378.229 240.444 378.183 240.332 378.183 240.216V191.323C378.183 191.206 378.229 191.094 378.312 191.011C378.394 190.929 378.506 190.882 378.623 190.882C378.74 190.882 378.852 190.929 378.934 191.011C379.017 191.094 379.063 191.206 379.063 191.323V240.216C379.063 240.332 379.017 240.444 378.934 240.527C378.852 240.61 378.74 240.656 378.623 240.656Z" fill="#1D2BB2"/>
<path d="M392.924 0.556396H303.09C298.003 0.556396 294.114 4.69813 294.114 9.78906V35.8127C294.114 40.9037 298.003 45.0177 303.09 45.0177H306.34V62.3903L318.163 45.0177H392.924C398.01 45.0177 402.364 40.9037 402.364 35.8127V9.78906C402.372 4.69813 398.018 0.556396 392.924 0.556396Z" fill="white"/>
<path d="M306.34 62.9442C306.283 62.9445 306.227 62.936 306.174 62.9191C306.06 62.8838 305.961 62.8132 305.891 62.7177C305.82 62.6222 305.782 62.5066 305.781 62.3878V45.5716H303.09C297.744 45.5716 293.556 41.2914 293.556 35.8102V9.79161C293.561 4.30035 297.744 0 303.09 0H392.924C398.342 0 402.923 4.48415 402.923 9.79161V35.8128C402.923 41.1001 398.342 45.5742 392.924 45.5742H318.464L306.807 62.7076C306.755 62.7827 306.685 62.8436 306.603 62.8849C306.522 62.9262 306.431 62.9466 306.34 62.9442ZM303.09 1.11285C298.368 1.11285 294.67 4.92476 294.67 9.79161V35.8128C294.67 40.662 298.368 44.4588 303.09 44.4588H306.34C306.413 44.4588 306.485 44.4733 306.553 44.5014C306.62 44.5295 306.682 44.5707 306.734 44.6226C306.785 44.6746 306.826 44.7362 306.854 44.804C306.882 44.8718 306.896 44.9444 306.895 45.0177V60.5876L317.712 44.703C317.763 44.6267 317.831 44.5638 317.911 44.5199C317.991 44.4761 318.081 44.4525 318.173 44.4512H392.924C397.741 44.4512 401.808 40.4933 401.808 35.8052V9.79161C401.808 5.08841 397.741 1.11285 392.924 1.11285H303.09Z" fill="#1D2BB2"/>
<path d="M356.197 19.1149H383.895C384.755 19.1149 385.579 18.7733 386.186 18.1651C386.794 17.5569 387.135 16.7321 387.135 15.872C387.135 15.012 386.794 14.1871 386.186 13.579C385.579 12.9708 384.755 12.6292 383.895 12.6292H356.197C355.338 12.6292 354.514 12.9708 353.906 13.579C353.298 14.1871 352.957 15.012 352.957 15.872C352.957 16.7321 353.298 17.5569 353.906 18.1651C354.514 18.7733 355.338 19.1149 356.197 19.1149Z" fill="#1D2BB2"/>
<path d="M325.792 19.1149H340.601C341.46 19.1149 342.284 18.7733 342.892 18.1651C343.5 17.5569 343.841 16.7321 343.841 15.872C343.841 15.012 343.5 14.1871 342.892 13.579C342.284 12.9708 341.46 12.6292 340.601 12.6292H325.79C324.93 12.6292 324.106 12.9708 323.499 13.579C322.891 14.1871 322.55 15.012 322.55 15.872C322.55 16.7321 322.891 17.5569 323.499 18.1651C324.106 18.7733 324.93 19.1149 325.79 19.1149H325.792Z" fill="#1D2BB2"/>
<path d="M312.603 33.1288H383.883C384.742 33.1288 385.566 32.7872 386.174 32.179C386.781 31.5709 387.123 30.746 387.123 29.886C387.123 29.0259 386.781 28.201 386.174 27.5929C385.566 26.9847 384.742 26.6431 383.883 26.6431H312.603C311.744 26.6431 310.92 26.9847 310.312 27.5929C309.705 28.201 309.363 29.0259 309.363 29.886C309.363 30.746 309.705 31.5709 310.312 32.179C310.92 32.7872 311.744 33.1288 312.603 33.1288Z" fill="#1D2BB2"/>
<path d="M232.703 333.234H297.802C292.036 281.99 286.266 249.292 286.266 249.292L188.229 232.171L178.451 260.156C175.52 268.628 171.508 281.091 167.77 296.505C165.757 304.779 162.94 313.183 160.661 333.234H232.703Z" fill="#1D2BB2"/>
<path d="M232.71 333.796C232.653 333.795 232.596 333.786 232.542 333.768C232.472 333.746 232.407 333.71 232.351 333.663C232.295 333.616 232.249 333.558 232.216 333.493C232.182 333.428 232.161 333.357 232.155 333.284C232.149 333.211 232.157 333.138 232.18 333.068C236.916 318.228 246.141 317.332 246.518 317.302C246.664 317.292 246.807 317.339 246.919 317.433C247.031 317.527 247.101 317.66 247.117 317.805C247.129 317.951 247.082 318.096 246.988 318.209C246.894 318.321 246.759 318.391 246.614 318.405C246.523 318.405 237.726 319.321 233.234 333.4C233.2 333.513 233.13 333.612 233.036 333.684C232.942 333.755 232.828 333.794 232.71 333.796Z" fill="white"/>
<path d="M299.678 276.972C299.553 285.142 300.008 292.373 283.557 293.393C264.059 294.604 249.179 274.107 249.179 274.107C249.179 274.107 299.719 274.25 299.678 276.972Z" fill="#1D2BB2"/>
<path d="M395.776 119.826L405.202 107.181C405.202 107.181 399.14 96.9642 404.573 91.3194C413.483 82.0767 411.657 65.0565 416.343 61.5317C418.197 60.1393 420.846 61.6525 420.778 63.9714L420.421 75.966C420.509 79.1837 425.542 82.0616 428.244 80.3344C433.469 76.9958 438.543 75.3819 444.399 73.977C447.483 73.2343 451.598 72.6829 453.807 73.1285C457.175 73.8083 457.874 76.4998 455.407 78.8992C447.928 86.1806 428.47 89.6828 423.809 105.104C422.021 111.016 416.124 118.652 411.544 125.989L395.776 119.826Z" fill="white"/>
<path d="M411.538 126.556C411.47 126.556 411.401 126.543 411.337 126.518L395.575 120.349C395.495 120.318 395.423 120.269 395.365 120.206C395.307 120.143 395.264 120.067 395.239 119.985C395.215 119.902 395.21 119.815 395.225 119.73C395.239 119.646 395.273 119.565 395.323 119.496L404.53 107.144C403.511 105.293 398.996 96.3172 404.165 90.9468C409.139 85.7879 410.721 78.003 411.991 71.7463C413.015 66.7108 413.823 62.7428 416.001 61.1012C416.491 60.7315 417.077 60.5111 417.688 60.4665C418.3 60.4218 418.912 60.5548 419.45 60.8494C420.03 61.145 420.515 61.5997 420.847 62.1605C421.179 62.7213 421.346 63.3651 421.326 64.0168L420.969 76.0089C421.007 77.3131 422.106 78.7457 423.769 79.6294C425.313 80.4477 426.911 80.5484 427.937 79.8938C433.164 76.5553 438.251 74.9086 444.26 73.4609C447.412 72.7056 451.618 72.1492 453.91 72.6099C455.718 72.975 456.928 73.8914 457.308 75.1931C457.688 76.4948 457.14 78.0105 455.799 79.3273C453.213 81.8451 449.231 83.9172 445.015 86.1127C436.741 90.4231 427.364 95.3076 424.342 105.293C423.022 109.664 419.593 114.813 415.963 120.264C414.638 122.253 413.269 124.307 412.019 126.306C411.967 126.386 411.896 126.45 411.811 126.494C411.727 126.538 411.633 126.559 411.538 126.556ZM396.654 119.571L411.312 125.312C412.504 123.418 413.787 121.495 415.027 119.629C418.612 114.249 421.998 109.165 423.271 104.953C426.425 94.5195 436.024 89.5192 444.494 85.1081C448.635 82.9504 452.544 80.9135 455.014 78.5116C456.061 77.4919 456.508 76.3916 456.244 75.4902C455.98 74.5889 455.077 73.967 453.693 73.6875C451.568 73.2595 447.556 73.8008 444.524 74.531C438.613 75.9485 433.635 77.5523 428.538 80.8254C427.152 81.7091 425.178 81.626 423.256 80.6063C421.243 79.5388 419.913 77.731 419.865 76.0013L420.219 63.9765C420.233 63.5345 420.12 63.0977 419.894 62.7177C419.668 62.3377 419.339 62.0302 418.944 61.8313C418.591 61.6372 418.189 61.5496 417.788 61.5791C417.386 61.6086 417.001 61.7539 416.68 61.9975C414.839 63.3823 414.029 67.3654 413.093 71.9754C411.793 78.3706 410.175 86.3267 404.975 91.7248C399.897 96.9945 405.624 106.809 405.682 106.907C405.739 107.001 405.766 107.11 405.76 107.22C405.755 107.33 405.716 107.436 405.65 107.524L396.654 119.571Z" fill="#1D2BB2"/>
<path d="M396.36 107.69C396.36 107.69 362.509 153.116 344.877 166.424C337.18 147.833 324.084 125.261 302.79 111.175C276.742 93.9127 228.706 93.5854 202.884 100.459C194.792 102.612 187.577 104.885 181.178 107.355C156.198 116.996 160.535 157.134 172.471 203.008C177.472 222.228 176.496 242.554 170.331 261.435C166.122 274.339 163.335 287.416 168.132 290.07C178.149 295.609 191.868 298.743 207.148 293.131C237.709 281.902 285.395 269.192 299.633 279.049L301.019 212.726C304.076 218.978 309.32 224.849 317.991 229.22C369.499 255.216 421.309 123.396 421.309 123.396L396.36 107.69Z" fill="#00FAAC"/>
<path d="M190.852 296.664C181.409 296.664 173.535 293.683 167.863 290.546C163.587 288.176 164.236 278.319 169.8 261.249C176.089 242.001 176.816 221.904 171.933 203.136C164.957 176.327 161.936 156.761 162.424 141.564C163.031 122.772 169.098 111.406 180.976 106.819C187.31 104.374 194.429 102.113 202.741 99.9026C216.42 96.2695 235.133 94.8872 252.799 96.2065C267.412 97.2992 288.017 100.698 303.11 110.694C324.816 125.045 337.907 148.299 345.119 165.526C362.629 151.895 395.575 107.801 395.91 107.353C395.993 107.24 396.116 107.164 396.253 107.138C396.391 107.112 396.533 107.14 396.652 107.214L421.6 122.913C421.71 122.982 421.792 123.087 421.833 123.21C421.873 123.333 421.869 123.467 421.822 123.587C421.731 123.816 412.706 146.65 398.707 171.13C385.757 193.77 365.776 222.493 344.12 230.766C334.951 234.268 326.074 233.911 317.74 229.704C310.51 226.055 305.067 221.073 301.53 214.872L300.189 279.049C300.187 279.15 300.157 279.248 300.103 279.333C300.049 279.419 299.974 279.488 299.884 279.533C299.794 279.579 299.694 279.599 299.594 279.593C299.493 279.586 299.397 279.552 299.314 279.495C284.678 269.364 234.615 283.619 207.336 293.64C202.064 295.617 196.482 296.641 190.852 296.664ZM239.377 96.8889C225.541 96.8889 212.564 98.4499 203.027 100.985C194.754 103.183 187.683 105.434 181.379 107.861C160.586 115.885 158.005 145.182 173.01 202.854C177.948 221.828 177.203 242.131 170.859 261.596C164.163 282.136 165.828 288.146 168.404 289.571C176.919 294.282 190.523 298.635 206.957 292.593C233.935 282.68 283.116 268.704 299.097 278.035L300.463 212.699C300.466 212.574 300.51 212.453 300.589 212.356C300.668 212.259 300.778 212.192 300.9 212.165C301.022 212.139 301.15 212.154 301.262 212.209C301.375 212.263 301.465 212.354 301.52 212.467C304.881 219.338 310.505 224.804 318.243 228.707C326.293 232.768 334.86 233.108 343.725 229.714C365.074 221.564 384.874 193.068 397.738 170.589C406.35 155.427 413.996 139.735 420.63 123.607L396.508 108.435C393.062 113.023 361.819 154.342 345.232 166.848C345.164 166.899 345.086 166.934 345.002 166.951C344.919 166.967 344.833 166.964 344.751 166.941C344.669 166.919 344.593 166.878 344.53 166.821C344.466 166.765 344.416 166.695 344.384 166.616C337.285 149.47 324.26 126.012 302.503 111.618C286.381 100.963 261.739 96.8889 239.377 96.8889Z" fill="#1D2BB2"/>
<path d="M152.126 231.202L168.258 260.262C168.966 261.535 170.149 262.477 171.549 262.879C172.949 263.282 174.451 263.113 175.726 262.409L185.897 257.11C187.241 256.405 188.682 255.902 190.173 255.616C191.497 255.353 192.863 255.386 194.172 255.712C195.482 256.039 196.704 256.651 197.75 257.505L213.444 270.247C221.33 278.679 204.026 280.51 200.56 280.14L194.608 279.505C194.608 279.505 188.045 279.777 182.785 281.64C177.525 283.503 170.109 284.682 162.505 282.003L161.911 281.791C157.364 280.19 153.464 277.144 150.808 273.117L131.438 243.793L152.126 231.202Z" fill="white"/>
<path d="M171.792 284.118C168.562 284.13 165.353 283.592 162.304 282.526L161.707 282.317C157.051 280.668 153.057 277.548 150.325 273.43L130.955 244.105C130.914 244.043 130.886 243.973 130.872 243.899C130.859 243.825 130.86 243.749 130.877 243.676C130.893 243.603 130.924 243.534 130.968 243.473C131.012 243.412 131.067 243.361 131.131 243.322L151.824 230.733C151.888 230.695 151.96 230.669 152.034 230.658C152.108 230.647 152.184 230.652 152.257 230.67C152.329 230.69 152.396 230.724 152.455 230.77C152.514 230.817 152.563 230.874 152.599 230.94L168.733 259.997C169.371 261.141 170.434 261.985 171.691 262.348C172.948 262.71 174.297 262.56 175.445 261.931L185.612 256.624C187.001 255.895 188.49 255.374 190.03 255.078C191.434 254.796 192.883 254.829 194.273 255.176C195.662 255.522 196.958 256.172 198.067 257.079L213.761 269.822C213.781 269.838 213.799 269.856 213.816 269.875C215.887 272.088 216.493 274.097 215.622 275.847C213.509 280.087 202.949 280.968 200.467 280.701L194.558 280.072C194.004 280.099 187.844 280.437 182.941 282.174C179.359 283.44 175.591 284.097 171.792 284.118ZM132.216 243.972L151.255 272.815C153.852 276.731 157.647 279.698 162.072 281.27L162.668 281.479C170.909 284.382 178.68 282.486 182.576 281.119C187.859 279.248 194.286 278.964 194.558 278.951C194.585 278.947 194.613 278.947 194.641 278.951L200.592 279.583C203.322 279.875 212.918 278.8 214.634 275.341C215.273 274.057 214.735 272.481 213.037 270.653L197.372 257.933C196.39 257.131 195.243 256.556 194.012 256.252C192.781 255.947 191.499 255.919 190.256 256.17C188.824 256.448 187.439 256.931 186.146 257.606L175.978 262.913C174.573 263.681 172.922 263.862 171.384 263.417C169.847 262.973 168.547 261.938 167.767 260.539L151.92 231.987L132.216 243.972Z" fill="#1D2BB2"/>
<path d="M185.22 180.272C157.197 184.613 161.946 210.166 161.946 210.166L167.805 248.826L139.684 266.972C139.684 266.972 83.3365 206.855 106.982 158.551C126.573 118.547 194.867 102.778 194.867 102.778L185.22 180.272Z" fill="#00FAAC"/>
<path d="M139.684 267.526C139.608 267.526 139.532 267.51 139.462 267.48C139.392 267.45 139.329 267.405 139.277 267.349C139.136 267.198 125.011 252.024 113.973 231.131C107.483 218.844 103.307 207.008 101.566 195.953C99.3855 182.105 101.041 169.423 106.487 158.302C116.68 137.488 140.149 123.348 158.055 115.15C177.404 106.288 194.585 102.269 194.756 102.229C194.897 102.204 195.042 102.234 195.162 102.313C195.281 102.392 195.366 102.513 195.398 102.653C195.431 102.793 195.408 102.939 195.335 103.063C195.263 103.186 195.146 103.277 195.008 103.317C194.837 103.354 177.751 107.345 158.5 116.172C140.778 124.292 117.545 138.278 107.501 158.791C95.3708 183.545 104.862 211.493 114.959 230.61C125.021 249.647 137.641 263.892 139.777 266.247L167.196 248.547L161.396 210.234C161.318 209.806 159.441 199.229 165.687 190.411C169.747 184.678 176.29 181.075 185.134 179.706C185.28 179.683 185.429 179.719 185.548 179.806C185.667 179.893 185.747 180.024 185.77 180.17C185.792 180.316 185.756 180.465 185.669 180.584C185.582 180.704 185.451 180.783 185.306 180.806C176.773 182.128 170.482 185.572 166.6 191.046C160.626 199.47 162.475 209.944 162.495 210.05L168.356 248.728C168.371 248.834 168.356 248.943 168.311 249.041C168.267 249.138 168.195 249.221 168.104 249.279L139.981 267.425C139.894 267.487 139.791 267.522 139.684 267.526Z" fill="#1D2BB2"/>
<path d="M269.346 66.1594C272.058 64.9257 273.462 66.9802 277.502 66.4238C281.793 65.8321 286.517 62.6471 288.288 57.9867C290.426 52.3595 287.345 46.9967 285.4 43.6153C283.456 40.2339 281.003 36.5051 276.734 34.8887C271.168 32.7788 268.838 36.0167 262.466 34.0302C257.282 32.4138 257.662 29.9111 253.048 28.5968C249.202 27.4991 238.119 28.126 235.641 34.0302C234.066 37.7766 237.46 40.0552 235.769 45.6119C234.763 48.9454 233.156 49.3533 231.996 51.9265C229.106 58.3115 232.728 69.5257 239.626 73.2822C248.978 78.3756 264.67 68.2869 269.346 66.1594Z" fill="#1D2BB2"/>
<path d="M260.741 76.8701L262.917 94.7815C263.119 96.4473 263.817 98.0137 264.92 99.2775C266.023 100.541 267.48 101.444 269.102 101.869L275.374 103.883C275.649 103.972 275.894 104.136 276.08 104.357C276.267 104.578 276.388 104.847 276.429 105.133C276.47 105.419 276.43 105.712 276.313 105.976C276.197 106.241 276.008 106.468 275.769 106.63C259.921 117.034 238.056 116.85 222.885 105.316L221.114 103.956C220.85 103.755 220.649 103.483 220.535 103.171C220.42 102.86 220.397 102.522 220.467 102.198C220.538 101.873 220.699 101.576 220.933 101.34C221.166 101.104 221.462 100.94 221.786 100.867L229.546 99.1297C231.151 98.7692 232.615 97.9427 233.753 96.7537C234.892 95.5646 235.654 94.0658 235.945 92.445L240.685 66.0613L260.741 76.8701Z" fill="white"/>
<path d="M250.06 114.78C240.209 114.78 230.439 111.759 222.548 105.749L220.772 104.399C220.422 104.135 220.156 103.775 220.004 103.364C219.852 102.952 219.821 102.506 219.915 102.077C220.008 101.649 220.222 101.256 220.531 100.945C220.84 100.634 221.232 100.418 221.66 100.323L229.42 98.5859C230.92 98.2519 232.287 97.4812 233.349 96.371C234.412 95.2608 235.123 93.8606 235.392 92.3469L240.139 65.9657C240.154 65.8791 240.189 65.7974 240.242 65.7273C240.295 65.6573 240.364 65.6009 240.443 65.5628C240.521 65.5235 240.607 65.5029 240.695 65.5029C240.782 65.5029 240.868 65.5235 240.946 65.5628L261.002 76.3716C261.081 76.4139 261.148 76.4744 261.197 76.548C261.247 76.6217 261.279 76.7062 261.289 76.7946L263.468 94.706C263.65 96.2631 264.299 97.7283 265.33 98.9089C266.36 100.09 267.724 100.93 269.241 101.32L275.542 103.334C275.921 103.455 276.259 103.681 276.514 103.986C276.769 104.292 276.932 104.664 276.983 105.059C277.038 105.447 276.982 105.843 276.82 106.199C276.658 106.556 276.398 106.859 276.07 107.073C268.333 112.119 259.294 114.797 250.06 114.78ZM241.097 66.9149L236.486 92.5433C236.179 94.2727 235.368 95.8725 234.154 97.1413C232.941 98.4102 231.379 99.2912 229.667 99.6736L221.906 101.411C221.687 101.461 221.486 101.573 221.327 101.734C221.169 101.894 221.059 102.097 221.012 102.317C220.964 102.538 220.98 102.767 221.058 102.979C221.135 103.191 221.272 103.376 221.451 103.513L223.227 104.863C238.016 116.107 259.498 116.636 275.469 106.154C275.622 106.055 275.742 105.914 275.816 105.748C275.89 105.582 275.915 105.398 275.887 105.218C275.865 105.031 275.789 104.855 275.669 104.711C275.549 104.566 275.389 104.46 275.21 104.404L268.936 102.39C267.208 101.941 265.657 100.979 264.484 99.631C263.312 98.2831 262.575 96.612 262.368 94.837L260.228 77.2126L241.097 66.9149Z" fill="#1D2BB2"/>
<path d="M242.966 69.697C242.966 69.697 235.903 66.2577 238.385 59.6939C240.649 53.694 245.524 59.6612 245.524 59.6612C245.524 59.6612 249.532 45.2696 257.954 50.9471C266.376 56.6247 274.355 58.6843 274.355 58.6843C274.355 58.6843 271.389 73.169 266.054 82.807C262.841 88.6205 258.759 92.6691 253.979 90.7153C240.846 85.3701 242.966 69.697 242.966 69.697Z" fill="white"/>
<path d="M256.434 91.7803C255.519 91.7728 254.614 91.5864 253.77 91.2314C241.557 86.2613 242.161 72.4942 242.378 70.0091C240.929 69.1707 235.566 65.5728 237.865 59.4974C238.541 57.7123 239.522 56.7052 240.783 56.4988C242.544 56.2067 244.34 57.657 245.283 58.5835C246.038 56.3603 248.276 50.8615 252.196 49.4163C254.12 48.7063 256.163 49.0663 258.266 50.4838C266.511 56.0431 274.415 58.1253 274.493 58.1454C274.631 58.1812 274.751 58.2689 274.826 58.3903C274.901 58.5117 274.927 58.6575 274.898 58.7975C274.87 58.9435 271.854 73.4761 266.549 83.0764C263.349 88.8773 259.958 91.7803 256.434 91.7803ZM241.253 57.5764C241.155 57.5763 241.058 57.5839 240.961 57.599C240.121 57.7375 239.429 58.508 238.906 59.8927C236.642 65.8951 242.931 69.065 243.21 69.2085C243.315 69.2597 243.402 69.3427 243.457 69.4457C243.513 69.5486 243.535 69.6665 243.52 69.7825C243.497 69.9361 241.618 85.0931 254.19 90.2092C258.062 91.7853 261.893 89.2021 265.573 82.5476C270.242 74.103 273.12 61.7282 273.701 59.0896C268.007 57.3216 262.598 54.7376 257.644 51.4179C255.853 50.2119 254.15 49.8922 252.583 50.4712C248.271 52.06 246.083 59.7442 246.06 59.8222C246.033 59.9203 245.979 60.009 245.904 60.0785C245.83 60.148 245.738 60.1958 245.638 60.2166C245.539 60.2374 245.435 60.2304 245.339 60.1963C245.243 60.1623 245.159 60.1026 245.094 60.0237C244.508 59.3036 242.747 57.5764 241.253 57.5764Z" fill="#1D2BB2"/>
<path d="M137.682 416.565H137.662L133.348 416.424C133.2 416.419 133.06 416.355 132.959 416.247C132.858 416.139 132.804 415.995 132.809 415.848C132.811 415.774 132.827 415.702 132.857 415.635C132.887 415.568 132.93 415.508 132.984 415.458C133.038 415.408 133.101 415.369 133.17 415.344C133.239 415.319 133.312 415.308 133.385 415.311L137.699 415.452C137.847 415.455 137.987 415.515 138.09 415.621C138.192 415.727 138.249 415.87 138.246 416.017C138.244 416.165 138.183 416.306 138.077 416.408C137.972 416.511 137.829 416.567 137.682 416.565Z" fill="#1D2BB2"/>
<path d="M127.63 416.235H127.612L123.296 416.094C123.148 416.089 123.009 416.026 122.908 415.918C122.807 415.81 122.753 415.666 122.758 415.519C122.763 415.371 122.827 415.232 122.935 415.131C123.042 415.03 123.186 414.976 123.333 414.981L127.647 415.122C127.789 415.134 127.92 415.199 128.016 415.304C128.111 415.409 128.163 415.546 128.161 415.688C128.158 415.83 128.102 415.966 128.004 416.068C127.905 416.17 127.771 416.231 127.63 416.238V416.235Z" fill="#1D2BB2"/>
<path d="M130.593 413.458H130.575C130.502 413.456 130.43 413.439 130.363 413.409C130.297 413.379 130.237 413.335 130.186 413.282C130.136 413.228 130.097 413.165 130.072 413.097C130.046 413.028 130.034 412.955 130.037 412.881L130.178 408.563C130.179 408.49 130.194 408.417 130.224 408.349C130.253 408.281 130.296 408.221 130.35 408.17C130.404 408.12 130.468 408.081 130.537 408.056C130.607 408.031 130.68 408.02 130.754 408.025C130.902 408.03 131.041 408.094 131.142 408.202C131.243 408.31 131.297 408.453 131.292 408.601L131.149 412.919C131.144 413.064 131.083 413.2 130.979 413.301C130.876 413.401 130.737 413.457 130.593 413.458Z" fill="#1D2BB2"/>
<path d="M130.261 423.519H130.243C130.17 423.517 130.099 423.5 130.032 423.47C129.965 423.44 129.905 423.397 129.855 423.344C129.805 423.291 129.766 423.228 129.741 423.159C129.715 423.091 129.703 423.018 129.705 422.945L129.846 418.627C129.847 418.554 129.863 418.481 129.893 418.414C129.923 418.346 129.966 418.286 130.02 418.235C130.074 418.185 130.137 418.146 130.206 418.121C130.275 418.096 130.348 418.085 130.422 418.088C130.495 418.091 130.567 418.107 130.634 418.138C130.701 418.168 130.761 418.211 130.811 418.265C130.861 418.318 130.9 418.381 130.926 418.45C130.951 418.519 130.963 418.592 130.96 418.665L130.807 422.985C130.8 423.127 130.741 423.261 130.639 423.36C130.538 423.459 130.403 423.516 130.261 423.519Z" fill="#1D2BB2"/>
<path d="M137.39 397.594C136.814 397.594 136.243 397.479 135.712 397.256C135.185 397.037 134.708 396.715 134.307 396.309C133.907 395.902 133.592 395.42 133.38 394.89C133.163 394.348 133.057 393.768 133.067 393.184C133.078 392.6 133.204 392.024 133.441 391.491C133.907 390.419 134.772 389.572 135.853 389.13C136.933 388.688 138.144 388.684 139.226 389.121C139.753 389.341 140.23 389.664 140.63 390.07C141.03 390.477 141.345 390.96 141.556 391.491C141.774 392.032 141.881 392.611 141.871 393.195C141.861 393.778 141.734 394.354 141.498 394.887C141.148 395.688 140.574 396.37 139.845 396.85C139.116 397.331 138.263 397.589 137.39 397.594ZM137.553 389.899C136.896 389.902 136.254 390.096 135.704 390.458C135.155 390.82 134.723 391.333 134.459 391.936C134.283 392.335 134.189 392.765 134.181 393.201C134.173 393.636 134.252 394.069 134.414 394.474C134.569 394.869 134.802 395.228 135.099 395.531C135.396 395.834 135.751 396.074 136.142 396.237C136.956 396.566 137.867 396.563 138.679 396.23C139.491 395.896 140.141 395.258 140.489 394.451C140.665 394.052 140.76 393.622 140.768 393.186C140.776 392.75 140.696 392.316 140.534 391.911C140.379 391.516 140.146 391.157 139.849 390.854C139.552 390.551 139.198 390.311 138.806 390.149C138.409 389.983 137.983 389.898 137.553 389.899Z" fill="#1D2BB2"/>
<path d="M158.704 432.933C159.228 432.497 159.869 432.228 160.546 432.158C161.223 432.089 161.906 432.223 162.507 432.543C163.108 432.864 163.6 433.356 163.92 433.957C164.241 434.558 164.375 435.241 164.306 435.919C164.238 436.597 163.969 437.239 163.534 437.764C163.099 438.288 162.518 438.671 161.865 438.864C161.212 439.057 160.517 439.051 159.867 438.846C159.218 438.642 158.644 438.249 158.218 437.717C157.654 437.016 157.388 436.121 157.479 435.225C157.57 434.329 158.01 433.506 158.704 432.933Z" fill="#1D2BB2"/>
<path d="M521.703 148.455C514.219 133.097 498.231 122.497 479.709 122.497C457.95 122.497 439.685 137.138 434.606 156.912C433.851 156.857 433.112 156.802 432.342 156.802C416.32 156.802 403.333 169.526 403.333 185.225C403.333 199.662 414.326 211.558 428.553 213.381V213.65H516.038C534.545 213.65 549.55 198.949 549.55 180.816C549.56 164.572 537.515 151.089 521.703 148.455Z" fill="white"/>
<path d="M516.048 214.091H428.563C428.466 214.091 428.372 214.058 428.295 213.997C428.219 213.937 428.164 213.853 428.141 213.759C413.727 211.729 402.905 199.523 402.905 185.215C402.905 169.3 416.117 156.351 432.354 156.351C433.011 156.351 433.67 156.391 434.274 156.437C439.654 136.169 458.284 122.046 479.711 122.046C488.688 122.033 497.485 124.564 505.083 129.348C512.34 133.904 518.195 140.38 522.002 148.06C529.718 149.396 536.741 153.344 541.895 159.244C547.111 165.22 549.991 172.883 550.003 180.819C550 199.156 534.769 214.091 516.048 214.091ZM428.968 213.21H516.048C534.283 213.21 549.12 198.677 549.12 180.816C549.12 164.969 537.548 151.545 521.633 148.888C521.562 148.876 521.496 148.846 521.439 148.802C521.383 148.759 521.338 148.702 521.308 148.637C513.694 133.026 497.365 122.925 479.709 122.925C458.561 122.925 440.188 136.942 435.031 157.011C435.006 157.111 434.945 157.2 434.861 157.26C434.777 157.321 434.674 157.349 434.571 157.341C433.886 157.288 433.112 157.23 432.352 157.23C416.6 157.23 403.783 169.783 403.783 185.212C403.783 199.201 414.459 211.115 428.619 212.93C428.697 212.941 428.77 212.973 428.832 213.022C428.893 213.071 428.94 213.136 428.968 213.21Z" fill="#1D2BB2"/>
<path d="M479.709 122.938C479.592 122.937 479.481 122.89 479.398 122.808C479.316 122.725 479.269 122.614 479.269 122.497V22.0732C479.269 21.9563 479.315 21.8443 479.398 21.7616C479.48 21.679 479.592 21.6326 479.709 21.6326C479.826 21.6326 479.938 21.679 480.02 21.7616C480.103 21.8443 480.149 21.9563 480.149 22.0732V122.497C480.149 122.614 480.103 122.726 480.02 122.809C479.938 122.891 479.826 122.938 479.709 122.938Z" fill="#1D2BB2"/>
<path d="M498.673 202.507C497.724 202.396 496.768 202.664 496.015 203.253C495.262 203.842 494.771 204.705 494.649 205.654L476.439 346.339L488.282 347.679L501.866 206.47C501.957 205.523 501.674 204.577 501.077 203.836C500.481 203.096 499.618 202.618 498.673 202.507Z" fill="#1D2BB2"/>
<path d="M315.732 202.507C316.68 202.399 317.632 202.669 318.383 203.257C319.134 203.846 319.623 204.707 319.745 205.654L337.955 346.339L326.112 347.679L312.528 206.47C312.436 205.52 312.72 204.573 313.32 203.832C313.919 203.09 314.786 202.614 315.732 202.507Z" fill="#1D2BB2"/>
<path d="M522.747 343.507H331.258C330.621 343.507 330.104 344.024 330.104 344.663V415.621C330.104 416.259 330.621 416.776 331.258 416.776H522.747C523.385 416.776 523.902 416.259 523.902 415.621V344.663C523.902 344.024 523.385 343.507 522.747 343.507Z" fill="white"/>
<path d="M522.747 417.217H331.256C330.834 417.217 330.429 417.048 330.131 416.75C329.832 416.451 329.664 416.046 329.663 415.624V344.663C329.663 344.24 329.831 343.834 330.13 343.535C330.428 343.236 330.833 343.067 331.256 343.066H522.747C523.169 343.067 523.574 343.236 523.873 343.535C524.172 343.834 524.339 344.24 524.339 344.663V415.624C524.339 416.046 524.171 416.451 523.872 416.75C523.574 417.048 523.169 417.217 522.747 417.217ZM331.256 343.95C331.067 343.951 330.886 344.026 330.752 344.16C330.619 344.294 330.544 344.476 330.544 344.665V415.626C330.544 415.815 330.619 415.996 330.752 416.13C330.886 416.263 331.067 416.339 331.256 416.339H522.747C522.936 416.339 523.117 416.263 523.25 416.13C523.384 415.996 523.459 415.815 523.459 415.626V344.663C523.459 344.473 523.384 344.292 523.25 344.158C523.117 344.024 522.936 343.948 522.747 343.948L331.256 343.95Z" fill="#1D2BB2"/>
<path d="M526.953 352.541H327.052C326.473 352.541 326.003 353.011 326.003 353.59V406.695C326.003 407.275 326.473 407.745 327.052 407.745H526.953C527.532 407.745 528.002 407.275 528.002 406.695V353.59C528.002 353.011 527.532 352.541 526.953 352.541Z" fill="white"/>
<path d="M526.95 408.183H327.052C326.857 408.183 326.663 408.145 326.482 408.07C326.302 407.995 326.138 407.885 325.999 407.747C325.861 407.608 325.751 407.444 325.677 407.263C325.602 407.082 325.563 406.889 325.563 406.693V353.591C325.564 353.196 325.721 352.817 326 352.537C326.279 352.258 326.658 352.101 327.052 352.1H526.95C527.345 352.101 527.723 352.258 528.003 352.537C528.282 352.817 528.439 353.196 528.44 353.591V406.693C528.44 407.088 528.283 407.467 528.003 407.747C527.724 408.026 527.345 408.183 526.95 408.183ZM327.052 352.991C326.891 352.991 326.736 353.056 326.622 353.17C326.508 353.284 326.444 353.439 326.444 353.601V406.703C326.444 406.865 326.508 407.02 326.622 407.134C326.736 407.248 326.891 407.312 327.052 407.312H526.95C527.112 407.312 527.267 407.248 527.381 407.134C527.495 407.02 527.559 406.865 527.559 406.703V353.591C527.559 353.429 527.495 353.274 527.381 353.16C527.267 353.046 527.112 352.981 526.95 352.981L327.052 352.991Z" fill="#1D2BB2"/>
<path d="M421.115 343.507H229.626C228.989 343.507 228.472 344.024 228.472 344.663V415.621C228.472 416.259 228.989 416.776 229.626 416.776H421.115C421.753 416.776 422.27 416.259 422.27 415.621V344.663C422.27 344.024 421.753 343.507 421.115 343.507Z" fill="white"/>
<path d="M421.115 417.217H229.626C229.204 417.217 228.799 417.049 228.5 416.75C228.201 416.451 228.033 416.046 228.032 415.624V344.663C228.032 344.24 228.2 343.834 228.499 343.535C228.798 343.235 229.204 343.067 229.626 343.066H421.115C421.538 343.066 421.944 343.235 422.243 343.534C422.542 343.833 422.71 344.239 422.71 344.663V415.624C422.709 416.046 422.541 416.452 422.242 416.751C421.943 417.049 421.538 417.217 421.115 417.217ZM229.626 343.95C229.437 343.95 229.255 344.026 229.121 344.16C228.987 344.294 228.912 344.476 228.912 344.665V415.626C228.913 415.815 228.988 415.996 229.122 416.13C229.256 416.264 229.437 416.339 229.626 416.339H421.115C421.304 416.339 421.485 416.264 421.619 416.13C421.753 415.996 421.829 415.815 421.829 415.626V344.663C421.829 344.473 421.754 344.291 421.62 344.157C421.486 344.023 421.304 343.948 421.115 343.948L229.626 343.95Z" fill="#1D2BB2"/>
<path d="M425.321 352.541H225.42C224.841 352.541 224.371 353.011 224.371 353.59V406.695C224.371 407.275 224.841 407.745 225.42 407.745H425.321C425.9 407.745 426.37 407.275 426.37 406.695V353.59C426.37 353.011 425.9 352.541 425.321 352.541Z" fill="white"/>
<path d="M425.321 408.183H225.423C225.028 408.183 224.649 408.026 224.369 407.747C224.089 407.468 223.932 407.088 223.931 406.693V353.591C223.932 353.195 224.089 352.816 224.369 352.537C224.649 352.257 225.028 352.1 225.423 352.1H425.321C425.716 352.101 426.094 352.258 426.373 352.537C426.652 352.817 426.809 353.196 426.81 353.591V406.693C426.809 407.088 426.652 407.467 426.373 407.746C426.094 408.026 425.716 408.183 425.321 408.183ZM225.423 352.991C225.261 352.991 225.106 353.056 224.992 353.17C224.877 353.284 224.812 353.439 224.812 353.601V406.703C224.812 406.783 224.828 406.863 224.858 406.937C224.889 407.011 224.934 407.078 224.991 407.135C225.048 407.191 225.115 407.236 225.189 407.267C225.263 407.297 225.343 407.313 225.423 407.312H425.321C425.482 407.312 425.637 407.248 425.751 407.134C425.866 407.02 425.93 406.865 425.93 406.703V353.591C425.929 353.429 425.865 353.275 425.751 353.161C425.637 353.046 425.482 352.982 425.321 352.981L225.423 352.991Z" fill="#1D2BB2"/>
<path d="M409.861 364.641H242.624C241.928 364.641 241.364 365.206 241.364 365.903V393.049C241.364 393.746 241.928 394.311 242.624 394.311H409.861C410.557 394.311 411.121 393.746 411.121 393.049V365.903C411.121 365.206 410.557 364.641 409.861 364.641Z" fill="#1D2BB2"/>
<path d="M253.717 387.804C251.711 387.803 249.767 387.102 248.22 385.823C246.673 384.543 245.62 382.764 245.241 380.792C244.861 378.819 245.18 376.776 246.142 375.014C247.104 373.251 248.65 371.878 250.513 371.132C250.605 371.094 250.704 371.075 250.803 371.075C250.903 371.076 251.001 371.096 251.093 371.135C251.185 371.174 251.268 371.231 251.338 371.302C251.407 371.373 251.462 371.458 251.499 371.55C251.536 371.643 251.555 371.742 251.553 371.841C251.552 371.941 251.531 372.039 251.491 372.131C251.452 372.222 251.394 372.305 251.323 372.374C251.251 372.443 251.166 372.498 251.074 372.534C249.54 373.147 248.267 374.274 247.472 375.722C246.676 377.17 246.408 378.85 246.712 380.474C247.016 382.098 247.873 383.567 249.139 384.628C250.404 385.69 251.998 386.279 253.649 386.295C255.3 386.311 256.906 385.753 258.191 384.717C259.477 383.68 260.363 382.229 260.699 380.611C261.034 378.992 260.798 377.308 260.031 375.845C259.264 374.381 258.013 373.23 256.492 372.587C256.316 372.504 256.178 372.356 256.108 372.173C256.039 371.991 256.042 371.789 256.119 371.609C256.195 371.429 256.337 371.286 256.517 371.209C256.696 371.132 256.898 371.128 257.081 371.197C258.924 371.969 260.443 373.357 261.378 375.123C262.314 376.89 262.608 378.927 262.212 380.887C261.815 382.847 260.752 384.609 259.203 385.872C257.654 387.135 255.715 387.822 253.717 387.815V387.804Z" fill="#00FAAC"/>
<path d="M253.8 375.367C253.6 375.367 253.408 375.287 253.267 375.145C253.125 375.004 253.046 374.812 253.046 374.611V368.783C253.046 368.582 253.125 368.39 253.267 368.249C253.408 368.107 253.6 368.027 253.8 368.027C254.001 368.027 254.193 368.107 254.334 368.249C254.476 368.39 254.555 368.582 254.555 368.783V374.611C254.555 374.812 254.476 375.004 254.334 375.145C254.193 375.287 254.001 375.367 253.8 375.367Z" fill="#00FAAC"/>
<path d="M450.813 273.128H428.772C427.047 273.128 425.393 273.815 424.174 275.036C422.955 276.257 422.27 277.912 422.27 279.639V289.685C422.27 291.411 422.955 293.066 424.174 294.287C425.394 295.507 427.048 296.193 428.772 296.193L428.991 306.284L435.911 296.193H450.813C451.667 296.193 452.513 296.025 453.302 295.698C454.092 295.371 454.809 294.892 455.413 294.288C456.017 293.683 456.496 292.966 456.823 292.176C457.15 291.386 457.318 290.539 457.318 289.685V279.639C457.318 277.912 456.633 276.256 455.413 275.035C454.193 273.814 452.538 273.128 450.813 273.128Z" fill="white"/>
<path d="M428.991 306.725C428.949 306.725 428.906 306.719 428.865 306.707C428.776 306.68 428.698 306.626 428.641 306.552C428.585 306.477 428.553 306.387 428.551 306.294L428.342 296.621C426.579 296.51 424.925 295.731 423.715 294.442C422.505 293.154 421.831 291.453 421.829 289.684V279.639C421.831 277.796 422.563 276.029 423.865 274.726C425.167 273.423 426.931 272.69 428.772 272.687H450.813C452.654 272.69 454.419 273.423 455.72 274.726C457.022 276.029 457.754 277.796 457.756 279.639V289.684C457.754 291.527 457.022 293.293 455.72 294.596C454.419 295.899 452.654 296.632 450.813 296.634H436.143L429.351 306.533C429.311 306.592 429.258 306.641 429.195 306.674C429.132 306.707 429.062 306.725 428.991 306.725ZM428.772 273.568C427.165 273.57 425.623 274.211 424.487 275.349C423.35 276.487 422.711 278.029 422.71 279.639V289.684C422.712 291.293 423.351 292.835 424.488 293.973C425.624 295.11 427.165 295.75 428.772 295.752C428.888 295.752 428.999 295.798 429.081 295.879C429.163 295.96 429.211 296.07 429.213 296.185L429.399 304.902L435.544 295.939C435.585 295.88 435.64 295.832 435.703 295.798C435.767 295.765 435.837 295.748 435.909 295.747H450.811C452.418 295.745 453.959 295.105 455.095 293.968C456.232 292.83 456.871 291.288 456.873 289.679V279.634C456.872 278.024 456.233 276.482 455.096 275.344C453.96 274.205 452.418 273.565 450.811 273.563L428.772 273.568Z" fill="#1D2BB2"/>
<path d="M442.497 278.553H460.609C461.31 278.553 462.006 278.691 462.654 278.96C463.303 279.228 463.892 279.622 464.388 280.119C464.885 280.616 465.278 281.205 465.547 281.854C465.816 282.503 465.954 283.199 465.954 283.901V292.16C465.954 292.862 465.816 293.558 465.548 294.207C465.279 294.857 464.886 295.447 464.389 295.943C463.893 296.44 463.303 296.834 462.655 297.103C462.006 297.372 461.311 297.51 460.609 297.51L460.43 305.803L454.742 297.51H442.492C441.79 297.51 441.095 297.371 440.447 297.102C439.798 296.834 439.209 296.439 438.713 295.943C438.217 295.446 437.823 294.856 437.555 294.207C437.287 293.558 437.149 292.862 437.149 292.16V283.901C437.149 283.199 437.287 282.503 437.556 281.854C437.825 281.204 438.219 280.615 438.716 280.118C439.212 279.621 439.802 279.228 440.451 278.959C441.1 278.691 441.795 278.553 442.497 278.553Z" fill="#1D2BB2"/>
<path d="M447.915 288.033C447.916 287.638 447.799 287.252 447.581 286.924C447.362 286.596 447.051 286.34 446.687 286.189C446.323 286.037 445.923 285.997 445.536 286.074C445.149 286.151 444.794 286.341 444.515 286.619C444.236 286.898 444.046 287.253 443.969 287.64C443.892 288.027 443.931 288.428 444.082 288.793C444.233 289.157 444.488 289.469 444.816 289.688C445.144 289.907 445.529 290.024 445.923 290.024C446.451 290.024 446.957 289.814 447.33 289.44C447.704 289.067 447.914 288.561 447.915 288.033Z" fill="#00FAAC"/>
<path d="M452.091 290.017C453.19 290.017 454.081 289.125 454.081 288.025C454.081 286.925 453.19 286.034 452.091 286.034C450.992 286.034 450.101 286.925 450.101 288.025C450.101 289.125 450.992 290.017 452.091 290.017Z" fill="#00FAAC"/>
<path d="M458.259 290.017C459.358 290.017 460.249 289.125 460.249 288.025C460.249 286.925 459.358 286.034 458.259 286.034C457.16 286.034 456.269 286.925 456.269 288.025C456.269 289.125 457.16 290.017 458.259 290.017Z" fill="#00FAAC"/>
<path d="M395.079 294.808C394.197 294.808 393.339 295.098 392.637 295.634L382.942 288.358C383.121 287.897 383.213 287.407 383.214 286.913C383.217 285.996 382.91 285.106 382.343 284.386C381.776 283.666 380.983 283.16 380.092 282.948C379.201 282.737 378.265 282.833 377.436 283.222C376.607 283.61 375.933 284.268 375.525 285.088C375.116 285.909 374.997 286.843 375.186 287.739C375.376 288.636 375.862 289.442 376.567 290.027C377.272 290.612 378.154 290.941 379.069 290.96C379.984 290.98 380.879 290.689 381.609 290.135L391.304 297.414C390.945 298.342 390.945 299.371 391.304 300.3L381.604 307.578C380.821 306.981 379.849 306.687 378.867 306.751C377.885 306.815 376.959 307.232 376.26 307.926C375.561 308.62 375.136 309.543 375.065 310.526C374.993 311.508 375.278 312.484 375.869 313.272C376.459 314.06 377.314 314.608 378.277 314.814C379.239 315.021 380.244 314.872 381.105 314.395C381.966 313.918 382.626 313.146 382.963 312.22C383.3 311.294 383.29 310.278 382.937 309.358L392.632 302.08C393.143 302.467 393.739 302.727 394.37 302.839C395.002 302.95 395.651 302.91 396.264 302.721C396.877 302.532 397.436 302.199 397.895 301.751C398.354 301.303 398.7 300.752 398.904 300.144C399.109 299.535 399.165 298.887 399.07 298.252C398.975 297.618 398.73 297.015 398.356 296.494C397.981 295.972 397.489 295.548 396.918 295.255C396.348 294.962 395.716 294.809 395.074 294.808H395.079Z" fill="#1D2BB2"/>
<path d="M467.846 174.64C466.385 174.64 464.938 174.928 463.588 175.488C462.239 176.048 461.012 176.868 459.979 177.902C458.946 178.936 458.127 180.164 457.568 181.515C457.009 182.866 456.722 184.314 456.722 185.776C456.722 191.925 467.846 204.501 467.846 204.501C467.846 204.501 478.969 191.912 478.969 185.776C478.97 184.314 478.682 182.866 478.123 181.515C477.565 180.164 476.745 178.936 475.712 177.902C474.679 176.868 473.453 176.048 472.103 175.488C470.753 174.928 469.307 174.64 467.846 174.64ZM467.846 190.837C466.845 190.837 465.867 190.541 465.034 189.985C464.202 189.429 463.553 188.638 463.17 187.712C462.787 186.787 462.687 185.769 462.882 184.787C463.077 183.804 463.559 182.902 464.266 182.193C464.974 181.485 465.875 181.003 466.857 180.808C467.839 180.612 468.856 180.713 469.78 181.096C470.705 181.48 471.495 182.129 472.05 182.962C472.606 183.795 472.902 184.775 472.902 185.776C472.903 186.442 472.773 187.101 472.52 187.716C472.266 188.331 471.894 188.89 471.425 189.361C470.955 189.832 470.397 190.206 469.783 190.461C469.169 190.716 468.511 190.847 467.846 190.847V190.837Z" fill="#1D2BB2"/>
<path d="M467.846 175.081C467.729 175.081 467.617 175.034 467.535 174.952C467.452 174.869 467.406 174.757 467.406 174.64V75.8C467.406 75.6831 467.452 75.5711 467.535 75.4884C467.617 75.4058 467.729 75.3594 467.846 75.3594C467.963 75.3594 468.075 75.4058 468.157 75.4884C468.24 75.5711 468.286 75.6831 468.286 75.8V174.64C468.286 174.757 468.24 174.869 468.157 174.952C468.075 175.034 467.963 175.081 467.846 175.081Z" fill="#1D2BB2"/>
</g>
<defs>
<clipPath id="clip0_33_761">
<rect width="550" height="439.013" fill="white"/>
</clipPath>
</defs>
</svg>
