<svg width="55" height="55" viewBox="0 0 55 55" fill="none" xmlns="http://www.w3.org/2000/svg">
<g id="Chat 2" clip-path="url(#clip0_60_188)">
<g id="Layer 2">
<g id="Graphic Elements">
<path id="Vector" d="M27.7518 54.4931C42.7429 54.4931 54.8956 42.3404 54.8956 27.3492C54.8956 12.3581 42.7429 0.205353 27.7518 0.205353C12.7606 0.205353 0.60788 12.3581 0.60788 27.3492C0.60788 42.3404 12.7606 54.4931 27.7518 54.4931Z" fill="#00FAAC"/>
<path id="Vector_2" d="M9.65985 31.8411V33.0997C9.75234 33.5622 9.81266 34.0286 9.93732 34.479C10.4293 36.1802 11.4488 37.6813 12.8488 38.7658C13.042 38.9248 13.2433 39.0738 13.452 39.2121C13.6088 39.3167 13.6128 39.4132 13.5605 39.5821C13.279 40.4185 13.0176 41.259 12.7563 42.0954C12.7563 42.1437 12.7281 42.1919 12.7 42.2965L13.5927 41.822C14.3407 41.4198 15.0886 41.0177 15.8446 40.6558C15.986 40.5963 16.1433 40.5864 16.291 40.6276C17.8059 41.0662 19.3872 41.2297 20.9597 41.1102C24.3055 40.7523 27.1244 39.4253 29.0024 36.5259C29.914 35.1293 30.3349 33.469 30.1987 31.8068C30.0626 30.1445 29.3771 28.5749 28.2504 27.3452C26.6025 25.4879 24.3474 24.2776 21.8887 23.9311C19.1752 23.4406 16.3759 23.9476 14.0069 25.3587C12.1513 26.3928 10.7445 28.0775 10.058 30.0878C9.91247 30.6091 9.79568 31.138 9.70811 31.6722C9.69604 31.7285 9.67594 31.7848 9.65985 31.8411Z" fill="#1D2BB2"/>
<path id="Vector_3" d="M32.1069 33.5823C32.0747 33.6908 32.0465 33.7954 31.9983 33.9562H32.6457C34.0533 33.9368 35.4514 33.7216 36.7997 33.3169C36.8959 33.2827 36.9985 33.2704 37.1001 33.2808C37.2016 33.2913 37.2996 33.3242 37.3869 33.3772C38.5209 33.9924 39.6629 34.5836 40.805 35.2029C40.9095 35.2632 41.0181 35.3155 41.2071 35.412L40.0168 31.8853C40.624 31.3705 41.2232 30.896 41.7982 30.3572C43.355 28.9109 44.3804 26.9834 44.7097 24.8842C45.0553 22.731 44.5834 20.5264 43.3867 18.7034C41.8417 16.289 39.4536 14.5358 36.6871 13.7853C33.2464 12.683 29.5086 12.9926 26.2961 14.6459C23.5817 16.0212 21.6112 18.1123 20.6662 21.08C20.5979 21.3052 20.5456 21.5344 20.4893 21.7636C20.4834 21.7928 20.4834 21.8229 20.4893 21.8521H21.008C23.6854 21.7221 26.3299 22.4876 28.5239 24.0276C30.4008 25.2801 31.734 27.1967 32.2557 29.3921C32.5673 30.7783 32.516 32.2216 32.1069 33.5823Z" fill="#1D2BB2"/>
</g>
</g>
</g>
<defs>
<clipPath id="clip0_60_188">
<rect width="54.2878" height="54.2878" fill="white" transform="translate(0.60788 0.205353)"/>
</clipPath>
</defs>
</svg>
