<svg width="32" height="32" viewBox="0 0 32 32" fill="none" xmlns="http://www.w3.org/2000/svg">
<g id="FB 1" clip-path="url(#clip0_51_128)">
<g id="Layer 2">
<g id="Graphic Elements">
<path id="Vector" d="M32 16.0001C31.9999 12.942 31.1234 9.9479 29.4743 7.37249C27.8252 4.79709 25.4726 2.74825 22.6951 1.46859C19.9175 0.188941 16.8314 -0.267906 13.8023 0.152155C10.7731 0.572216 7.92779 1.85159 5.60327 3.83875C3.27875 5.82592 1.57241 8.43764 0.686331 11.3646C-0.199746 14.2916 -0.228441 17.4112 0.603645 20.3539C1.43573 23.2967 3.09374 25.9393 5.38131 27.9689C7.66889 29.9985 10.4902 31.33 13.5111 31.8057V20.6223H9.43644V16.0001H13.5111V12.4754C13.5111 8.46469 15.8815 6.25077 19.5437 6.25077C20.7436 6.26756 21.9407 6.37213 23.1253 6.56366V10.5008H21.1081C19.1194 10.5008 18.5007 11.7334 18.5007 12.9992V16.0001H22.9381L22.227 20.6223H18.5007V31.8034C22.2637 31.2074 25.6906 29.2885 28.1652 26.3916C30.6397 23.4947 31.9995 19.81 32 16.0001Z" fill="#1D2BB2"/>
<path id="Vector_2" d="M22.227 20.6225L22.9381 15.9979H18.5008V12.9994C18.5008 11.7336 19.1194 10.501 21.1082 10.501H23.1253V6.56387C21.9407 6.37234 20.7436 6.26776 19.5437 6.25098C15.8815 6.25098 13.5111 8.4649 13.5111 12.4756V16.0003H9.43646V20.6225H13.5111V31.8036C15.1682 32.0627 16.8555 32.0627 18.5126 31.8036V20.6225H22.227Z" fill="white"/>
</g>
</g>
</g>
<defs>
<clipPath id="clip0_51_128">
<rect width="32" height="32" fill="white"/>
</clipPath>
</defs>
</svg>
