<svg width="32" height="32" viewBox="0 0 32 32" fill="none" xmlns="http://www.w3.org/2000/svg">
<g id="IN 1" clip-path="url(#clip0_54_140)">
<g id="Layer 2">
<g id="Graphic Elements">
<path id="Vector" d="M16 32C24.8366 32 32 24.8366 32 16C32 7.16344 24.8366 0 16 0C7.16344 0 0 7.16344 0 16C0 24.8366 7.16344 32 16 32Z" fill="#1D2BB2"/>
<path id="Vector_2" d="M17.2373 13.8166C17.5004 13.5227 17.7114 13.2217 17.9864 12.9681C18.377 12.5865 18.8398 12.2868 19.3478 12.0865C19.8558 11.8863 20.3987 11.7895 20.9446 11.8018C21.572 11.7949 22.1974 11.8747 22.803 12.0389C24.192 12.4395 25.0003 13.3971 25.3843 14.7529C25.6415 15.7688 25.7572 16.8153 25.728 17.8629C25.728 20.0721 25.728 22.2836 25.728 24.4999C25.728 24.7085 25.6711 24.7606 25.4672 24.7606C24.3295 24.7512 23.1909 24.7512 22.0515 24.7606C21.8524 24.7606 21.8145 24.699 21.8145 24.5236C21.8098 22.3966 21.8074 20.283 21.8074 18.1829C21.8191 17.6547 21.7577 17.1274 21.6249 16.6161C21.3523 15.6679 20.6767 15.1938 19.6883 15.2436C18.3372 15.3147 17.6355 15.9832 17.4625 17.3556C17.4226 17.6836 17.4028 18.0137 17.4032 18.3441C17.4032 20.3873 17.4032 22.4329 17.4032 24.4786C17.4032 24.6824 17.3535 24.7441 17.1449 24.7417C15.9976 24.7322 14.8504 24.7322 13.7031 24.7417C13.5206 24.7417 13.4661 24.6919 13.4661 24.5046C13.4661 20.4529 13.4661 16.4035 13.4661 12.3565C13.4661 12.155 13.5324 12.1195 13.7221 12.1195C14.8101 12.1195 15.9004 12.1195 16.9884 12.1195C17.1899 12.1195 17.2421 12.1811 17.2255 12.3707C17.2302 12.8495 17.2373 13.3331 17.2373 13.8166Z" fill="white"/>
<path id="Vector_3" d="M10.9985 18.4437C10.9985 20.449 10.9985 22.452 10.9985 24.455C10.9985 24.6778 10.944 24.7441 10.7141 24.7418C9.57631 24.7418 8.43854 24.7418 7.30076 24.7418C7.11824 24.7418 7.06372 24.6967 7.06372 24.5047C7.06372 20.4482 7.06372 16.3925 7.06372 12.3376C7.06372 12.1693 7.10402 12.1006 7.28179 12.1006C8.43617 12.1006 9.59291 12.1006 10.7473 12.1006C10.9677 12.1006 10.9985 12.1835 10.9985 12.3732C10.9962 14.4046 10.9985 16.4241 10.9985 18.4437Z" fill="white"/>
<path id="Vector_4" d="M11.3138 8.09239C11.3166 8.54325 11.1854 8.98479 10.9369 9.36097C10.6883 9.73715 10.3337 10.031 9.91783 10.2053C9.502 10.3796 9.04378 10.4264 8.6013 10.3398C8.15882 10.2532 7.75204 10.0372 7.43256 9.71903C7.11308 9.40089 6.89531 8.99501 6.80689 8.5529C6.71846 8.11079 6.76337 7.65237 6.9359 7.23582C7.10843 6.81927 7.40082 6.46336 7.77596 6.21326C8.1511 5.96316 8.59208 5.83013 9.04295 5.83106C9.64281 5.83353 10.2175 6.07228 10.6426 6.49555C11.0676 6.91883 11.3088 7.49255 11.3138 8.09239Z" fill="white"/>
</g>
</g>
</g>
<defs>
<clipPath id="clip0_54_140">
<rect width="32" height="32" fill="white"/>
</clipPath>
</defs>
</svg>
