<svg width="32" height="32" viewBox="0 0 32 32" fill="none" xmlns="http://www.w3.org/2000/svg">
<g id="INS 1" clip-path="url(#clip0_54_133)">
<g id="Layer 2">
<g id="Graphic Elements">
<path id="Vector" d="M16 32C24.8366 32 32 24.8366 32 16C32 7.16344 24.8366 0 16 0C7.16344 0 0 7.16344 0 16C0 24.8366 7.16344 32 16 32Z" fill="#1D2BB2"/>
<path id="Vector_2" d="M16 7.74148C18.6903 7.74148 19.008 7.74148 20.0699 7.80074C20.7094 7.80729 21.3429 7.92437 21.9425 8.14682C22.3763 8.31488 22.7703 8.5716 23.0993 8.90057C23.4282 9.22954 23.685 9.62352 23.853 10.0573C24.0755 10.6569 24.1925 11.2904 24.1991 11.9299C24.2489 12.9919 24.2583 13.3095 24.2583 15.9999C24.2583 18.6902 24.2583 19.0079 24.1991 20.0698C24.1925 20.7093 24.0755 21.3428 23.853 21.9424C23.685 22.3762 23.4282 22.7702 23.0993 23.0991C22.7703 23.4281 22.3763 23.6848 21.9425 23.8529C21.3429 24.0753 20.7094 24.1924 20.0699 24.199C19.008 24.2487 18.6903 24.2582 16 24.2582C13.3096 24.2582 12.992 24.2582 11.9301 24.199C11.2906 24.1924 10.657 24.0753 10.0575 23.8529C9.62364 23.6848 9.22966 23.4281 8.90069 23.0991C8.57172 22.7702 8.315 22.3762 8.14694 21.9424C7.92449 21.3428 7.80741 20.7093 7.80087 20.0698C7.75109 19.0079 7.74161 18.6902 7.74161 15.9999C7.74161 13.3095 7.74161 12.9919 7.80087 11.9299C7.80741 11.2904 7.92449 10.6569 8.14694 10.0573C8.315 9.62352 8.57172 9.22954 8.90069 8.90057C9.22966 8.5716 9.62364 8.31488 10.0575 8.14682C10.657 7.92437 11.2906 7.80729 11.9301 7.80074C12.992 7.75097 13.3096 7.74148 16 7.74148ZM16 5.92578C13.2646 5.92578 12.9185 5.93763 11.8471 5.98741C11.0106 6.00502 10.1833 6.16535 9.40087 6.46149C8.73209 6.71911 8.12452 7.11366 7.61714 7.61982C7.10975 8.12598 6.71374 8.73259 6.4545 9.40074C6.15836 10.1832 5.99803 11.0105 5.98042 11.847C5.93776 12.9207 5.9259 13.2739 5.9259 15.9999C5.9259 18.7258 5.93776 19.0813 5.98753 20.1527C6.00515 20.9892 6.16548 21.8165 6.46161 22.599C6.72002 23.2684 7.11566 23.8764 7.62309 24.3839C8.13052 24.8913 8.73851 25.2869 9.40798 25.5453C10.1905 25.8415 11.0177 26.0018 11.8542 26.0194C12.928 26.0692 13.2764 26.081 16.0071 26.081C18.7378 26.081 19.0886 26.081 20.16 26.0194C20.9964 26.0018 21.8237 25.8415 22.6062 25.5453C23.2757 25.2869 23.8837 24.8913 24.3911 24.3839C24.8985 23.8764 25.2942 23.2684 25.5526 22.599C25.8487 21.8165 26.009 20.9892 26.0266 20.1527C26.0764 19.079 26.0883 18.7305 26.0883 15.9999C26.0883 13.2692 26.0883 12.9184 26.0266 11.847C26.009 11.0105 25.8487 10.1832 25.5526 9.40074C25.2934 8.73058 24.8966 8.12216 24.3879 7.61469C23.8792 7.10722 23.2699 6.71195 22.5991 6.45437C21.8166 6.15824 20.9893 5.99791 20.1529 5.9803C19.0791 5.93763 18.7259 5.92578 16 5.92578Z" fill="white"/>
<path id="Vector_3" d="M16 10.8276C14.9771 10.8276 13.9771 11.131 13.1265 11.6993C12.276 12.2676 11.6131 13.0754 11.2216 14.0205C10.8301 14.9656 10.7277 16.0055 10.9273 17.0088C11.1268 18.0121 11.6194 18.9337 12.3428 19.657C13.0661 20.3804 13.9877 20.873 14.991 21.0726C15.9943 21.2721 17.0342 21.1697 17.9793 20.7782C18.9244 20.3868 19.7322 19.7238 20.3005 18.8733C20.8688 18.0227 21.1722 17.0227 21.1722 15.9998C21.1722 14.628 20.6273 13.3125 19.6573 12.3425C18.6873 11.3726 17.3718 10.8276 16 10.8276ZM16 19.361C15.3358 19.361 14.6865 19.164 14.1342 18.7951C13.5819 18.4261 13.1514 17.9017 12.8971 17.2881C12.6428 16.6745 12.5762 15.9992 12.7056 15.3478C12.835 14.6963 13.1547 14.0978 13.6242 13.628C14.0937 13.1581 14.6919 12.838 15.3433 12.7082C15.9947 12.5783 16.67 12.6445 17.2838 12.8983C17.8975 13.1522 18.4223 13.5823 18.7916 14.1344C19.161 14.6864 19.3584 15.3356 19.3588 15.9998C19.3582 16.8904 19.0041 17.7444 18.3744 18.3741C17.7446 19.0039 16.8907 19.358 16 19.3586V19.361Z" fill="white"/>
<path id="Vector_4" d="M21.3784 11.8304C22.046 11.8304 22.5873 11.2891 22.5873 10.6215C22.5873 9.95384 22.046 9.4126 21.3784 9.4126C20.7107 9.4126 20.1695 9.95384 20.1695 10.6215C20.1695 11.2891 20.7107 11.8304 21.3784 11.8304Z" fill="white"/>
</g>
</g>
</g>
<defs>
<clipPath id="clip0_54_133">
<rect width="32" height="32" fill="white"/>
</clipPath>
</defs>
</svg>
