<svg width="36" height="36" viewBox="0 0 36 36" fill="none" xmlns="http://www.w3.org/2000/svg">
<g id="Layer 5">
<g id="Graphic Elements">
<g id="Group 32">
<g id="WA Logo">
<path id="Vector" fill-rule="evenodd" clip-rule="evenodd" d="M30.2132 5.96023C27.2594 3.00937 23.3343 1.23192 19.1681 0.958549C15.0019 0.685177 10.8782 1.93449 7.5642 4.47409C4.25019 7.01368 1.97152 10.6706 1.15209 14.7646C0.332654 18.8586 1.02826 23.1108 3.1095 26.7303L0.656494 35.6496L9.78488 33.2368C12.3055 34.6259 15.1345 35.3601 18.0125 35.3721C21.4237 35.3804 24.7605 34.3753 27.5996 32.4842C30.4387 30.5932 32.6522 27.9016 33.9593 24.7507C35.2663 21.5998 35.608 18.1317 34.9411 14.7863C34.2742 11.4409 32.6286 8.36899 30.2132 5.96023ZM18.0205 32.4446C15.4553 32.4401 12.9385 31.7456 10.7339 30.434L10.2071 30.1444L4.79041 31.5599L6.23808 26.2799L5.89627 25.7411C4.20945 23.0535 3.46357 19.8816 3.7759 16.724C4.08823 13.5664 5.44105 10.6021 7.62169 8.29707C9.80233 5.99207 12.6871 4.4771 15.8226 3.99031C18.9581 3.50352 22.1665 4.07251 24.9433 5.60785C27.7202 7.14318 29.9081 9.55779 31.1631 12.4721C32.4181 15.3864 32.669 18.6351 31.8765 21.7076C31.0839 24.7801 29.2928 27.502 26.7846 29.4456C24.2765 31.3892 21.1936 32.4441 18.0205 32.4446ZM25.8701 21.7278C25.4399 21.5147 23.3247 20.4732 22.9306 20.3284C22.5365 20.1836 22.251 20.1153 21.9614 20.5455C21.6719 20.9758 20.8515 21.945 20.6022 22.2305C20.3529 22.516 20.0996 22.5562 19.6693 22.339C18.399 21.8356 17.227 21.1128 16.2069 20.2037C15.2596 19.3354 14.4465 18.3312 13.7941 17.2239C13.5448 16.7936 13.77 16.5604 13.9831 16.3473C14.1963 16.1342 14.4134 15.8446 14.6306 15.5953C14.8145 15.3738 14.9661 15.1274 15.081 14.8634C15.1367 14.7446 15.1626 14.614 15.1563 14.4829C15.15 14.3519 15.1117 14.2243 15.0448 14.1114C14.9362 13.8943 14.0756 11.7791 13.7177 10.9185C13.3598 10.0579 13.014 10.1906 12.7486 10.1786C12.4832 10.1665 12.2097 10.1786 11.9443 10.1786C11.7265 10.1848 11.5123 10.2358 11.3151 10.3285C11.1179 10.4212 10.942 10.5536 10.7983 10.7174C10.3117 11.1779 9.92631 11.7347 9.66669 12.3522C9.40706 12.9698 9.27886 13.6346 9.29026 14.3045C9.29026 16.4237 10.8344 18.4665 11.0476 18.7561C11.2607 19.0456 14.0837 23.3886 18.3985 25.2505C19.1994 25.596 20.0182 25.898 20.8515 26.1553C21.7293 26.4229 22.6573 26.4821 23.5619 26.3282C24.3662 26.2035 26.1074 25.2867 26.4653 24.2813C26.8232 23.276 26.8232 22.4155 26.7146 22.2345C26.606 22.0535 26.3004 21.945 25.8701 21.7278Z" fill="#1D2BB2"/>
</g>
</g>
</g>
</g>
</svg>
