<svg width="36" height="30" viewBox="0 0 36 30" fill="none" xmlns="http://www.w3.org/2000/svg">
<g id="Layer 6">
<g id="Graphic Elements">
<g id="Group 31">
<path id="Vector" d="M0.052002 18.8411V20.0997C0.144492 20.5622 0.204812 21.0286 0.329473 21.479C0.821444 23.1802 1.84091 24.6813 3.24091 25.7658C3.43416 25.9248 3.63549 26.0738 3.8441 26.2121C4.00093 26.3167 4.00496 26.4132 3.95268 26.5821C3.67119 27.4185 3.4098 28.259 3.14841 29.0954C3.14841 29.1437 3.12027 29.1919 3.09212 29.2965L3.98485 28.822C4.73281 28.4198 5.48078 28.0177 6.23679 27.6558C6.37814 27.5963 6.53545 27.5864 6.68315 27.6276C8.19805 28.0662 9.77932 28.2297 11.3519 28.1102C14.6976 27.7523 17.5166 26.4253 19.3945 23.5259C20.3061 22.1293 20.727 20.469 20.5909 18.8068C20.4547 17.1445 19.7693 15.5749 18.6425 14.3452C16.9946 12.4879 14.7395 11.2776 12.2808 10.9311C9.56738 10.4406 6.76806 10.9476 4.39904 12.3587C2.54348 13.3928 1.13669 15.0775 0.450112 17.0878C0.304622 17.6091 0.187828 18.138 0.100257 18.6722C0.0881934 18.7285 0.0680872 18.7848 0.052002 18.8411Z" fill="#1D2BB2"/>
<path id="Vector_2" d="M22.499 20.5823C22.4668 20.6908 22.4387 20.7954 22.3904 20.9562H23.0378C24.4455 20.9368 25.8435 20.7216 27.1919 20.3169C27.2881 20.2827 27.3907 20.2704 27.4922 20.2808C27.5938 20.2913 27.6917 20.3242 27.779 20.3772C28.913 20.9924 30.055 21.5836 31.1971 22.2029C31.3016 22.2632 31.4102 22.3155 31.5992 22.412L30.4089 18.8853C31.0161 18.3705 31.6153 17.896 32.1904 17.3572C33.7471 15.9109 34.7725 13.9834 35.1018 11.8842C35.4475 9.73099 34.9756 7.52639 33.7788 5.70339C32.2338 3.28896 29.8457 1.53584 27.0793 0.785325C23.6385 -0.316988 19.9007 -0.00743879 16.6882 1.64589C13.9738 3.02118 12.0033 5.11226 11.0583 8.07999C10.99 8.30519 10.9377 8.5344 10.8814 8.76362C10.8756 8.79282 10.8756 8.82289 10.8814 8.85209H11.4002C14.0776 8.72213 16.722 9.48759 18.916 11.0276C20.7929 12.2801 22.1262 14.1967 22.6478 16.3921C22.9594 17.7783 22.9082 19.2216 22.499 20.5823Z" fill="#1D2BB2"/>
</g>
</g>
</g>
</svg>
