<svg width="55" height="55" viewBox="0 0 55 55" fill="none" xmlns="http://www.w3.org/2000/svg">
<g id="Layer 2">
<g id="Graphic Elements">
<path id="Vector" d="M27.7518 54.4964C42.7429 54.4964 54.8956 42.3437 54.8956 27.3525C54.8956 12.3614 42.7429 0.208658 27.7518 0.208658C12.7606 0.208658 0.60788 12.3614 0.60788 27.3525C0.60788 42.3437 12.7606 54.4964 27.7518 54.4964Z" fill="#00FAAC"/>
<path id="Vector_2" d="M27.7518 42.9432V41.3347C30.6314 41.3347 33.3931 40.1907 35.4292 38.1546C37.4654 36.1184 38.6093 33.3567 38.6093 30.4771V23.2387C38.6093 20.3591 37.4654 17.5975 35.4292 15.5613C33.3931 13.5251 30.6314 12.3812 27.7518 12.3812C24.8722 12.3812 22.1105 13.5251 20.0743 15.5613C18.0381 17.5975 16.8942 20.3591 16.8942 23.2387V30.4771H15.2857V23.2387C15.2857 19.9325 16.5991 16.7617 18.9369 14.4239C21.2748 12.086 24.4456 10.7727 27.7518 10.7727C31.058 10.7727 34.2288 12.086 36.5666 14.4239C38.9045 16.7617 40.2179 19.9325 40.2179 23.2387V30.4771C40.2179 33.7833 38.9045 36.9541 36.5666 39.292C34.2288 41.6298 31.058 42.9432 27.7518 42.9432Z" fill="#1D2BB2"/>
<path id="Vector_3" d="M18.4384 23.2588C18.2816 23.2588 18.1247 23.2588 17.9679 23.2588C17.0964 23.2583 16.2334 23.4296 15.4281 23.7628C14.6229 24.0961 13.8912 24.5848 13.275 25.2011C12.6587 25.8173 12.17 26.549 11.8367 27.3542C11.5035 28.1595 11.3322 29.0225 11.3327 29.894V31.1004C11.3327 32.8602 12.0318 34.5478 13.2761 35.7922C14.5205 37.0365 16.2081 37.7356 17.9679 37.7356C18.1247 37.7356 18.2816 37.7356 18.4384 37.7114V23.2588Z" fill="#1D2BB2"/>
<path id="Vector_4" d="M37.0652 23.2588C37.222 23.2588 37.3788 23.2588 37.5356 23.2588C38.4071 23.2583 39.2702 23.4296 40.0754 23.7628C40.8807 24.0961 41.6124 24.5848 42.2286 25.2011C42.8448 25.8173 43.3336 26.549 43.6668 27.3542C44.0001 28.1595 44.1713 29.0225 44.1708 29.894V31.1004C44.1708 32.8602 43.4718 34.5478 42.2274 35.7922C40.9831 37.0365 39.2954 37.7356 37.5356 37.7356C37.3788 37.7356 37.222 37.7356 37.0652 37.7114V23.2588Z" fill="#1D2BB2"/>
<path id="Vector_5" d="M31.7731 41.9379C31.772 42.4175 31.581 42.8771 31.2419 43.2163C30.9028 43.5554 30.4431 43.7464 29.9635 43.7474H25.54C25.0601 43.7474 24.5998 43.5568 24.2605 43.2174C23.9211 42.8781 23.7304 42.4178 23.7304 41.9379C23.7299 41.7001 23.7764 41.4645 23.8671 41.2447C23.9579 41.0249 24.0911 40.8252 24.2593 40.6571C24.4274 40.489 24.6271 40.3557 24.8469 40.2649C25.0667 40.1742 25.3022 40.1277 25.54 40.1283H29.9635C30.4434 40.1283 30.9037 40.3189 31.2431 40.6583C31.5824 40.9976 31.7731 41.4579 31.7731 41.9379Z" fill="#1D2BB2"/>
</g>
</g>
</svg>
