<svg width="34" height="34" viewBox="0 0 34 34" fill="none" xmlns="http://www.w3.org/2000/svg">
<path d="M17.1439 32.9432V31.3347C20.0235 31.3347 22.7851 30.1907 24.8213 28.1546C26.8575 26.1184 28.0014 23.3567 28.0014 20.4771V13.2387C28.0014 10.3591 26.8575 7.59747 24.8213 5.56128C22.7851 3.5251 20.0235 2.38118 17.1439 2.38118C14.2643 2.38118 11.5026 3.5251 9.46643 5.56128C7.43024 7.59747 6.28632 10.3591 6.28632 13.2387V20.4771H4.6778V13.2387C4.6778 9.93252 5.99118 6.76173 8.32903 4.42388C10.6669 2.08604 13.8377 0.772655 17.1439 0.772655C20.4501 0.772655 23.6209 2.08604 25.9587 4.42388C28.2966 6.76173 29.61 9.93252 29.61 13.2387V20.4771C29.61 23.7833 28.2966 26.9541 25.9587 29.292C23.6209 31.6298 20.4501 32.9432 17.1439 32.9432Z" fill="#1D2BB2"/>
<path d="M7.83052 13.2588C7.67369 13.2588 7.51686 13.2588 7.36003 13.2588C6.48853 13.2583 5.62549 13.4296 4.82023 13.7628C4.01498 14.0961 3.28331 14.5848 2.66707 15.2011C2.05083 15.8173 1.56211 16.549 1.22885 17.3542C0.895589 18.1595 0.724326 19.0225 0.724855 19.894V21.1004C0.724855 22.8602 1.42392 24.5478 2.66825 25.7922C3.91259 27.0365 5.60027 27.7356 7.36003 27.7356C7.51686 27.7356 7.67369 27.7356 7.83052 27.7114V13.2588Z" fill="#1D2BB2"/>
<path d="M26.4573 13.2588C26.6141 13.2588 26.7709 13.2588 26.9278 13.2588C27.7993 13.2583 28.6623 13.4296 29.4676 13.7628C30.2728 14.0961 31.0045 14.5848 31.6207 15.2011C32.237 15.8173 32.7257 16.549 33.0589 17.3542C33.3922 18.1595 33.5635 19.0225 33.5629 19.894V21.1004C33.5629 22.8602 32.8639 24.5478 31.6195 25.7922C30.3752 27.0365 28.6875 27.7356 26.9278 27.7356C26.7709 27.7356 26.6141 27.7356 26.4573 27.7114V13.2588Z" fill="#1D2BB2"/>
<path d="M21.1652 31.9379C21.1641 32.4175 20.9731 32.8771 20.634 33.2163C20.2949 33.5554 19.8352 33.7464 19.3556 33.7475H14.9322C14.4522 33.7475 13.9919 33.5568 13.6526 33.2174C13.3132 32.8781 13.1226 32.4178 13.1226 31.9379C13.122 31.7001 13.1685 31.4645 13.2592 31.2447C13.35 31.0249 13.4833 30.8252 13.6514 30.6571C13.8195 30.489 14.0192 30.3557 14.239 30.2649C14.4588 30.1742 14.6944 30.1277 14.9322 30.1283H19.3556C19.8355 30.1283 20.2958 30.3189 20.6352 30.6583C20.9745 30.9976 21.1652 31.4579 21.1652 31.9379Z" fill="#1D2BB2"/>
</svg>
