<svg width="55" height="56" viewBox="0 0 55 56" fill="none" xmlns="http://www.w3.org/2000/svg">
<g id="Mail 1" clip-path="url(#clip0_60_173)">
<g id="Layer 2">
<g id="Graphic Elements">
<path id="Vector" d="M54.3956 28.0181C54.3956 42.7331 42.4668 54.662 27.7518 54.662C13.0368 54.662 1.10788 42.7331 1.10788 28.0181C1.10788 13.3031 13.0368 1.37422 27.7518 1.37422C42.4668 1.37422 54.3956 13.3031 54.3956 28.0181Z" stroke="#1D2BB2"/>
<path id="Vector_2" d="M27.7558 32.4938L23.7345 28.9752L12.2697 38.8234C12.7074 39.2281 13.2821 39.4522 13.8782 39.4507H41.6776C42.2741 39.4542 42.8495 39.2299 43.2861 38.8234L31.7731 28.9752L27.7558 32.4938Z" fill="#1D2BB2"/>
<path id="Vector_3" d="M43.258 16.8831C42.8213 16.4766 42.246 16.2522 41.6494 16.2558H13.8541C13.2558 16.2511 12.6791 16.4789 12.2456 16.8911L27.7437 30.1615L43.258 16.8831Z" fill="#1D2BB2"/>
<path id="Vector_4" d="M11.5177 18.2905V37.5607L22.7291 28.0382L11.5177 18.2905Z" fill="#1D2BB2"/>
<path id="Vector_5" d="M32.7784 28.0382L43.9898 37.5607V18.2865L32.7784 28.0382Z" fill="#1D2BB2"/>
</g>
</g>
</g>
<defs>
<clipPath id="clip0_60_173">
<rect width="54.2878" height="54.2878" fill="white" transform="translate(0.60788 0.874222)"/>
</clipPath>
</defs>
</svg>
