<svg width="500" height="509" viewBox="0 0 500 509" fill="none" xmlns="http://www.w3.org/2000/svg">
<g clip-path="url(#clip0_27_515)">
<path d="M455.724 296.327C448.667 298.75 443.586 315.243 440.281 321.628C440.204 321.766 440.126 321.904 440.057 322.043C439.852 322.409 439.541 322.705 439.165 322.892C438.788 323.08 438.364 323.15 437.947 323.093C437.531 323.037 437.141 322.856 436.828 322.576C436.516 322.295 436.295 321.927 436.196 321.52C434.436 313.697 433.694 305.835 440.976 299.627C453.114 289.289 455.323 279.835 454.659 268.858C454.384 263.293 455.849 257.781 458.851 253.08C461.008 249.646 462.885 246.044 464.465 242.311C493.668 173.795 446.875 193.249 442.705 209.734C439.725 221.503 444.25 228.649 433.949 236.857C420.884 247.273 419.826 258.396 420.12 263.55C420.413 268.704 424.976 276.304 414.822 286.273C404.669 296.243 404.375 307.62 408.205 319.235C412.035 330.851 404.815 339.912 400.846 344.62C400.68 344.827 400.462 344.987 400.213 345.082C399.965 345.177 399.695 345.205 399.432 345.161C399.17 345.118 398.923 345.006 398.718 344.837C398.514 344.667 398.358 344.447 398.267 344.197C396.491 339.32 392.739 337.22 390.129 336.089C386.747 334.628 383.063 328.028 380.268 318.789C377.473 309.55 359.057 301.166 351.852 305.127C344.648 309.089 340.37 326.243 346.254 334.897C352.138 343.551 381.72 351.613 380.23 364.22C378.739 376.828 400.537 384.305 400.537 384.305C401.892 384.033 403.148 383.403 404.174 382.482C409.896 385.89 418.436 389.236 423.27 382.767C424.039 381.732 424.756 380.659 425.417 379.551C427.417 379.436 430.443 378.321 434.968 375.513C451.956 364.951 447.547 356.159 450.195 348.674C452.844 341.189 464.318 329.758 464.318 329.758C479.345 306.227 462.789 293.912 455.724 296.327Z" fill="#00FAAC"/>
<path d="M414.46 375.313C414.295 375.313 414.137 375.248 414.02 375.133C413.903 375.018 413.836 374.861 413.834 374.697C413.116 330.405 424.992 288.766 435.076 261.619C446.002 232.226 457.245 213.049 457.361 212.857C457.446 212.713 457.585 212.609 457.747 212.567C457.909 212.526 458.081 212.549 458.226 212.634C458.368 212.72 458.472 212.858 458.513 213.019C458.555 213.18 458.532 213.351 458.45 213.495C458.334 213.68 447.13 232.788 436.242 262.081C426.204 289.104 414.382 330.543 415.093 374.659C415.093 374.826 415.027 374.986 414.91 375.105C414.794 375.224 414.635 375.293 414.467 375.298L414.46 375.313Z" fill="#1D2BB2"/>
<path d="M397.217 376.69C397.069 376.69 396.925 376.637 396.812 376.541C396.698 376.446 396.623 376.313 396.599 376.167C390.175 339.428 352.439 315.327 352.061 315.089C351.92 314.999 351.82 314.857 351.784 314.694C351.748 314.531 351.778 314.361 351.868 314.22C351.912 314.15 351.969 314.09 352.037 314.043C352.104 313.996 352.18 313.963 352.26 313.945C352.341 313.927 352.424 313.925 352.505 313.939C352.586 313.953 352.663 313.983 352.733 314.027C353.119 314.266 391.341 338.643 397.843 375.951C397.87 376.116 397.831 376.285 397.734 376.422C397.637 376.559 397.49 376.652 397.325 376.682L397.217 376.69Z" fill="#1D2BB2"/>
<path d="M423.772 374.282C423.715 374.29 423.658 374.29 423.602 374.282C423.442 374.237 423.306 374.131 423.224 373.987C423.141 373.843 423.119 373.673 423.162 373.513C430.351 347.589 450.643 319.666 450.844 319.366C450.942 319.234 451.09 319.146 451.253 319.121C451.417 319.097 451.583 319.138 451.716 319.235C451.851 319.334 451.941 319.481 451.967 319.645C451.993 319.809 451.953 319.977 451.855 320.112C451.655 320.389 431.493 348.151 424.366 373.851C424.325 373.976 424.245 374.084 424.138 374.162C424.032 374.239 423.904 374.281 423.772 374.282Z" fill="#1D2BB2"/>
<path d="M419.015 322.974C418.892 322.972 418.773 322.936 418.671 322.868C418.568 322.8 418.488 322.703 418.44 322.591C418.392 322.478 418.377 322.354 418.399 322.234C418.42 322.113 418.476 322.002 418.56 321.912C424.93 315.204 428.884 305.066 428.93 304.989C428.989 304.842 429.101 304.724 429.244 304.657C429.388 304.589 429.551 304.579 429.702 304.627C429.851 304.683 429.973 304.792 430.046 304.933C430.119 305.073 430.137 305.236 430.096 305.389C429.926 305.812 426.011 315.858 419.471 322.743C419.415 322.811 419.346 322.866 419.267 322.906C419.189 322.945 419.103 322.968 419.015 322.974Z" fill="#1D2BB2"/>
<path d="M417.641 333.966C417.504 333.969 417.369 333.927 417.259 333.846C417.148 333.765 417.067 333.65 417.028 333.519C416.99 333.387 416.995 333.247 417.045 333.12C417.094 332.992 417.184 332.884 417.301 332.812C425.131 327.758 428.297 318.905 428.328 318.82C428.381 318.668 428.49 318.542 428.634 318.469C428.778 318.396 428.945 318.381 429.1 318.428C429.25 318.483 429.374 318.593 429.447 318.736C429.52 318.878 429.537 319.043 429.494 319.197C429.355 319.581 426.15 328.551 417.957 333.812C417.87 333.894 417.759 333.948 417.641 333.966Z" fill="#1D2BB2"/>
<path d="M429.131 359.774C429.003 359.774 428.878 359.735 428.773 359.662C428.668 359.589 428.588 359.486 428.544 359.367C428.514 359.289 428.5 359.207 428.503 359.124C428.506 359.042 428.525 358.961 428.559 358.885C428.594 358.81 428.643 358.743 428.704 358.687C428.765 358.631 428.836 358.587 428.914 358.559C434.945 356.359 444.566 342.897 444.659 342.766C444.707 342.699 444.767 342.642 444.837 342.598C444.907 342.554 444.985 342.524 445.066 342.511C445.147 342.497 445.231 342.499 445.311 342.517C445.392 342.535 445.468 342.569 445.535 342.616C445.603 342.664 445.66 342.724 445.704 342.794C445.748 342.863 445.778 342.941 445.792 343.022C445.806 343.103 445.804 343.186 445.786 343.266C445.767 343.346 445.734 343.422 445.686 343.489C445.284 344.059 435.74 357.405 429.347 359.736C429.277 359.76 429.204 359.773 429.131 359.774Z" fill="#1D2BB2"/>
<path d="M369.635 328.928H369.558C369.393 328.907 369.242 328.821 369.139 328.69C369.037 328.559 368.99 328.393 369.01 328.228C370.16 318.951 364.277 312.204 364.215 312.135C364.16 312.074 364.117 312.002 364.09 311.924C364.063 311.846 364.051 311.764 364.056 311.682C364.061 311.599 364.083 311.519 364.119 311.445C364.156 311.371 364.207 311.305 364.269 311.251C364.394 311.141 364.558 311.086 364.724 311.096C364.89 311.106 365.046 311.181 365.157 311.304C365.412 311.597 371.473 318.543 370.261 328.382C370.242 328.533 370.168 328.672 370.052 328.773C369.937 328.874 369.789 328.929 369.635 328.928Z" fill="#1D2BB2"/>
<path d="M388.144 352.866C388.06 352.866 387.976 352.85 387.897 352.82C377.365 348.459 366.176 339.158 366.068 339.066C366.004 339.013 365.951 338.949 365.913 338.875C365.874 338.802 365.851 338.722 365.843 338.64C365.836 338.558 365.846 338.475 365.871 338.396C365.896 338.317 365.937 338.244 365.991 338.181C366.043 338.118 366.107 338.066 366.18 338.027C366.253 337.989 366.333 337.966 366.415 337.958C366.497 337.951 366.579 337.96 366.658 337.986C366.736 338.011 366.809 338.051 366.871 338.105C366.987 338.197 378.029 347.374 388.384 351.659C388.536 351.723 388.657 351.845 388.72 351.997C388.784 352.15 388.785 352.321 388.723 352.474C388.677 352.589 388.597 352.689 388.494 352.758C388.391 352.828 388.269 352.866 388.144 352.866Z" fill="#1D2BB2"/>
<path d="M432.482 270.711C432.357 270.711 432.235 270.675 432.131 270.606C432.027 270.538 431.945 270.441 431.895 270.327C428.104 261.296 430.575 249.827 430.683 249.342C430.719 249.18 430.818 249.038 430.958 248.949C431.099 248.859 431.269 248.829 431.432 248.865C431.595 248.901 431.736 248.999 431.826 249.139C431.916 249.279 431.946 249.449 431.91 249.611C431.91 249.727 429.424 261.15 433.061 269.842C433.125 269.996 433.125 270.169 433.062 270.324C432.998 270.478 432.876 270.601 432.721 270.665C432.645 270.695 432.564 270.711 432.482 270.711Z" fill="#1D2BB2"/>
<path d="M376.932 375.182H448.11V394.621C448.11 404.024 444.361 413.042 437.687 419.691C431.012 426.34 421.96 430.075 412.521 430.075C403.083 430.075 394.03 426.34 387.356 419.691C380.682 413.042 376.932 404.024 376.932 394.621V375.182Z" fill="white"/>
<path d="M422.459 430.683H402.591C395.634 430.667 388.965 427.906 384.045 423.004C379.125 418.103 376.354 411.46 376.338 404.529V375.182C376.338 375.016 376.403 374.857 376.52 374.739C376.638 374.621 376.797 374.553 376.963 374.551H448.141C448.309 374.551 448.47 374.618 448.589 374.736C448.708 374.854 448.775 375.015 448.775 375.182V404.498C448.766 411.445 445.99 418.106 441.056 423.015C436.122 427.925 429.433 430.683 422.459 430.683ZM377.589 375.805V404.498C377.597 411.108 380.236 417.444 384.928 422.118C389.619 426.792 395.98 429.421 402.615 429.429H422.482C429.117 429.421 435.478 426.792 440.169 422.118C444.861 417.444 447.5 411.108 447.508 404.498V375.805H377.589Z" fill="#1D2BB2"/>
<path d="M222.708 128.156C222.578 128.156 222.451 128.116 222.345 128.04C222.248 127.972 222.173 127.878 222.128 127.769C222.083 127.66 222.07 127.541 222.09 127.425L226.723 100.155L221.835 99.3398C217.809 98.6545 214.219 96.4081 211.852 93.0922C209.484 89.7763 208.532 85.6611 209.203 81.6472L220.839 12.8078C221.173 10.8183 221.898 8.91391 222.972 7.20376C224.046 5.4936 225.447 4.01125 227.097 2.84156C228.747 1.67187 230.612 0.83783 232.585 0.387184C234.559 -0.0634621 236.603 -0.12186 238.599 0.215334L405.533 28.2234C407.529 28.558 409.44 29.2812 411.155 30.3516C412.87 31.422 414.357 32.8187 415.53 34.4618C416.703 36.1049 417.54 37.9622 417.992 39.9276C418.444 41.8929 418.503 43.9278 418.166 45.916L406.529 114.763C405.843 118.776 403.589 122.354 400.26 124.714C396.932 127.074 392.8 128.024 388.77 127.356L368.693 123.979C368.612 123.965 368.535 123.936 368.465 123.892C368.395 123.848 368.335 123.792 368.287 123.725C368.239 123.658 368.205 123.583 368.187 123.503C368.169 123.423 368.166 123.34 368.18 123.259C368.194 123.179 368.223 123.101 368.267 123.032C368.31 122.962 368.367 122.902 368.435 122.855C368.502 122.807 368.577 122.773 368.658 122.755C368.738 122.737 368.821 122.734 368.902 122.748L388.978 126.117C392.676 126.739 396.471 125.873 399.529 123.709C402.586 121.546 404.657 118.262 405.286 114.578L416.969 45.7006C417.591 42.0176 416.721 38.2393 414.549 35.1949C412.378 32.1505 409.082 30.0887 405.387 29.4619L238.36 1.45381C234.661 0.832188 230.867 1.6982 227.809 3.86166C224.751 6.02511 222.681 9.30912 222.052 12.9924L210.423 81.8396C209.799 85.5228 210.668 89.3022 212.84 92.3471C215.012 95.392 218.308 97.4534 222.005 98.0782L227.511 99.0013C227.674 99.0314 227.82 99.1237 227.916 99.2586C228.013 99.3935 228.053 99.5606 228.028 99.7244L223.526 126.356L263.555 105.178C263.679 105.116 263.82 105.094 263.957 105.117L314.603 113.578C314.685 113.591 314.764 113.621 314.834 113.664C314.905 113.708 314.966 113.765 315.014 113.832C315.062 113.899 315.096 113.976 315.115 114.056C315.133 114.137 315.135 114.22 315.121 114.302C315.092 114.465 315 114.612 314.864 114.708C314.728 114.805 314.559 114.844 314.395 114.817L263.957 106.355L223.001 128.086C222.91 128.132 222.81 128.156 222.708 128.156Z" fill="#1D2BB2"/>
<path d="M304.851 357.936C308.326 357.494 311.521 355.805 313.836 353.186C316.152 350.566 317.429 347.195 317.429 343.705L318.364 146.525L314.835 138.925C314.835 138.925 308.426 134.671 305.067 132.771C302.961 131.576 300.521 131.098 298.117 131.409L12.5786 167.695C9.10631 168.138 5.91467 169.825 3.59986 172.441C1.28505 175.057 0.00541872 178.423 0 181.91V377.382C0.339753 389.367 16.5166 396.613 16.5166 396.613L304.851 357.936Z" fill="#1D2BB2"/>
<path d="M22.8329 397.813L310.078 361.313C313.581 360.876 316.802 359.18 319.138 356.544C321.474 353.908 322.764 350.513 322.765 346.997V150.348C322.763 148.757 322.422 147.184 321.763 145.734C321.105 144.284 320.144 142.99 318.944 141.939C317.745 140.888 316.335 140.102 314.808 139.636C313.28 139.169 311.671 139.032 310.086 139.233L22.8406 175.733C19.3455 176.169 16.1291 177.857 13.7929 180.484C11.4566 183.11 10.1603 186.494 10.1462 190.003V386.682C10.1454 388.276 10.4854 389.851 11.1436 391.304C11.8018 392.756 12.7632 394.052 13.9636 395.105C15.164 396.158 16.5759 396.944 18.1052 397.411C19.6346 397.878 21.2463 398.015 22.8329 397.813Z" fill="white"/>
<path d="M21.4122 398.529C19.8503 398.53 18.3035 398.224 16.8603 397.629C15.4172 397.034 14.1059 396.161 13.0014 395.061C11.897 393.961 11.0212 392.655 10.4239 391.217C9.82669 389.779 9.5198 388.238 9.52082 386.682V190.003C9.52784 186.34 10.8712 182.806 13.3005 180.057C15.7298 177.309 19.0793 175.534 22.7248 175.064L309.97 138.571C311.645 138.358 313.346 138.503 314.96 138.996C316.574 139.488 318.065 140.318 319.332 141.429C320.6 142.541 321.615 143.908 322.311 145.44C323.006 146.973 323.367 148.635 323.367 150.317V346.997C323.36 350.66 322.016 354.196 319.585 356.944C317.154 359.693 313.802 361.467 310.156 361.936L22.9102 398.467C22.4125 398.518 21.9123 398.538 21.4122 398.529ZM311.507 139.756C311.058 139.757 310.609 139.785 310.163 139.84L22.9179 176.341C19.5819 176.773 16.5164 178.395 14.2899 180.908C12.0634 183.42 10.8271 186.651 10.8103 190.003V386.682C10.809 388.187 11.1297 389.674 11.7509 391.045C12.3721 392.417 13.2796 393.64 14.4129 394.635C15.5462 395.629 16.8792 396.371 18.3232 396.812C19.7671 397.252 21.2887 397.381 22.7866 397.19L310.032 360.69C313.373 360.257 316.443 358.63 318.67 356.111C320.897 353.593 322.13 350.354 322.139 346.997V150.348C322.137 147.539 321.017 144.846 319.023 142.86C317.029 140.874 314.326 139.758 311.507 139.756Z" fill="#1D2BB2"/>
<path d="M33.1182 388.552L299.824 354.666C303.069 354.253 306.052 352.675 308.214 350.228C310.376 347.781 311.569 344.634 311.569 341.374V158.81C311.571 157.33 311.256 155.866 310.646 154.517C310.035 153.168 309.143 151.963 308.029 150.984C306.915 150.005 305.604 149.274 304.184 148.839C302.764 148.405 301.267 148.277 299.793 148.464L33.095 182.31C29.848 182.722 26.8632 184.299 24.6998 186.746C22.5363 189.193 21.3427 192.342 21.3427 195.603V378.221C21.3428 379.699 21.6591 381.161 22.2704 382.509C22.8816 383.856 23.774 385.059 24.8879 386.036C26.0019 387.013 27.312 387.743 28.7311 388.177C30.1502 388.611 31.6457 388.738 33.1182 388.552Z" fill="white"/>
<path d="M31.7977 389.236C30.3423 389.237 28.901 388.952 27.5562 388.398C26.2114 387.843 24.9895 387.03 23.9603 386.005C22.9312 384.98 22.115 383.763 21.5586 382.423C21.0021 381.083 20.7162 379.647 20.7172 378.197V195.656C20.7227 192.245 21.9738 188.952 24.2371 186.391C26.5004 183.831 29.6213 182.178 33.0178 181.741L299.716 147.894C301.277 147.697 302.863 147.832 304.367 148.292C305.872 148.752 307.261 149.526 308.442 150.562C309.623 151.599 310.569 152.873 311.217 154.302C311.866 155.731 312.201 157.28 312.202 158.848V341.374C312.196 344.786 310.945 348.079 308.682 350.639C306.419 353.2 303.298 354.852 299.901 355.289L33.2031 389.175C32.7362 389.222 32.267 389.243 31.7977 389.236ZM301.144 149.025C300.729 149.024 300.313 149.049 299.901 149.102L33.2031 182.987C30.111 183.385 27.2698 184.89 25.2096 187.221C23.1495 189.552 22.011 192.551 22.0067 195.656V378.221C22.0057 379.608 22.3011 380.979 22.8731 382.244C23.4451 383.508 24.2807 384.637 25.3244 385.556C26.368 386.474 27.5959 387.16 28.9263 387.569C30.2567 387.978 31.6593 388.101 33.0409 387.928L299.739 354.043C302.832 353.647 305.675 352.143 307.737 349.812C309.799 347.48 310.939 344.481 310.943 341.374V158.81C310.943 156.219 309.911 153.733 308.074 151.899C306.238 150.065 303.745 149.031 301.144 149.025Z" fill="#1D2BB2"/>
<path d="M190.285 508.407L483.962 470.714C484.968 470.595 485.892 470.105 486.553 469.34C487.213 468.575 487.562 467.592 487.53 466.583C487.53 465.26 487.398 455.952 487.398 455.952L332.116 367.49C324.34 363.066 314.271 361.336 305.384 362.49L15.4433 399.736C14.5853 399.847 13.7712 400.179 13.0818 400.7C12.3924 401.221 11.8516 401.912 11.513 402.706L11.0497 403.79C11.0497 403.79 11.2968 411.559 11.1964 413.375C11.1499 414.127 11.3181 414.876 11.6816 415.536C12.0452 416.197 12.5891 416.741 13.2504 417.106L164.595 503.33C172.376 507.76 181.395 509.542 190.285 508.407Z" fill="#1D2BB2"/>
<path d="M190.285 498.045L482.935 460.352C483.788 460.253 484.587 459.887 485.219 459.308C485.851 458.729 486.283 457.966 486.454 457.128C486.625 456.29 486.527 455.42 486.172 454.641C485.818 453.862 485.225 453.215 484.479 452.791L333.907 367.12C326.128 362.692 317.112 360.909 308.225 362.043L15.5746 399.698C14.7254 399.806 13.932 400.178 13.3065 400.761C12.6809 401.343 12.2548 402.106 12.0884 402.943C11.922 403.779 12.0236 404.647 12.379 405.423C12.7344 406.199 13.3255 406.844 14.0688 407.267L164.641 492.938C172.407 497.364 181.407 499.157 190.285 498.045Z" fill="white"/>
<path d="M185.111 498.999C177.802 499.002 170.618 497.112 164.263 493.515L13.6905 407.837C12.8305 407.35 12.1465 406.605 11.7358 405.709C11.325 404.813 11.2084 403.81 11.4026 402.844C11.5967 401.878 12.0917 400.997 12.8171 400.327C13.5426 399.658 14.4615 399.233 15.4433 399.113L308.094 361.421C317.116 360.29 326.264 362.098 334.17 366.574L484.734 452.314C485.588 452.805 486.266 453.549 486.674 454.443C487.081 455.338 487.197 456.336 487.005 457.3C486.814 458.263 486.324 459.142 485.605 459.814C484.886 460.485 483.974 460.916 482.997 461.045L190.346 498.738C188.609 498.936 186.86 499.023 185.111 498.999ZM313.337 362.374C311.633 362.374 309.931 362.482 308.24 362.697L15.59 400.39C14.874 400.485 14.2058 400.801 13.6791 401.293C13.1525 401.786 12.7937 402.43 12.6532 403.136C12.5127 403.842 12.5975 404.574 12.8957 405.229C13.1939 405.884 13.6905 406.43 14.3159 406.79L164.888 492.461C172.557 496.803 181.431 498.558 190.184 497.461L482.835 459.768C483.551 459.675 484.221 459.361 484.748 458.87C485.276 458.378 485.636 457.734 485.776 457.028C485.917 456.322 485.832 455.589 485.533 454.934C485.234 454.279 484.736 453.734 484.109 453.376L333.575 367.698C327.406 364.205 320.432 362.371 313.337 362.374Z" fill="#1D2BB2"/>
<path d="M128.318 451.406C121.715 451.407 115.225 449.697 109.485 446.445L49.8201 412.844C49.034 412.397 48.4088 411.716 48.0328 410.895C47.6568 410.075 47.5492 409.158 47.725 408.274C47.9009 407.389 48.3514 406.582 49.0128 405.967C49.6742 405.351 50.513 404.959 51.4108 404.844L305.16 371.951C313.322 370.931 321.596 372.566 328.749 376.613L388.399 410.213C389.185 410.66 389.81 411.342 390.186 412.162C390.562 412.982 390.67 413.899 390.494 414.784C390.318 415.668 389.868 416.475 389.206 417.091C388.545 417.706 387.706 418.099 386.808 418.213L133.075 451.106C131.497 451.306 129.909 451.406 128.318 451.406ZM309.908 372.905C308.375 372.906 306.843 373.004 305.322 373.197L51.5729 406.09C50.9497 406.189 50.3719 406.476 49.9173 406.913C49.4627 407.349 49.1532 407.913 49.0304 408.53C48.9076 409.147 48.9774 409.786 49.2304 410.362C49.4834 410.938 49.9075 411.423 50.4456 411.752L110.103 445.391C117.02 449.304 125.021 450.885 132.913 449.898L386.654 417.006C387.28 416.91 387.861 416.624 388.319 416.188C388.776 415.751 389.088 415.185 389.212 414.567C389.336 413.948 389.266 413.306 389.011 412.728C388.757 412.15 388.33 411.665 387.789 411.336L328.124 377.697C322.571 374.555 316.294 372.904 309.908 372.905Z" fill="#1D2BB2"/>
<path d="M280.651 470.499C278.805 470.499 276.991 470.022 275.385 469.114L241.271 450.529C240.976 450.362 240.742 450.106 240.603 449.797C240.464 449.489 240.428 449.144 240.498 448.814C240.553 448.479 240.718 448.171 240.966 447.939C241.215 447.706 241.534 447.562 241.873 447.529L312.48 438.468C314.762 438.184 317.075 438.643 319.074 439.775L353.188 458.36C353.487 458.523 353.726 458.777 353.87 459.084C354.015 459.392 354.058 459.737 353.992 460.07C353.927 460.403 353.757 460.707 353.507 460.938C353.257 461.168 352.94 461.313 352.601 461.353L281.979 470.445C281.538 470.49 281.094 470.508 280.651 470.499ZM313.808 439.614C313.418 439.614 313.029 439.637 312.642 439.683L242.02 448.775C241.945 448.78 241.874 448.81 241.82 448.861C241.765 448.911 241.729 448.979 241.719 449.052C241.7 449.125 241.706 449.202 241.737 449.271C241.768 449.339 241.821 449.395 241.888 449.429L276.003 468.014C277.765 469.014 279.805 469.418 281.817 469.168L352.439 460.083C352.515 460.076 352.586 460.044 352.642 459.993C352.698 459.941 352.735 459.873 352.748 459.799C352.766 459.726 352.758 459.65 352.728 459.581C352.697 459.513 352.644 459.457 352.578 459.422L318.456 440.837C317.04 440.033 315.438 439.611 313.808 439.614Z" fill="#1D2BB2"/>
<path d="M116.165 407.79C116.082 407.795 116 407.783 115.923 407.756C115.845 407.729 115.773 407.687 115.712 407.632C115.651 407.578 115.601 407.511 115.565 407.438C115.53 407.364 115.509 407.284 115.504 407.202C115.5 407.12 115.511 407.038 115.539 406.961C115.566 406.883 115.608 406.812 115.663 406.751C115.718 406.69 115.784 406.64 115.858 406.605C115.932 406.569 116.013 406.549 116.095 406.544L222.245 393.69C222.326 393.679 222.409 393.685 222.489 393.707C222.569 393.729 222.643 393.766 222.708 393.817C222.772 393.868 222.826 393.931 222.866 394.003C222.906 394.075 222.931 394.154 222.939 394.236C222.95 394.318 222.945 394.401 222.923 394.481C222.901 394.561 222.863 394.635 222.812 394.701C222.761 394.766 222.698 394.82 222.626 394.861C222.553 394.901 222.474 394.927 222.391 394.936L116.242 407.79H116.165Z" fill="#1D2BB2"/>
<path d="M162.572 418.159C162.406 418.169 162.243 418.112 162.119 418.002C161.995 417.891 161.921 417.736 161.911 417.571C161.902 417.406 161.959 417.244 162.07 417.12C162.181 416.997 162.336 416.923 162.502 416.913L193.319 413.183C193.401 413.173 193.484 413.179 193.563 413.202C193.642 413.224 193.716 413.261 193.78 413.312C193.845 413.363 193.899 413.426 193.939 413.497C193.979 413.569 194.004 413.647 194.014 413.729C194.024 413.81 194.017 413.892 193.995 413.971C193.973 414.05 193.935 414.124 193.884 414.188C193.833 414.252 193.77 414.306 193.698 414.346C193.626 414.386 193.548 414.411 193.466 414.421L162.649 418.159H162.572Z" fill="#1D2BB2"/>
<path d="M272.474 420.006C272.316 420.001 272.166 419.938 272.052 419.828C271.939 419.719 271.871 419.571 271.861 419.414C271.852 419.257 271.901 419.102 272 418.98C272.099 418.857 272.241 418.776 272.397 418.752L303.214 415.021C303.379 415.004 303.545 415.051 303.676 415.153C303.807 415.255 303.893 415.403 303.916 415.567C303.936 415.732 303.889 415.899 303.787 416.03C303.684 416.161 303.534 416.246 303.368 416.267L272.574 420.006H272.474Z" fill="#1D2BB2"/>
<mask id="mask0_27_515" style="mask-type:luminance" maskUnits="userSpaceOnUse" x="21" y="48" width="430" height="341">
<path d="M33.1182 388.552L299.824 354.666C303.07 354.253 306.052 352.675 308.214 350.228C310.376 347.781 311.569 344.634 311.569 341.374L450.836 112.994C450.836 106.717 306.04 47.5083 299.793 48.3006L33.095 82.1857C29.848 82.5975 26.8632 84.1746 24.6998 86.6216C22.5363 89.0685 21.3427 92.2174 21.3427 95.4782V378.221C21.3428 379.699 21.6591 381.161 22.2704 382.509C22.8816 383.856 23.774 385.059 24.8879 386.036C26.0019 387.013 27.312 387.743 28.7311 388.177C30.1502 388.611 31.6457 388.738 33.1182 388.552Z" fill="white"/>
</mask>
<g mask="url(#mask0_27_515)">
<path d="M167.259 533.084L168.71 465.668C168.71 465.668 178.972 489.699 185.698 533.084H262.443C255.648 470.584 233.665 413.852 227.387 398.652C226.86 397.361 226.053 396.201 225.024 395.257C223.995 394.313 222.769 393.607 221.434 393.19C206.477 388.467 154.209 376.159 100.381 410.506C99.1301 411.307 98.083 412.387 97.3231 413.66C96.5632 414.934 96.1113 416.367 96.0033 417.844C95.0381 431.391 92.7602 473.453 96.2736 533.054L167.259 533.084Z" fill="#1D2BB2"/>
<path d="M343.32 146.863C343.32 146.863 343.629 119.048 344.131 111.517C344.702 102.955 332.95 112.671 332.494 138.925L343.32 146.863Z" fill="white"/>
<path d="M343.32 147.487C343.187 147.487 343.058 147.447 342.949 147.371L332.139 139.425C332.057 139.367 331.991 139.289 331.947 139.199C331.902 139.109 331.881 139.01 331.884 138.91C332.185 121.117 337.722 110.24 341.559 108.209C341.876 107.992 342.248 107.869 342.632 107.854C343.016 107.839 343.397 107.933 343.729 108.125C344.54 108.648 344.895 109.802 344.772 111.563C344.285 118.986 344 146.594 344 146.871C343.996 146.987 343.962 147.1 343.899 147.197C343.836 147.295 343.748 147.374 343.644 147.425C343.544 147.476 343.432 147.497 343.32 147.487ZM333.127 138.61L342.702 145.633C342.772 140.171 343.065 118.032 343.474 111.478C343.567 110.071 343.289 109.371 342.996 109.171C342.702 108.971 342.324 109.171 342.1 109.302C339.459 110.771 333.521 120.071 333.127 138.61Z" fill="#1D2BB2"/>
<path d="M338.633 174.995C341.351 169.187 347.019 156.748 347.42 153.164C347.822 149.579 344.918 146.348 343.606 145.14C342.834 144.425 342.061 143.671 341.359 142.91L334.571 135.786C332.873 134.094 332.216 131.51 329.637 131.64C324.719 131.879 322.472 140.025 322.472 140.025C322.472 140.025 318.14 135.871 315.406 137.387C312.673 138.902 307.09 151.348 311.87 165.172C316.109 177.418 318.456 174.195 318.325 182.864C316.371 203.711 307.237 249.742 291.508 247.98C286.883 247.457 282.417 245.989 278.389 243.667C274.36 241.345 270.856 238.221 268.096 234.488L231.843 269.665C231.843 269.665 253.896 303.15 297.067 299.512C358.972 294.289 337.143 182.587 337.143 182.526C337.143 181.995 337.143 181.579 337.143 181.295C337.202 179.115 337.709 176.971 338.633 174.995Z" fill="white"/>
<path d="M290.643 300.435C279.055 300.335 267.652 297.53 257.349 292.245C247.046 286.96 238.13 279.343 231.318 270.004C231.243 269.885 231.21 269.744 231.226 269.604C231.241 269.465 231.303 269.334 231.402 269.234L267.656 234.065C267.723 234.001 267.803 233.952 267.891 233.922C267.979 233.891 268.073 233.88 268.165 233.888C268.258 233.898 268.346 233.93 268.425 233.979C268.504 234.028 268.571 234.094 268.621 234.172C271.343 237.815 274.783 240.865 278.731 243.136C282.678 245.407 287.05 246.852 291.577 247.38C292.711 247.471 293.851 247.329 294.927 246.963C296.003 246.596 296.992 246.013 297.832 245.25C308.874 236.303 315.877 202.21 317.7 182.826C317.769 178.21 317.144 177.187 315.777 175.01C313.869 172.007 312.356 168.773 311.275 165.387C306.326 151.079 312.24 138.463 315.097 136.848C317.491 135.525 320.719 137.763 322.163 138.94C322.935 136.694 325.251 131.248 329.606 131.025C331.745 130.917 332.765 132.363 333.745 133.756C334.122 134.323 334.545 134.859 335.012 135.356L341.822 142.487C342.502 143.21 343.251 143.971 344.03 144.694C345.382 145.94 348.478 149.271 348.046 153.248C347.644 156.841 342.332 168.587 339.204 175.272C338.308 177.177 337.814 179.245 337.753 181.349C337.753 181.618 337.753 182.002 337.753 182.487C340.019 195.266 341.261 208.205 341.467 221.18C341.768 240.68 339.467 267.419 326.796 284.119C319.506 293.727 309.515 299.127 297.098 300.173C294.905 300.343 292.751 300.435 290.643 300.435ZM232.661 269.765C237.15 275.803 242.553 281.11 248.676 285.496C260.847 294.396 275.553 299.19 290.651 299.181C292.72 299.181 294.836 299.096 297.013 298.912C309.059 297.896 318.75 292.658 325.815 283.35C349.675 251.896 336.625 183.349 336.525 182.664C336.521 182.631 336.521 182.597 336.525 182.564C336.525 182.026 336.525 181.595 336.525 181.295C336.582 179.023 337.107 176.786 338.069 174.725C340.563 169.402 346.409 156.633 346.802 153.094C347.173 149.679 344.393 146.717 343.181 145.602C342.37 144.833 341.637 144.063 340.911 143.34L334.124 136.217C333.603 135.673 333.133 135.084 332.718 134.456C331.73 133.056 331.05 132.202 329.676 132.263C325.259 132.479 323.112 140.117 323.089 140.194C323.059 140.298 323.002 140.393 322.925 140.469C322.849 140.546 322.754 140.602 322.649 140.633C322.544 140.66 322.433 140.66 322.328 140.633C322.223 140.606 322.126 140.553 322.047 140.479C320.935 139.41 317.622 136.879 315.723 137.933C313.167 139.34 307.824 151.525 312.472 164.964C313.527 168.265 315.001 171.419 316.858 174.349C318.263 176.595 319.043 177.833 318.966 182.895C317.12 202.534 309.978 237.034 298.635 246.226C297.664 247.094 296.526 247.754 295.289 248.167C294.053 248.58 292.745 248.736 291.446 248.626C286.863 248.083 282.433 246.641 278.412 244.383C274.391 242.125 270.859 239.097 268.018 235.472L232.661 269.765Z" fill="#1D2BB2"/>
<path d="M331.506 165.264C329.352 165.264 326.541 164.048 323.715 160.602C318.032 153.679 321.854 139.917 322.016 139.333C322.074 139.188 322.184 139.07 322.324 139.001C322.464 138.933 322.624 138.918 322.775 138.96C322.925 139.002 323.054 139.098 323.138 139.229C323.222 139.36 323.254 139.518 323.228 139.671C323.19 139.81 319.422 153.379 324.695 159.81C327.969 163.81 331.143 164.425 332.857 163.771C334.162 163.256 334.873 161.948 334.764 160.271C334.573 157.492 333.453 154.857 331.583 152.787C331.525 152.729 331.478 152.66 331.446 152.584C331.415 152.508 331.398 152.427 331.398 152.344C331.398 152.262 331.415 152.181 331.446 152.105C331.478 152.029 331.525 151.96 331.583 151.902C331.702 151.786 331.861 151.721 332.027 151.721C332.193 151.721 332.353 151.786 332.471 151.902C334.578 154.183 335.832 157.116 336.023 160.21C336.178 162.456 335.166 164.225 333.321 164.956C332.74 165.168 332.125 165.273 331.506 165.264Z" fill="#1D2BB2"/>
<path d="M249.911 296.681L285.778 227.634L250.382 197.087C250.382 197.087 198.748 169.233 165.521 174.356C148.742 176.933 121.423 179.741 106.18 186.664C90.019 193.98 65.4256 206.08 56.8237 221.557L47.7971 258.211C61.9586 271.419 101.563 282.142 101.563 282.142L72.8847 399.013C103.988 430.36 213.311 415.706 245.85 411.083L235.286 290.358L249.911 296.681Z" fill="#00FAAC"/>
<path d="M154.919 419.175C113.454 419.175 85.4246 412.567 72.4368 399.452C72.3614 399.376 72.3068 399.283 72.2784 399.181C72.25 399.078 72.2487 398.97 72.2747 398.867L100.845 282.581C95.6713 281.142 60.7385 271.104 47.4032 258.673C47.3225 258.596 47.2636 258.499 47.2324 258.393C47.2012 258.286 47.1989 258.173 47.2256 258.065L56.2136 221.395C56.2261 221.341 56.247 221.289 56.2754 221.241C64.6225 206.218 87.162 194.564 105.918 186.087C118.566 180.356 139.175 177.464 155.738 175.141C159.205 174.648 162.479 174.195 165.421 173.741C198.446 168.671 250.181 196.256 250.683 196.533L250.799 196.61L286.188 227.157C286.298 227.248 286.373 227.375 286.4 227.515C286.426 227.656 286.403 227.801 286.334 227.926L250.467 296.973C250.396 297.107 250.279 297.211 250.136 297.264C249.994 297.318 249.837 297.319 249.695 297.266L236.035 291.366L246.475 411.029C246.491 411.188 246.444 411.347 246.345 411.473C246.246 411.6 246.101 411.683 245.942 411.706C210.801 416.698 180.324 419.175 154.919 419.175ZM73.5796 398.821C94.4281 419.413 153.761 423.437 245.17 410.552L234.661 290.419C234.648 290.311 234.665 290.201 234.709 290.1C234.753 290 234.823 289.913 234.912 289.849C235.001 289.785 235.105 289.745 235.214 289.735C235.324 289.724 235.434 289.743 235.534 289.789L249.626 295.873L284.991 227.78L250.027 197.603C247.989 196.518 197.744 170.048 165.614 174.979C162.664 175.433 159.383 175.895 155.908 176.379C139.43 178.687 118.921 181.572 106.443 187.226C89.3627 194.956 65.719 206.926 57.4182 221.78L48.4997 258.004C62.6072 270.842 101.331 281.427 101.725 281.535C101.806 281.555 101.881 281.591 101.947 281.641C102.014 281.691 102.069 281.754 102.111 281.826C102.153 281.897 102.18 281.976 102.19 282.059C102.201 282.141 102.195 282.224 102.173 282.304L73.5796 398.821Z" fill="#1D2BB2"/>
<path d="M179.443 212.587C179.367 212.586 179.291 212.571 179.219 212.541L122.419 190.772C122.342 190.743 122.271 190.699 122.211 190.642C122.151 190.586 122.103 190.518 122.07 190.443C122.037 190.367 122.02 190.286 122.018 190.204C122.017 190.122 122.033 190.04 122.064 189.964C122.123 189.818 122.235 189.699 122.378 189.632C122.522 189.565 122.685 189.554 122.836 189.603L179.636 211.357C179.772 211.411 179.885 211.511 179.955 211.639C180.025 211.767 180.048 211.916 180.021 212.059C179.994 212.202 179.917 212.332 179.805 212.425C179.693 212.519 179.551 212.571 179.405 212.572L179.443 212.587Z" fill="#1D2BB2"/>
<path d="M128.512 240.786L91.7076 359.525C90.9904 361.839 92.2919 364.294 94.6145 365.008L185.791 393.056C188.113 393.77 190.578 392.474 191.295 390.16L228.099 271.421C228.816 269.107 227.515 266.652 225.192 265.938L134.016 237.89C131.693 237.176 129.229 238.472 128.512 240.786Z" fill="white"/>
<path d="M187.088 393.898C186.585 393.899 186.085 393.823 185.605 393.675L94.4281 365.62C93.1555 365.227 92.0915 364.347 91.4691 363.173C90.8467 361.999 90.7168 360.628 91.1078 359.359L127.925 240.611C128.32 239.343 129.203 238.283 130.381 237.663C131.559 237.043 132.936 236.914 134.21 237.303L225.387 265.388C226.66 265.782 227.724 266.662 228.346 267.836C228.969 269.009 229.099 270.381 228.708 271.65L191.898 390.367C191.578 391.389 190.939 392.282 190.074 392.917C189.208 393.552 188.163 393.896 187.088 393.898ZM132.72 238.334C132.108 238.334 131.506 238.485 130.967 238.773C130.083 239.237 129.42 240.031 129.121 240.98L92.3124 359.728C92.0199 360.68 92.1172 361.708 92.583 362.589C93.0488 363.469 93.8453 364.131 94.7987 364.428L185.976 392.475C186.45 392.625 186.95 392.68 187.446 392.637C187.942 392.594 188.425 392.454 188.866 392.224C189.307 391.995 189.699 391.681 190.018 391.3C190.337 390.919 190.577 390.479 190.725 390.005L227.534 271.258C227.828 270.307 227.732 269.279 227.266 268.399C226.799 267.519 226.002 266.859 225.048 266.565L133.839 238.503C133.477 238.39 133.099 238.333 132.72 238.334Z" fill="#1D2BB2"/>
<path d="M215.291 269.311L140.346 246.256L105.504 358.667L180.448 381.721L215.291 269.311Z" fill="white"/>
<path d="M180.424 382.313H180.239L105.292 359.236C105.214 359.213 105.142 359.175 105.078 359.124C105.015 359.072 104.963 359.009 104.925 358.937C104.887 358.865 104.863 358.787 104.856 358.706C104.849 358.625 104.858 358.544 104.883 358.467L139.762 246.073C139.813 245.914 139.923 245.782 140.071 245.703C140.143 245.664 140.223 245.639 140.305 245.631C140.388 245.623 140.471 245.632 140.55 245.657L215.496 268.735C215.652 268.784 215.782 268.892 215.86 269.036C215.938 269.179 215.957 269.347 215.913 269.504L181.026 381.905C180.981 382.027 180.899 382.132 180.791 382.205C180.683 382.279 180.555 382.316 180.424 382.313ZM106.296 358.22L180.038 380.905L214.515 269.696L140.773 247.011L106.296 358.22Z" fill="#1D2BB2"/>
<path d="M201.697 253.188L160.664 240.565C159.303 240.153 157.832 240.292 156.573 240.953C155.314 241.614 154.367 242.743 153.939 244.096L151.036 253.45L202.354 269.234L205.249 259.88C205.66 258.524 205.518 257.06 204.853 255.807C204.188 254.555 203.054 253.613 201.697 253.188Z" fill="white"/>
<path d="M202.354 269.865C202.289 269.873 202.225 269.873 202.161 269.865L150.85 254.073C150.773 254.049 150.7 254.01 150.638 253.959C150.575 253.907 150.524 253.844 150.486 253.773C150.448 253.701 150.424 253.623 150.416 253.542C150.409 253.462 150.417 253.381 150.441 253.303L153.337 243.949C153.808 242.434 154.864 241.167 156.273 240.427C157.682 239.687 159.328 239.534 160.85 240.003L201.883 252.627C202.637 252.857 203.339 253.234 203.947 253.736C204.555 254.237 205.058 254.853 205.426 255.548C205.795 256.244 206.022 257.005 206.095 257.788C206.168 258.571 206.085 259.36 205.851 260.111L202.948 269.465C202.903 269.585 202.822 269.688 202.715 269.76C202.609 269.832 202.482 269.869 202.354 269.865ZM151.823 253.08L201.937 268.465L204.624 259.704C204.995 258.505 204.874 257.208 204.286 256.099C203.698 254.99 202.692 254.159 201.489 253.788L160.479 241.157C159.276 240.791 157.976 240.914 156.864 241.499C155.752 242.085 154.917 243.084 154.541 244.28L151.823 253.08Z" fill="#1D2BB2"/>
<path d="M186.424 229.957C183.499 229.069 180.341 229.369 177.638 230.791C174.934 232.213 172.905 234.643 171.992 237.549L168.587 248.534L190.64 255.327L194.045 244.334C194.493 242.892 194.651 241.375 194.51 239.872C194.369 238.369 193.933 236.908 193.225 235.572C192.517 234.237 191.552 233.054 190.385 232.091C189.218 231.127 187.872 230.402 186.424 229.957ZM183.466 239.496C183.023 239.367 182.629 239.11 182.334 238.757C182.038 238.404 181.856 237.971 181.809 237.514C181.762 237.056 181.853 236.596 182.071 236.191C182.289 235.785 182.623 235.454 183.031 235.239C183.439 235.025 183.902 234.936 184.361 234.985C184.819 235.034 185.253 235.219 185.606 235.515C185.959 235.811 186.215 236.205 186.341 236.647C186.468 237.089 186.459 237.559 186.316 237.996C186.228 238.281 186.084 238.545 185.893 238.775C185.702 239.005 185.468 239.195 185.203 239.334C184.938 239.473 184.649 239.559 184.351 239.587C184.053 239.615 183.752 239.584 183.466 239.496Z" fill="white"/>
<path d="M190.64 255.95C190.579 255.961 190.516 255.961 190.455 255.95L168.401 249.165C168.246 249.115 168.115 249.007 168.038 248.864C167.96 248.721 167.941 248.553 167.985 248.396L171.421 237.365C172.373 234.292 174.511 231.723 177.366 230.221C180.22 228.719 183.556 228.408 186.64 229.357C189.724 230.306 192.304 232.436 193.811 235.279C195.319 238.123 195.631 241.446 194.678 244.519L191.273 255.511C191.232 255.644 191.147 255.76 191.032 255.839C190.918 255.919 190.779 255.958 190.64 255.95ZM169.374 248.127L190.223 254.542L193.443 244.15C194.265 241.404 193.967 238.447 192.612 235.92C191.257 233.393 188.956 231.501 186.208 230.655C183.46 229.81 180.489 230.079 177.939 231.405C175.39 232.73 173.469 235.005 172.594 237.734L169.374 248.127ZM184.138 240.226C183.848 240.224 183.559 240.18 183.281 240.096C182.582 239.879 181.991 239.407 181.626 238.774C181.262 238.141 181.151 237.394 181.315 236.683C181.48 235.972 181.908 235.35 182.515 234.94C183.121 234.531 183.86 234.365 184.584 234.475C185.308 234.586 185.963 234.964 186.418 235.536C186.874 236.107 187.095 236.829 187.039 237.557C186.983 238.284 186.652 238.963 186.114 239.459C185.576 239.954 184.871 240.228 184.138 240.226ZM183.652 238.896C183.96 238.989 184.289 238.99 184.598 238.899C184.907 238.807 185.182 238.628 185.39 238.382C185.597 238.136 185.727 237.835 185.764 237.516C185.801 237.197 185.743 236.874 185.598 236.588C185.391 236.204 185.041 235.917 184.623 235.789C184.205 235.661 183.754 235.702 183.366 235.903C182.981 236.109 182.692 236.458 182.564 236.874C182.435 237.29 182.476 237.74 182.679 238.126C182.892 238.498 183.24 238.773 183.652 238.896Z" fill="#1D2BB2"/>
<path d="M202.628 285.89L141.577 266.884L139.995 271.928L201.046 290.934L202.628 285.89Z" fill="#1D2BB2"/>
<path d="M199.379 296.218L138.327 277.212L136.745 282.255L197.796 301.262L199.379 296.218Z" fill="#1D2BB2"/>
<path d="M196.697 304.232L135.933 285.54L134.377 290.56L195.141 309.252L196.697 304.232Z" fill="#1D2BB2"/>
<path d="M53.3643 262.042L98.065 281.719C98.065 281.719 85.6408 304.427 128.102 320.181C170.564 335.935 179.42 328.589 179.42 328.589L194.006 304.927C194.006 304.927 199.08 305.912 195.921 314.066C192.763 322.22 190.995 325.605 199.381 324.835C207.766 324.066 215.882 313.151 215.882 313.151C215.882 313.151 217.032 321.358 212.793 327.435C212.793 327.435 216.654 329.743 211.249 337.189C211.249 337.189 213.04 340.605 205.496 346.936C205.496 346.936 210.5 351.136 195.898 354.197C187.845 355.89 177.482 353.051 177.482 353.051C177.482 353.051 115.686 369.128 78.8689 346.928C42.0521 324.728 53.3643 262.042 53.3643 262.042Z" fill="white"/>
<path d="M130.789 359.282C113.995 359.282 94.042 356.805 78.5446 347.451C63.3175 338.259 54.0516 320.543 51.681 296.204C50.6449 284.778 51.0001 273.268 52.7389 261.927C52.7576 261.834 52.7969 261.746 52.854 261.67C52.9111 261.594 52.9844 261.532 53.0688 261.487C53.1531 261.443 53.2462 261.418 53.3414 261.414C53.4367 261.411 53.5315 261.428 53.6191 261.465L98.3429 281.15C98.4224 281.184 98.4937 281.235 98.5522 281.299C98.6108 281.362 98.6552 281.437 98.6827 281.519C98.7484 281.68 98.7484 281.859 98.6827 282.019C97.664 284.278 97.1098 286.718 97.0528 289.194C96.9958 291.67 97.4371 294.132 98.3507 296.435C101.841 305.666 111.941 313.474 128.38 319.566C167.761 334.182 178.077 328.712 179.019 328.12L193.528 304.566C193.595 304.457 193.694 304.372 193.811 304.321C193.928 304.27 194.059 304.256 194.184 304.281C194.773 304.427 195.324 304.694 195.803 305.065C196.282 305.436 196.677 305.902 196.964 306.435C197.999 308.289 197.867 310.92 196.57 314.258L196.084 315.527C194.539 319.474 193.435 322.32 194.292 323.451C194.856 324.22 196.524 324.443 199.381 324.181C207.396 323.458 215.357 312.866 215.434 312.758C215.508 312.657 215.611 312.581 215.73 312.538C215.848 312.496 215.976 312.489 216.098 312.52C216.219 312.55 216.329 312.616 216.411 312.71C216.494 312.803 216.546 312.919 216.561 313.043C216.615 313.381 217.65 321.166 213.704 327.305C214.229 327.873 214.582 328.576 214.724 329.335C215.156 331.466 214.253 334.128 212.037 337.266C212.322 338.374 212.477 341.759 206.469 346.974C206.717 347.299 206.89 347.674 206.974 348.073C207.058 348.472 207.052 348.885 206.956 349.282C206.384 351.551 202.74 353.405 196.145 354.797C188.485 356.405 178.996 354.028 177.613 353.682C165.945 356.435 154.062 358.193 142.094 358.936C138.534 359.143 134.751 359.282 130.789 359.282ZM53.8508 262.942C52.2459 273.925 51.9401 285.058 52.9396 296.112C54.5457 312.789 60.4142 335.043 79.1932 346.374C94.042 355.336 113.169 357.982 130.535 357.982C146.305 357.889 162.015 356.024 177.366 352.42C177.473 352.393 177.584 352.393 177.691 352.42C177.799 352.42 188.007 355.19 195.821 353.551C203.828 351.874 205.45 349.951 205.697 348.936C205.737 348.653 205.707 348.364 205.608 348.096C205.51 347.828 205.347 347.588 205.133 347.397C205.064 347.339 205.007 347.266 204.969 347.183C204.93 347.101 204.91 347.011 204.91 346.92C204.91 346.829 204.93 346.74 204.969 346.657C205.007 346.575 205.064 346.502 205.133 346.443C212.083 340.605 210.747 337.482 210.732 337.451C210.685 337.347 210.665 337.234 210.675 337.121C210.684 337.008 210.722 336.899 210.786 336.805C213.426 333.158 213.697 330.897 213.465 329.643C213.376 328.975 213.03 328.369 212.5 327.951C212.429 327.906 212.367 327.848 212.319 327.779C212.272 327.71 212.238 327.633 212.222 327.551C212.204 327.468 212.203 327.382 212.219 327.299C212.235 327.216 212.267 327.137 212.314 327.066C215.264 322.82 215.488 317.404 215.403 314.758C212.94 317.72 206.369 324.758 199.466 325.42C195.999 325.728 194.138 325.366 193.25 324.189C191.976 322.497 193.064 319.697 194.879 315.058L195.358 313.851C196.485 310.927 196.655 308.597 195.836 307.104C195.496 306.471 194.952 305.97 194.292 305.681L179.969 328.928C179.933 328.987 179.885 329.04 179.83 329.082C179.459 329.389 170.208 336.451 127.886 320.781C111.076 314.551 100.713 306.512 97.0998 296.881C95.2257 292.113 95.2699 286.809 97.2233 282.073L53.8508 262.942Z" fill="#1D2BB2"/>
<path d="M235.325 287.735C235.171 287.736 235.021 287.68 234.906 287.577C234.79 287.475 234.717 287.334 234.7 287.181L230.839 254.873C230.82 254.787 230.819 254.698 230.836 254.612C230.853 254.525 230.888 254.444 230.939 254.372C230.99 254.3 231.056 254.239 231.131 254.194C231.207 254.149 231.291 254.12 231.379 254.109C231.467 254.098 231.556 254.106 231.64 254.132C231.725 254.157 231.803 254.2 231.87 254.257C231.937 254.315 231.991 254.385 232.029 254.465C232.067 254.544 232.087 254.631 232.09 254.719L235.951 287.027C235.968 287.192 235.921 287.357 235.819 287.488C235.716 287.618 235.567 287.704 235.402 287.727L235.325 287.735Z" fill="#1D2BB2"/>
<path d="M103.987 280.95C103.842 280.95 103.7 280.901 103.586 280.812C103.457 280.705 103.376 280.552 103.361 280.387C103.345 280.221 103.395 280.056 103.501 279.927L111.269 270.542C111.381 270.448 111.522 270.395 111.668 270.392C111.815 270.39 111.958 270.438 112.072 270.529C112.187 270.62 112.267 270.747 112.298 270.89C112.329 271.033 112.309 271.182 112.242 271.311L104.474 280.696C104.417 280.772 104.344 280.834 104.26 280.878C104.176 280.922 104.082 280.947 103.987 280.95Z" fill="#1D2BB2"/>
<path d="M140.349 120.455C140.349 120.455 132.627 104.763 129.87 101.994C127.114 99.2244 125.029 96.3167 133.06 90.9628C141.09 85.6089 162.093 71.301 174.957 71.3933C187.821 71.4856 196.833 79.5857 192.871 85.4165C188.91 91.2474 187.096 93.7167 190.146 94.0936C193.196 94.4705 194.887 97.8629 186.239 102.855C177.59 107.848 147.484 129.509 140.349 120.455Z" fill="#1D2BB2"/>
<path d="M184.1 165.741L179.467 149.271C189.505 147.064 192.478 133.509 190.099 122.94C188.377 115.248 183.837 97.7936 183.837 97.7936C173.382 103.948 145.105 104.563 145.105 104.563C145.105 104.563 148.04 109.225 146.356 111.486C144.673 113.748 145.715 122.617 145.715 122.617C145.715 122.617 142.063 119.186 138.14 121.848C135.94 123.317 138.457 129.617 140.264 133.148C140.856 134.214 141.669 135.143 142.648 135.872C143.628 136.602 144.753 137.115 145.947 137.379C145.947 137.379 146.588 136.994 147.893 140.11L143.7 162.141C142.852 166.586 140.909 170.751 138.045 174.262C135.181 177.773 131.485 180.52 127.291 182.256L178.254 198.933L200.099 179.826C196.353 179.263 192.851 177.634 190.013 175.135C187.174 172.637 185.121 169.374 184.1 165.741Z" fill="white"/>
<path d="M178.262 199.564C178.198 199.575 178.133 199.575 178.069 199.564L127.106 182.879C126.984 182.84 126.877 182.765 126.8 182.663C126.722 182.561 126.678 182.438 126.673 182.311C126.668 182.183 126.702 182.057 126.771 181.95C126.841 181.842 126.941 181.759 127.06 181.71C131.163 180.021 134.778 177.339 137.578 173.908C140.379 170.476 142.276 166.402 143.098 162.056L147.26 140.21C146.994 139.403 146.56 138.661 145.986 138.033H145.854C144.562 137.757 143.345 137.207 142.285 136.419C141.226 135.632 140.349 134.626 139.716 133.471C138.519 131.163 134.851 123.348 137.808 121.363C138.867 120.657 140.113 120.28 141.387 120.28C142.662 120.28 143.907 120.657 144.966 121.363C144.735 118.679 144.449 113.109 145.862 111.178C147.036 109.578 145.337 106.117 144.588 104.917C144.531 104.821 144.501 104.712 144.501 104.601C144.501 104.49 144.531 104.381 144.588 104.286C144.641 104.189 144.719 104.107 144.814 104.049C144.909 103.991 145.017 103.959 145.128 103.955C145.406 103.955 173.367 103.248 183.559 97.2782C183.642 97.2289 183.736 97.1997 183.832 97.193C183.929 97.1863 184.026 97.2024 184.115 97.2398C184.205 97.2775 184.285 97.3352 184.35 97.4086C184.414 97.4819 184.46 97.5689 184.486 97.6629C184.532 97.8398 189.049 115.232 190.756 122.825C192.462 130.417 191.358 138.556 187.999 143.825C186.283 146.713 183.519 148.834 180.277 149.748L184.733 165.595C185.724 169.107 187.71 172.262 190.452 174.68C193.195 177.099 196.579 178.679 200.199 179.233C200.317 179.252 200.428 179.303 200.518 179.382C200.608 179.461 200.674 179.563 200.708 179.677C200.742 179.792 200.742 179.913 200.71 180.028C200.677 180.143 200.613 180.246 200.524 180.326L178.679 199.41C178.563 199.51 178.415 199.565 178.262 199.564ZM129.037 182.164L178.123 198.226L198.717 180.21C195.117 179.425 191.799 177.68 189.118 175.161C186.437 172.642 184.494 169.444 183.497 165.91L178.864 149.441C178.841 149.358 178.836 149.272 178.848 149.187C178.86 149.102 178.889 149.021 178.934 148.948C178.978 148.876 179.036 148.813 179.105 148.764C179.174 148.715 179.252 148.681 179.335 148.664C180.909 148.3 182.392 147.622 183.694 146.67C184.996 145.718 186.09 144.512 186.91 143.125C190.092 138.133 191.111 130.263 189.497 123.079C187.999 116.425 184.339 102.224 183.436 98.7398C173.567 103.924 151.313 104.978 146.163 105.155C146.982 106.732 148.302 109.94 146.874 111.894C145.607 113.617 146.063 120.194 146.348 122.579C146.365 122.706 146.341 122.835 146.28 122.948C146.219 123.061 146.124 123.153 146.009 123.209C145.895 123.27 145.765 123.292 145.637 123.274C145.51 123.256 145.391 123.199 145.298 123.109C145.159 122.986 141.947 120.032 138.503 122.34C137.021 123.34 138.55 128.379 140.82 132.84C141.361 133.801 142.097 134.64 142.981 135.302C143.865 135.964 144.878 136.436 145.955 136.686C146.08 136.673 146.207 136.689 146.325 136.733C146.75 136.871 147.437 137.34 148.472 139.81C148.523 139.923 148.537 140.05 148.511 140.171L144.318 162.202C143.517 166.489 141.717 170.529 139.063 173.996C136.409 177.463 132.975 180.261 129.037 182.164Z" fill="#1D2BB2"/>
<path d="M170.95 151.048C167.33 151.153 163.751 150.259 160.61 148.464C157.274 146.499 154.795 143.363 153.661 139.671C153.64 139.59 153.636 139.506 153.648 139.424C153.66 139.341 153.688 139.262 153.731 139.19C153.774 139.119 153.831 139.056 153.899 139.007C153.966 138.957 154.043 138.922 154.124 138.902C154.205 138.879 154.29 138.873 154.374 138.884C154.458 138.895 154.538 138.923 154.61 138.966C154.683 139.009 154.745 139.067 154.795 139.135C154.844 139.204 154.878 139.281 154.896 139.363C155.971 142.724 158.239 145.579 161.274 147.394C165.792 150.094 171.845 150.525 179.281 148.671C179.361 148.652 179.445 148.648 179.526 148.66C179.608 148.672 179.686 148.701 179.757 148.743C179.827 148.786 179.889 148.842 179.938 148.908C179.987 148.974 180.022 149.049 180.042 149.129C180.062 149.209 180.065 149.292 180.053 149.373C180.041 149.454 180.012 149.532 179.97 149.603C179.927 149.673 179.871 149.734 179.804 149.783C179.738 149.832 179.663 149.867 179.582 149.887C176.763 150.625 173.864 151.015 170.95 151.048Z" fill="#1D2BB2"/>
<path d="M73.3557 384.067C73.1898 384.077 73.0266 384.021 72.9021 383.912C72.7776 383.802 72.7019 383.647 72.6916 383.482C72.6814 383.317 72.7375 383.154 72.8475 383.03C72.9576 382.906 73.1126 382.831 73.2785 382.821L246.9 360.774C247.058 360.768 247.213 360.821 247.334 360.922C247.454 361.024 247.533 361.167 247.553 361.323C247.573 361.48 247.534 361.638 247.443 361.767C247.353 361.896 247.216 361.986 247.062 362.02L73.4329 384.059L73.3557 384.067Z" fill="#1D2BB2"/>
</g>
<path d="M289.323 75.4501C300.507 64.308 300.507 46.243 289.323 35.1009C278.139 23.9588 260.005 23.9588 248.82 35.1009C237.636 46.243 237.636 64.308 248.82 75.4501C260.005 86.5922 278.139 86.5922 289.323 75.4501Z" fill="#00FAAC"/>
<path d="M269.092 84.4319C263.106 84.4361 257.263 82.6121 252.35 79.2058C247.437 75.7995 243.69 70.9747 241.615 65.3815C239.539 59.7884 239.235 53.6958 240.742 47.925C242.25 42.1541 245.497 36.9824 250.046 33.1069C254.595 29.2313 260.228 26.8383 266.184 26.2502C272.141 25.6621 278.135 26.9074 283.36 29.818C288.584 32.7287 292.787 37.1648 295.402 42.5286C298.017 47.8924 298.919 53.926 297.986 59.8162C296.886 66.6681 293.376 72.9068 288.082 77.4166C282.788 81.9264 276.057 84.4131 269.092 84.4319ZM269.015 27.3542C261.772 27.3643 254.813 30.1665 249.598 35.1736C244.383 40.1807 241.315 47.0042 241.037 54.2145C240.76 61.4248 243.294 68.4624 248.108 73.8529C252.923 79.2433 259.645 82.5684 266.866 83.1314C274.087 83.6943 281.247 81.4516 286.845 76.8729C292.443 72.2943 296.045 65.7351 296.897 58.5695C297.748 51.404 295.783 44.1881 291.413 38.4337C287.044 32.6793 280.608 28.8329 273.455 27.7004C271.986 27.4711 270.501 27.3553 269.015 27.3542Z" fill="#1D2BB2"/>
<path d="M284.643 50.2161L277.586 49.1007L278.705 42.0775C278.932 41.0868 278.953 40.06 278.765 39.0611C278.577 38.0622 278.186 37.1123 277.614 36.2706C277.042 35.4288 276.303 34.7131 275.442 34.1678C274.581 33.6225 273.617 33.2594 272.61 33.1009C271.602 32.9424 270.572 32.9919 269.585 33.2464C268.597 33.5009 267.672 33.9549 266.868 34.5803C266.064 35.2056 265.398 35.989 264.91 36.8817C264.422 37.7744 264.124 38.7575 264.034 39.7698L262.914 46.793L255.865 45.6776C254.899 45.526 253.912 45.5655 252.962 45.7937C252.011 46.0219 251.115 46.4345 250.325 47.0077C248.728 48.1654 247.659 49.9075 247.351 51.8507C247.044 53.794 247.525 55.7792 248.687 57.3697C249.849 58.9601 251.597 60.0256 253.548 60.3316L260.598 61.4393L259.447 68.4625C259.22 69.4532 259.2 70.48 259.388 71.4789C259.575 72.4778 259.967 73.4277 260.539 74.2694C261.11 75.1112 261.849 75.8269 262.71 76.3722C263.571 76.9175 264.535 77.2806 265.543 77.4391C266.551 77.5976 267.58 77.5481 268.568 77.2936C269.556 77.0391 270.48 76.5851 271.284 75.9597C272.089 75.3343 272.755 74.551 273.243 73.6583C273.73 72.7655 274.028 71.7825 274.119 70.7702L275.238 63.747L282.288 64.8547C284.167 65.021 286.04 64.4701 287.527 63.3137C289.014 62.1572 290.005 60.4813 290.299 58.6249C290.593 56.7684 290.169 54.8699 289.112 53.3133C288.055 51.7566 286.444 50.6578 284.605 50.2392L284.643 50.2161Z" fill="#1D2BB2"/>
<path d="M387.413 64.4517L310.331 52.2893L309.392 58.2003L386.474 70.3627L387.413 64.4517Z" fill="white"/>
<path d="M386.469 70.9701H386.376L309.291 58.8161C309.209 58.803 309.13 58.7739 309.059 58.7305C308.988 58.6871 308.926 58.6301 308.878 58.563C308.829 58.4958 308.794 58.4198 308.775 58.3391C308.755 58.2585 308.752 58.1749 308.766 58.093L309.708 52.1776C309.721 52.0967 309.75 52.0193 309.793 51.9496C309.836 51.8799 309.893 51.8194 309.959 51.7716C310.026 51.7237 310.102 51.6894 310.182 51.6706C310.262 51.6519 310.345 51.649 310.426 51.6622L387.511 63.847C387.675 63.8761 387.822 63.967 387.92 64.1008C387.97 64.1676 388.005 64.2434 388.025 64.3239C388.045 64.4045 388.049 64.4881 388.036 64.5701L387.094 70.4778C387.064 70.6196 386.984 70.7462 386.87 70.8361C386.756 70.926 386.614 70.9734 386.469 70.9701ZM310.109 57.693L385.951 69.6547L386.723 64.9854L310.85 52.9853L310.109 57.693Z" fill="#1D2BB2"/>
<path d="M385.401 77.0758L308.319 64.9135L307.379 70.8245L384.461 82.9868L385.401 77.0758Z" fill="white"/>
<path d="M384.461 83.6011H384.368L307.322 71.4317C307.24 71.4195 307.161 71.3913 307.09 71.3487C307.02 71.306 306.958 71.2498 306.909 71.1832C306.86 71.1167 306.825 71.0412 306.806 70.961C306.787 70.8809 306.783 70.7977 306.797 70.7163L307.739 64.8009C307.752 64.72 307.781 64.6426 307.824 64.5729C307.867 64.5032 307.924 64.4427 307.99 64.3949C308.057 64.347 308.133 64.3127 308.213 64.2939C308.293 64.2752 308.376 64.2723 308.457 64.2855L385.542 76.4395C385.706 76.4686 385.853 76.5595 385.951 76.6933C386.001 76.7601 386.036 76.836 386.056 76.9165C386.076 76.997 386.08 77.0806 386.067 77.1626L385.086 83.078C385.062 83.2254 384.986 83.3593 384.871 83.4553C384.756 83.5513 384.611 83.6031 384.461 83.6011ZM308.094 70.2932L383.936 82.255L384.708 77.5857L308.866 65.6163L308.094 70.2932Z" fill="#1D2BB2"/>
<path d="M387.82 232.995C387.334 232.997 386.856 232.875 386.43 232.642C380.639 229.411 351.775 212.164 352.903 189.564C353.536 176.879 360.902 173.333 365.257 172.348C373.38 170.502 383.372 174.656 387.079 181.456C387.14 181.566 387.23 181.656 387.34 181.716C387.45 181.777 387.575 181.806 387.7 181.799C387.826 181.793 387.947 181.752 388.05 181.68C388.153 181.609 388.234 181.51 388.283 181.395C391.41 173.91 401.742 168.125 411.564 171.802C416.12 173.502 421.1 179.064 421.95 187.649C422.807 196.372 419.71 213.803 389.333 232.572C388.879 232.852 388.354 232.999 387.82 232.995ZM369.319 173.156C368.043 173.15 366.771 173.29 365.527 173.572C358.632 175.11 354.594 180.841 354.153 189.626C353.065 211.487 381.365 228.38 387.048 231.542C387.29 231.688 387.567 231.766 387.851 231.766C388.134 231.766 388.412 231.688 388.654 231.542C418.452 213.134 421.509 196.233 420.675 187.803C419.903 179.802 415.162 174.525 411.108 173.002C401.95 169.579 392.337 174.949 389.434 181.91C389.293 182.244 389.061 182.532 388.763 182.74C388.466 182.948 388.115 183.068 387.752 183.087C387.389 183.105 387.028 183.021 386.711 182.844C386.394 182.667 386.133 182.405 385.959 182.087C383.056 176.749 376.044 173.156 369.319 173.156Z" fill="#1D2BB2"/>
<path d="M396.468 208.834C396.319 208.835 396.175 208.783 396.061 208.687C395.948 208.591 395.873 208.457 395.85 208.311L393.943 197.241L393.549 199.549C393.522 199.695 393.445 199.827 393.331 199.923C393.217 200.018 393.073 200.071 392.924 200.072H363.049C362.883 200.072 362.724 200.006 362.607 199.89C362.489 199.773 362.423 199.614 362.423 199.449C362.423 199.283 362.489 199.124 362.606 199.006C362.723 198.888 362.882 198.82 363.049 198.818H392.391L393.31 193.433C393.338 193.29 393.415 193.16 393.529 193.067C393.642 192.974 393.785 192.923 393.932 192.923C394.079 192.923 394.221 192.974 394.334 193.067C394.448 193.16 394.525 193.29 394.553 193.433L396.46 204.503L400.028 183.779C400.056 183.636 400.133 183.506 400.247 183.413C400.36 183.32 400.502 183.269 400.649 183.269C400.796 183.269 400.939 183.32 401.052 183.413C401.166 183.506 401.243 183.636 401.271 183.779L404.761 204.072L406.668 193.08C406.692 192.933 406.767 192.8 406.88 192.703C406.993 192.607 407.137 192.554 407.286 192.554C407.435 192.554 407.579 192.607 407.692 192.703C407.805 192.8 407.881 192.933 407.904 193.08L408.676 197.772H415.425C415.591 197.774 415.75 197.841 415.867 197.959C415.985 198.078 416.05 198.237 416.05 198.403C416.05 198.568 415.984 198.727 415.867 198.843C415.75 198.96 415.591 199.026 415.425 199.026H408.159C408.011 199.026 407.868 198.975 407.755 198.88C407.642 198.786 407.566 198.655 407.541 198.51L407.263 196.895L405.387 207.88C405.363 208.026 405.288 208.16 405.175 208.256C405.062 208.352 404.918 208.405 404.769 208.405C404.62 208.405 404.476 208.352 404.363 208.256C404.249 208.16 404.174 208.026 404.151 207.88L400.653 187.587L397.086 208.311C397.062 208.457 396.987 208.589 396.874 208.685C396.76 208.781 396.617 208.834 396.468 208.834Z" fill="#1D2BB2"/>
<path d="M44.5076 116.463H44.3995C44.235 116.435 44.0884 116.343 43.9915 116.208C43.8946 116.072 43.8553 115.904 43.8822 115.74C43.8822 115.555 47.2951 97.1552 64.0434 75.9472C73.8653 63.5086 86.3049 52.5392 101.007 43.339C119.369 31.8466 141.345 23.0772 166.317 17.3618C166.473 17.341 166.631 17.3789 166.76 17.468C166.89 17.5572 166.982 17.6912 167.017 17.844C167.053 17.9968 167.03 18.1573 166.953 18.2943C166.877 18.4313 166.752 18.5349 166.602 18.5849C110.42 31.5389 80.3052 57.3392 65.0317 76.7164C48.4843 97.6783 45.1562 115.763 45.1253 115.948C45.0999 116.092 45.0239 116.223 44.9109 116.318C44.7979 116.412 44.655 116.464 44.5076 116.463Z" fill="#1D2BB2"/>
<path d="M52.1057 146.925H52.0594C51.8927 146.913 51.7375 146.836 51.6276 146.711C51.5176 146.586 51.4619 146.422 51.4725 146.256C52.537 136.038 54.8074 125.982 58.2367 116.294C63.5415 101.086 74.1278 80.1011 94.2041 66.3856C94.3423 66.3085 94.5044 66.2858 94.6585 66.3219C94.8126 66.3581 94.9475 66.4504 95.0367 66.5807C95.1258 66.7111 95.1627 66.8699 95.1401 67.026C95.1175 67.1821 95.037 67.3241 94.9145 67.424C56.924 93.3167 52.7698 145.794 52.7312 146.317C52.7252 146.479 52.6569 146.633 52.5405 146.746C52.424 146.859 52.2684 146.923 52.1057 146.925Z" fill="#1D2BB2"/>
<path d="M457.894 394.936C457.756 394.937 457.623 394.891 457.515 394.805C457.449 394.756 457.393 394.694 457.351 394.623C457.309 394.552 457.282 394.473 457.271 394.391C457.26 394.31 457.266 394.226 457.288 394.147C457.31 394.067 457.348 393.993 457.4 393.928C457.678 393.567 485.73 356.79 498.757 315.466C498.816 315.318 498.929 315.199 499.073 315.131C499.217 315.063 499.382 315.051 499.534 315.099C499.686 315.146 499.815 315.25 499.894 315.387C499.973 315.525 499.997 315.688 499.961 315.843C486.835 357.382 458.681 394.305 458.396 394.675C458.339 394.755 458.263 394.82 458.176 394.865C458.089 394.911 457.992 394.935 457.894 394.936Z" fill="#1D2BB2"/>
<path d="M448.111 426.744C447.988 426.745 447.867 426.71 447.764 426.643C447.662 426.576 447.581 426.48 447.532 426.368C447.484 426.255 447.469 426.131 447.491 426.011C447.513 425.89 447.57 425.779 447.655 425.69C466.959 405.29 485.754 373.651 485.939 373.336C485.98 373.265 486.035 373.203 486.101 373.154C486.167 373.104 486.241 373.068 486.321 373.047C486.401 373.026 486.484 373.022 486.565 373.033C486.647 373.044 486.725 373.071 486.796 373.113C486.94 373.198 487.044 373.336 487.086 373.497C487.128 373.659 487.104 373.83 487.02 373.974C486.835 374.29 467.94 406.044 448.574 426.552C448.514 426.614 448.442 426.663 448.362 426.696C448.282 426.729 448.197 426.745 448.111 426.744Z" fill="#1D2BB2"/>
<path d="M183.953 22.0233C182.646 22.0248 181.369 21.6402 180.282 20.9181C179.195 20.196 178.348 19.1689 177.847 17.9667C177.347 16.7646 177.215 15.4416 177.47 14.1651C177.724 12.8885 178.353 11.7159 179.277 10.7956C180.201 9.87535 181.378 9.2488 182.659 8.99527C183.94 8.74174 185.269 8.87263 186.475 9.37138C187.682 9.87014 188.713 10.7143 189.438 11.7971C190.163 12.8798 190.549 14.1525 190.547 15.454C190.545 17.1956 189.85 18.8654 188.613 20.0969C187.377 21.3285 185.701 22.0213 183.953 22.0233ZM183.953 10.1308C182.896 10.1293 181.862 10.4402 180.982 11.0242C180.102 11.6082 179.416 12.439 179.011 13.4116C178.605 14.3841 178.498 15.4546 178.703 16.4877C178.909 17.5208 179.417 18.47 180.164 19.2153C180.911 19.9605 181.863 20.4682 182.9 20.6743C183.937 20.8803 185.011 20.7753 185.988 20.3727C186.965 19.97 187.8 19.2877 188.387 18.4122C188.975 17.5366 189.289 16.5071 189.289 15.454C189.289 14.0435 188.727 12.6907 187.726 11.6926C186.726 10.6946 185.369 10.1329 183.953 10.1308Z" fill="#1D2BB2"/>
<path d="M34.0216 455.052C32.7678 455.052 31.5421 454.682 30.4996 453.988C29.4571 453.294 28.6445 452.308 28.1647 451.154C27.6849 450 27.5593 448.73 27.8039 447.505C28.0486 446.28 28.6523 445.154 29.5389 444.271C30.4255 443.388 31.5551 442.786 32.7848 442.543C34.0146 442.299 35.2892 442.424 36.4476 442.902C37.606 443.38 38.5961 444.19 39.2927 445.228C39.9893 446.267 40.3611 447.488 40.3611 448.737C40.359 450.411 39.6905 452.016 38.502 453.2C37.3136 454.384 35.7023 455.05 34.0216 455.052ZM34.0216 443.675C33.0167 443.675 32.0344 443.972 31.1988 444.528C30.3633 445.084 29.7121 445.875 29.3275 446.8C28.943 447.725 28.8423 448.742 29.0384 449.724C29.2344 450.706 29.7183 451.608 30.4289 452.316C31.1395 453.024 32.0448 453.506 33.0304 453.701C34.016 453.897 35.0376 453.796 35.966 453.413C36.8944 453.03 37.6879 452.381 38.2462 451.549C38.8045 450.717 39.1025 449.738 39.1025 448.737C39.1004 447.395 38.5645 446.109 37.6121 445.16C36.6597 444.211 35.3685 443.677 34.0216 443.675Z" fill="#1D2BB2"/>
<path d="M463.492 122.74H448.11C448.016 122.74 447.922 122.719 447.836 122.678C447.751 122.637 447.675 122.577 447.616 122.503C447.557 122.429 447.515 122.343 447.494 122.251C447.472 122.159 447.472 122.063 447.493 121.971L450.211 106.455C450.232 106.337 450.286 106.226 450.368 106.138C450.45 106.049 450.556 105.985 450.673 105.955C450.79 105.924 450.913 105.927 451.028 105.964C451.144 106.001 451.246 106.07 451.323 106.163L463.986 121.686C464.062 121.777 464.11 121.888 464.124 122.006C464.138 122.123 464.117 122.242 464.063 122.348C464.019 122.463 463.94 122.561 463.838 122.631C463.736 122.701 463.616 122.739 463.492 122.74ZM448.821 121.486H462.133L451.176 108.055L448.821 121.486Z" fill="#1D2BB2"/>
</g>
<defs>
<clipPath id="clip0_27_515">
<rect width="500" height="508.738" fill="white"/>
</clipPath>
</defs>
</svg>
