<svg width="72" height="72" viewBox="0 0 72 72" fill="none" xmlns="http://www.w3.org/2000/svg">
<g id="question 1">
<g clip-path="url(#clip0_22_327)">
<g id="Layer 2">
<g id="Layer 1">
<path id="Vector" d="M72 25.2946C71.8008 26.4688 71.6468 27.6525 71.3875 28.8136C70.9026 30.8911 70.1472 32.896 69.1404 34.777C68.9741 35.1189 68.9316 35.5081 69.0202 35.8779C69.7623 38.4895 70.5514 41.086 71.333 43.6863C71.5397 44.3721 71.5209 45.0259 71.117 45.6384C70.5777 46.4444 69.6721 46.7525 68.6369 46.4463C66.0348 45.6778 63.4401 44.8775 60.8304 44.1353C60.4395 44.035 60.0258 44.0756 59.6618 44.2499C46.5759 51.179 30.7731 44.9038 26.0573 30.8765C22.0216 18.8746 28.635 5.43172 40.5918 1.33214C54.2358 -3.34423 68.5204 4.71401 71.519 18.8051C71.7276 19.784 71.8422 20.7854 72 21.7755V25.2946ZM46.3335 24.9564V27.4176C46.3335 27.4646 46.3335 27.5116 46.3335 27.5585C46.3598 28.9432 47.209 29.8883 48.4284 29.8977C49.6477 29.9071 50.5232 28.9583 50.5458 27.5811C50.5608 26.5966 50.5721 25.6121 50.5458 24.6276C50.5308 24.1842 50.6773 23.985 51.1 23.8178C54.1231 22.6248 55.8985 19.9418 55.8535 16.7084C55.7971 12.7347 52.4716 9.48057 48.4603 9.48057C44.449 9.48057 41.1047 12.6971 41.0333 16.6727C41.0108 17.9728 41.7999 18.916 42.9723 18.9874C44.2048 19.0625 45.1066 18.2359 45.2438 16.9075C45.2552 16.6499 45.2828 16.3933 45.3264 16.1391C45.7022 14.5196 47.2485 13.5087 48.9469 13.7436C49.7419 13.8455 50.4695 14.2425 50.9854 14.8559C51.5012 15.4693 51.7676 16.2543 51.7317 17.055C51.6957 17.8556 51.3601 18.6135 50.7913 19.1782C50.2225 19.7429 49.4623 20.0732 48.6613 20.1034C47.0681 20.2105 46.3504 20.9733 46.3391 22.5759C46.3297 23.3631 46.3335 24.1598 46.3335 24.9564ZM50.5402 35.5097C50.5439 35.0941 50.4242 34.6868 50.1963 34.3392C49.9685 33.9917 49.6426 33.7195 49.26 33.5572C48.8774 33.3949 48.4553 33.3498 48.047 33.4275C47.6387 33.5052 47.2627 33.7023 46.9664 33.9937C46.6702 34.2852 46.4671 34.6581 46.3828 35.065C46.2986 35.472 46.3369 35.8948 46.493 36.28C46.6491 36.6651 46.916 36.9953 47.2598 37.2288C47.6037 37.4622 48.009 37.5884 48.4246 37.5914C48.7003 37.5941 48.9739 37.5424 49.2296 37.4392C49.4853 37.3359 49.7181 37.1832 49.9146 36.9898C50.1112 36.7964 50.2676 36.5661 50.375 36.3121C50.4823 36.0581 50.5384 35.7854 50.5402 35.5097Z" fill="white"/>
<path id="Vector_2" d="M21.7943 71.9963C20.6219 71.7971 19.4382 71.645 18.279 71.3857C16.1808 70.8997 14.1583 70.1311 12.2668 69.101C11.9638 68.9537 11.6185 68.9178 11.2917 68.9996C8.66134 69.7511 6.031 70.544 3.41756 71.3312C2.7318 71.5379 2.07609 71.5191 1.46547 71.1189C0.653825 70.5778 0.349457 69.6778 0.655704 68.6389C1.42978 66.0085 2.23203 63.3951 2.98731 60.7629C3.07781 60.4153 3.04391 60.0471 2.89149 59.722C-3.90043 46.9799 1.76421 31.6187 15.2428 26.4237C16.9526 25.7661 18.7769 25.4092 20.6914 24.8718C21.0672 30.8277 23.0155 36.0076 26.6209 40.7065H25.7022C21.3183 40.7065 16.9344 40.7065 12.5505 40.7065C11.194 40.7065 10.3072 41.4449 10.2057 42.6248C10.1559 43.1433 10.3038 43.6616 10.6198 44.0758C10.9357 44.4901 11.3965 44.7697 11.9098 44.8587C12.2574 44.91 12.6088 44.9314 12.9601 44.9226C18.609 44.9226 24.258 44.9226 29.907 44.9226C30.4408 44.9058 30.9626 45.0827 31.3762 45.4204C35.61 48.7723 40.7454 50.7886 46.1287 51.2128C46.3767 51.2335 46.6247 51.2823 46.9122 51.3256C46.5032 54.9174 45.2342 58.3576 43.2128 61.3547C39.0211 67.5341 33.2081 71.0644 25.768 71.8761C25.6099 71.9051 25.4537 71.9434 25.3001 71.9907L21.7943 71.9963ZM23.5547 51.9606H14.1325C13.4749 51.9606 12.8173 51.9343 12.1635 51.9756C11.6442 52.007 11.1552 52.231 10.7923 52.6037C10.4294 52.9765 10.2187 53.4713 10.2013 53.9913C10.1839 54.5112 10.3611 55.019 10.6983 55.4151C11.0355 55.8113 11.5084 56.0675 12.0244 56.1334C12.3505 56.1711 12.6789 56.1862 13.007 56.1785C20.0351 56.1785 27.0643 56.1785 34.0949 56.1785C34.4465 56.1871 34.7983 56.1682 35.147 56.1222C35.674 56.042 36.1496 55.7613 36.4745 55.3387C36.7994 54.9161 36.9485 54.3843 36.8906 53.8544C36.7759 52.699 35.9023 51.9662 34.5946 51.9625C30.9097 51.9575 27.2284 51.9568 23.551 51.9606H23.5547Z" fill="white"/>
<path id="Vector_3" d="M46.3335 24.9564C46.3335 24.1598 46.3335 23.3632 46.3335 22.5665C46.3448 20.9639 47.0625 20.2011 48.6557 20.094C49.4473 20.052 50.195 19.7172 50.7534 19.1546C51.3118 18.5919 51.6411 17.8418 51.6772 17.0499C51.7132 16.258 51.4536 15.481 50.9486 14.87C50.4437 14.2589 49.7295 13.8574 48.945 13.7436C47.2541 13.505 45.7041 14.5196 45.3246 16.1391C45.2809 16.3933 45.2533 16.6499 45.2419 16.9076C45.1047 18.2359 44.2029 19.0626 42.9704 18.9874C41.798 18.916 41.0089 17.9728 41.0315 16.6727C41.1029 12.6971 44.4246 9.48059 48.4547 9.48059C52.4847 9.48059 55.7821 12.7347 55.8478 16.7084C55.8929 19.9418 54.1174 22.6248 51.0944 23.8178C50.6717 23.9851 50.5308 24.1936 50.5402 24.6276C50.5721 25.6121 50.5608 26.5966 50.5402 27.5811C50.5176 28.9564 49.6402 29.9052 48.4227 29.8977C47.2053 29.8902 46.356 28.9432 46.3279 27.5586C46.3279 27.5116 46.3279 27.4646 46.3279 27.4176L46.3335 24.9564Z" fill="#00FAAC"/>
<path id="Vector_4" d="M50.5402 35.5097C50.5379 35.9254 50.4124 36.331 50.1795 36.6753C49.9466 37.0196 49.6167 37.2871 49.2317 37.4438C48.8467 37.6005 48.4239 37.6395 48.0167 37.5558C47.6096 37.4721 47.2364 37.2695 46.9444 36.9736C46.6525 36.6777 46.4549 36.3019 46.3767 35.8936C46.2985 35.4854 46.3431 35.0631 46.505 34.6802C46.6669 34.2974 46.9388 33.9712 47.2862 33.7429C47.6336 33.5146 48.0409 33.3946 48.4566 33.3979C48.7323 33.3989 49.0051 33.4544 49.2593 33.5612C49.5135 33.668 49.744 33.8241 49.9377 34.0203C50.1313 34.2166 50.2843 34.4492 50.3877 34.7048C50.4911 34.9604 50.5429 35.234 50.5402 35.5097Z" fill="#00FAAC"/>
</g>
</g>
</g>
</g>
<defs>
<clipPath id="clip0_22_327">
<path d="M0 18C0 8.05887 8.05888 0 18 0H54C63.9411 0 72 8.05887 72 18V71.9962H0V18Z" fill="white"/>
</clipPath>
</defs>
</svg>
