<svg width="72" height="72" viewBox="0 0 72 72" fill="none" xmlns="http://www.w3.org/2000/svg">
<g id="choose 1">
<g clip-path="url(#clip0_22_288)">
<g id="Layer 2">
<g id="Layer 1">
<path id="Vector" d="M22.219 72C20.4812 69.3868 18.7003 66.8017 17.017 64.1547C14.2779 59.8469 12.9046 55.1014 12.8088 50.0027C12.7242 45.4018 15.8146 42.3245 20.423 42.3283H21.229V50.1887C21.229 51.8795 21.9804 52.8601 23.3218 52.8714C24.6632 52.8827 25.4466 51.8982 25.4466 50.2225C25.4466 43.4029 25.4466 36.584 25.4466 29.7656C25.4466 27.3966 27.205 25.5405 29.4744 25.4578C30.0457 25.4284 30.617 25.5161 31.1531 25.7156C31.6892 25.9151 32.1788 26.2221 32.5918 26.6179C33.0048 27.0137 33.3325 27.4897 33.5546 28.0169C33.7768 28.544 33.8888 29.111 33.8837 29.683C33.9062 33.6282 33.8837 37.5565 33.8837 41.4923V42.3377C34.6971 42.3377 35.4636 42.3245 36.2264 42.3377C37.9341 42.3696 39.6625 42.2625 41.3457 42.4861C44.1882 42.8618 46.3918 45.3755 46.5158 48.233C46.8202 55.2178 45.9522 62.0205 43.1662 68.4982C42.704 69.5709 42.1742 70.6154 41.682 71.6769C41.648 71.7842 41.6265 71.8952 41.6182 72.0075L22.219 72Z" fill="white"/>
<path id="Vector_2" d="M0 15.469C0.133386 14.7833 0.25362 14.0901 0.403914 13.4137C1.25036 9.58499 3.38643 6.16323 6.45451 3.72136C9.52258 1.27949 13.3364 -0.0342693 17.2575 4.51974e-05C25.1328 0.080828 31.9919 5.83519 33.5681 13.6974C34.133 16.3794 33.9721 19.1635 33.1022 21.7625C31.8942 21.5747 30.7313 21.2628 29.5665 21.2572C25.0577 21.229 21.3004 24.9995 21.2384 29.5233C21.2233 30.7633 21.2384 32.0013 21.2384 33.2694C18.3838 34.1053 15.3499 34.1092 12.4932 33.2807C9.24116 32.3923 6.32757 30.5553 4.12417 28.0039C1.92078 25.4525 0.527492 22.3025 0.122114 18.9558C0.0922993 18.8212 0.051457 18.6892 0 18.5613L0 15.469ZM14.8415 18.3058L10.7479 14.1859L7.92986 16.9907C10.2557 19.3203 12.6265 21.6874 14.9429 24.0094L26.153 12.8069L23.241 9.88748L14.8415 18.3058Z" fill="#00FAAC"/>
<path id="Vector_3" d="M54.9755 0C64.2749 0 71.9925 7.70254 72 17.0001C72 26.2638 64.3237 33.8912 54.9811 33.8893C50.5134 33.8794 46.2312 32.1017 43.0701 28.9444C39.9091 25.7872 38.126 21.5072 38.1107 17.0395C38.0994 7.70254 45.7099 0 54.9755 0ZM59.0259 24.1559L62.1407 21.0655L57.987 16.9456L62.0675 12.9121L59.0353 9.86677L54.9191 14.0168L50.88 9.94568L47.8365 12.9515L51.9846 17.0846L47.9061 21.1162L50.9363 24.1728L54.9792 20.083L59.0259 24.1559Z" fill="white"/>
</g>
</g>
</g>
</g>
<defs>
<clipPath id="clip0_22_288">
<path d="M0 18C0 8.05888 8.05888 0 18 0H54C63.9411 0 72 8.05888 72 18V72H0V18Z" fill="white"/>
</clipPath>
</defs>
</svg>
