<svg width="72" height="54" viewBox="0 0 72 54" fill="none" xmlns="http://www.w3.org/2000/svg">
<g id="binoculars 1">
<g clip-path="url(#clip0_22_308)">
<g id="Layer 2">
<g id="Layer 1">
<path id="Vector" d="M72 40.143C71.8121 41.0056 71.6712 41.8799 71.4364 42.731C69.5915 49.6152 63.2416 54.3551 56.3901 53.9768C49.2324 53.5812 43.4067 48.2449 42.3001 41.0693C40.8272 31.5528 48.1052 23.0011 57.4497 23.2675C61.0207 23.3678 64.4386 24.7786 67.0844 27.2445C69.7301 29.7104 71.4286 33.0681 71.8722 36.7096C71.9019 36.8465 71.9441 36.9803 71.9981 37.1091L72 40.143ZM47.6318 38.6125C47.6307 40.5289 48.1828 42.4026 49.2184 43.9966C50.254 45.5906 51.7266 46.8333 53.4497 47.5675C55.1729 48.3017 57.0693 48.4944 58.8991 48.1212C60.7289 47.748 62.4099 46.8258 63.7294 45.471C65.0489 44.1163 65.9476 42.39 66.312 40.5105C66.6763 38.631 66.4899 36.6827 65.7763 34.9121C65.0626 33.1414 63.8539 31.628 62.3028 30.5631C60.7518 29.4983 58.9282 28.9299 57.0627 28.9299C55.8244 28.9294 54.5981 29.1796 53.4539 29.666C52.3097 30.1525 51.2701 30.8658 50.3943 31.7651C49.5185 32.6644 48.8237 33.7322 48.3497 34.9075C47.8757 36.0827 47.6318 37.3423 47.6318 38.6144V38.6125Z" fill="white"/>
<path id="Vector_2" d="M29.9009 38.6087C29.9035 41.6443 29.0303 44.6127 27.3917 47.1388C25.753 49.665 23.4224 51.6356 20.6942 52.8019C17.966 53.9682 14.9626 54.2777 12.0632 53.6915C9.16382 53.1052 6.4986 51.6494 4.40412 49.508C2.30965 47.3666 0.87988 44.6356 0.295387 41.6599C-0.289107 38.6843 -0.00210428 35.5974 1.12015 32.7892C2.2424 29.981 4.14956 27.5774 6.60075 25.882C9.05195 24.1866 11.9372 23.2754 14.8922 23.2636C18.8619 23.2585 22.6715 24.8712 25.4853 27.748C28.299 30.6247 29.887 34.5306 29.9009 38.6087ZM24.3682 38.6859C24.3776 37.4133 24.1427 36.1513 23.6769 34.9721C23.211 33.7929 22.5234 32.7196 21.6534 31.8136C20.7834 30.9077 19.7481 30.1868 18.6066 29.6924C17.4651 29.1979 16.24 28.9395 15.0012 28.9319C9.83484 28.8759 5.53456 33.2415 5.5045 38.5701C5.48107 39.8528 5.70583 41.1276 6.16574 42.3204C6.62566 43.5132 7.31156 44.6003 8.18366 45.5186C9.05577 46.437 10.0967 47.1683 11.2461 47.6701C12.3955 48.1719 13.6304 48.4343 14.8793 48.4419C16.1281 48.4496 17.366 48.2024 18.5212 47.7148C19.6763 47.2271 20.7257 46.5086 21.6084 45.601C22.4911 44.6935 23.1896 43.6149 23.6634 42.4278C24.1371 41.2407 24.3767 39.9688 24.3682 38.6859Z" fill="white"/>
<path id="Vector_3" d="M44.594 27.7585C43.7899 22.5747 43.0516 17.4121 42.1649 12.2765C41.7478 9.86402 42.8825 8.26795 44.3892 6.77224C48.3739 2.81584 53.4463 4.4563 56.1816 7.04243C56.3165 7.17519 56.4311 7.32809 56.5216 7.49597C59.768 13.1777 63.0118 18.8608 66.2532 24.5451C66.3076 24.6416 66.349 24.7381 66.3922 24.8404C58.4266 20.1584 51.1862 21.1021 44.594 27.7585Z" fill="white"/>
<path id="Vector_4" d="M5.60219 24.8462C5.7243 24.6165 5.8389 24.3869 5.96477 24.1669C8.89737 19.0236 11.8939 13.915 14.7363 8.72727C15.9142 6.56187 17.6595 5.40389 19.8331 4.75929C24.2649 3.44114 27.7085 6.00604 29.4951 9.2638C30.0023 10.1844 29.9854 11.1706 29.8201 12.2031C28.9935 17.3734 28.2082 22.5496 27.4023 27.7585C20.8532 21.1175 13.626 20.1603 5.60219 24.8462Z" fill="white"/>
<path id="Vector_5" d="M43.2488 27.7431C41.1823 25.4792 38.9955 23.6902 35.9483 23.7211C32.9425 23.7461 30.7632 25.514 28.7023 27.8029C29.2133 24.522 29.6905 21.4341 30.1658 18.3461C30.3818 16.9469 30.5603 15.54 30.829 14.1504C30.915 13.6935 31.1392 13.2762 31.4696 12.9577C32.7412 11.8327 34.3661 11.2183 36.0443 11.2278C37.7224 11.2374 39.3406 11.8704 40.5999 13.0098C40.876 13.257 41.0665 13.5895 41.1429 13.9574C41.8511 18.3963 42.5237 22.8352 43.2094 27.2741C43.2188 27.3706 43.2244 27.4787 43.2488 27.7431Z" fill="white"/>
<path id="Vector_6" d="M41.4359 43.5918C37.8101 40.7142 34.1993 40.7085 30.4795 43.6632C30.611 43.0495 30.7181 42.5805 30.8139 42.1077C31.6623 38.1408 31.045 33.9916 29.0818 30.4662C28.8376 30.0165 28.7981 29.6942 29.1626 29.3333C30.1545 28.3529 31.0413 27.2316 32.1515 26.4114C34.7141 24.5104 37.44 24.5335 39.9612 26.4789C41.0696 27.3358 41.9789 28.4706 42.9483 29.509C43.0153 29.6065 43.0581 29.7193 43.0732 29.8377C43.0882 29.956 43.075 30.0764 43.0347 30.1883C40.722 34.384 40.2486 38.7978 41.4791 43.4278C41.4848 43.4471 41.4679 43.4741 41.4359 43.5918ZM39.2435 33.5927C39.2416 32.9369 39.0511 32.2963 38.6959 31.7513C38.3407 31.2064 37.8366 30.7815 37.247 30.5299C36.6574 30.2784 36.0086 30.2114 35.3821 30.3375C34.7556 30.4635 34.1794 30.777 33.7257 31.2385C33.2721 31.6999 32.9614 32.2888 32.8325 32.9312C32.7037 33.5735 32.7625 34.2406 33.0016 34.8487C33.2407 35.4568 33.6494 35.9788 34.1763 36.349C34.7033 36.7193 35.325 36.9212 35.9634 36.9296C36.8289 36.9332 37.6604 36.5838 38.2754 35.9582C38.8904 35.3326 39.2386 34.4818 39.2435 33.5927Z" fill="white"/>
<path id="Vector_7" d="M53.7825 3.9024C49.3451 2.21755 45.6291 3.21147 42.5537 6.82434C42.0615 3.82134 44.1205 0.814477 47.0456 0.162153C50.0684 -0.513329 53.0856 1.11555 53.7825 3.9024Z" fill="white"/>
<path id="Vector_8" d="M29.4688 6.85328C26.3521 3.20181 22.6511 2.23491 18.3114 3.85992C18.3809 1.76979 21.2816 -0.192971 23.9568 2.3854e-05C27.4455 0.287586 29.8708 3.23655 29.4688 6.85328Z" fill="white"/>
<path id="Vector_9" d="M47.6318 38.6145C47.6366 36.6984 48.1944 34.8268 49.2346 33.2364C50.2748 31.6459 51.7508 30.4081 53.4758 29.6793C55.2008 28.9506 57.0974 28.7636 58.9258 29.1422C60.7542 29.5207 62.4323 30.4477 63.7479 31.806C65.0635 33.1642 65.9575 34.8927 66.3169 36.7729C66.6762 38.6531 66.4848 40.6005 65.7669 42.369C65.0489 44.1374 63.8366 45.6474 62.2833 46.7081C60.7299 47.7688 58.9053 48.3325 57.0402 48.3279C55.8012 48.3261 54.5747 48.0733 53.4309 47.584C52.2871 47.0946 51.2486 46.3783 50.3746 45.476C49.5007 44.5738 48.8086 43.5033 48.338 42.3259C47.8673 41.1485 47.6273 39.8873 47.6318 38.6145Z" fill="#00FAAC"/>
<path id="Vector_10" d="M24.3682 38.6859C24.3767 39.9688 24.1371 41.2407 23.6634 42.4278C23.1896 43.6149 22.4911 44.6935 21.6084 45.6011C20.7257 46.5087 19.6763 47.2271 18.5212 47.7148C17.366 48.2025 16.1281 48.4497 14.8793 48.442C13.6304 48.4343 12.3955 48.172 11.2461 47.6701C10.0967 47.1683 9.05576 46.437 8.18366 45.5187C7.31156 44.6003 6.62565 43.5132 6.16574 42.3204C5.70583 41.1276 5.48107 39.8528 5.5045 38.5701C5.53456 33.2415 9.83483 28.876 15.0012 28.9319C16.24 28.9395 17.4651 29.1979 18.6066 29.6924C19.748 30.1869 20.7834 30.9077 21.6534 31.8137C22.5234 32.7196 23.211 33.7929 23.6769 34.9721C24.1427 36.1513 24.3776 37.4133 24.3682 38.6859Z" fill="#00FAAC"/>
</g>
</g>
</g>
</g>
<defs>
<clipPath id="clip0_22_308">
<path d="M0 18C0 8.05887 8.05888 0 18 0H54C63.9411 0 72 8.05888 72 18V54H0V18Z" fill="white"/>
</clipPath>
</defs>
</svg>
