<svg width="72" height="72" viewBox="0 0 72 72" fill="none" xmlns="http://www.w3.org/2000/svg">
<g id="Economises 1">
<g clip-path="url(#clip0_22_278)">
<g id="Layer 2">
<g id="Layer 1">
<path id="Vector" d="M0 66.511V28.6851C2.18854 29.8854 4.57244 29.8234 6.96762 29.8122C23.7383 29.7984 40.5145 29.7978 57.2964 29.8103C58.7824 29.8103 59.2069 30.2405 59.2069 31.7433V70.0482C59.2069 71.583 58.7918 71.9944 57.2382 71.9944H9.52248C8.39534 71.9944 7.26819 72.0132 6.15044 71.985C4.81544 71.9502 3.52606 71.4919 2.46849 70.6765C1.41092 69.8611 0.639895 68.7306 0.266757 67.4484C0.174707 67.1365 0.0882929 66.8228 0 66.511ZM52.1698 48.8416C52.1791 47.589 51.8162 46.3618 51.1272 45.3157C50.4382 44.2696 49.4541 43.4516 48.2996 42.9654C47.1451 42.4793 45.8723 42.3469 44.6425 42.585C43.4127 42.8231 42.2812 43.421 41.3916 44.3029C40.502 45.1848 39.8944 46.311 39.6456 47.5387C39.3969 48.7664 39.5183 50.0403 39.9945 51.1989C40.4706 52.3575 41.2801 53.3487 42.3203 54.0467C43.3605 54.7447 44.5845 55.1181 45.8371 55.1196C47.5073 55.1197 49.1098 54.46 50.2959 53.2842C51.4819 52.1084 52.1554 50.5116 52.1698 48.8416Z" fill="white"/>
<path id="Vector_2" d="M38.2477 0C38.2477 1.21165 38.0918 2.44208 38.2477 3.63306C38.9991 9.50156 44.5559 13.5348 50.4208 12.5579C50.511 12.5429 50.6087 12.5448 50.7327 12.5373V25.5573H8.63013V12.5053C10.2524 12.8151 11.9226 12.7696 13.5257 12.3719C15.9922 11.708 18.1352 10.174 19.5588 8.05324C20.9825 5.93249 21.5906 3.36825 21.271 0.834064C21.2278 0.563557 21.2447 0.278021 21.2278 0H38.2477Z" fill="#00FAAC"/>
<path id="Vector_3" d="M16.7343 0C17.621 2.41202 17.1513 4.58547 15.4418 6.44145C13.7023 8.31997 11.5231 8.88353 9.0359 8.24859C8.68273 8.15842 8.56438 7.97808 8.56814 7.60989C8.5888 5.78209 8.56814 3.95429 8.57941 2.12837C8.57941 1.04822 9.25382 0.450845 10.1236 0L16.7343 0Z" fill="#00FAAC"/>
<path id="Vector_4" d="M48.794 0C50.4509 0.586099 50.7665 1.0407 50.7665 2.83657V8.07765C48.7433 8.99249 46.0701 8.43269 44.3117 6.75141C42.4332 4.9593 41.8189 2.30683 42.7488 0.00751409L48.794 0Z" fill="#00FAAC"/>
<path id="Vector_5" d="M55.0177 25.5911V17.1829C55.2262 17.1716 55.4066 17.1566 55.5813 17.1566C58.8857 17.1566 62.1901 17.1453 65.4926 17.1566C69.2385 17.1697 71.9831 19.8917 71.9868 23.6299C71.9981 36.1897 71.9981 48.7489 71.9868 61.3075C71.9868 65.0401 69.2291 67.7527 65.4832 67.7733C64.8276 67.7733 64.1682 67.7733 63.4168 67.7733V28.2004C63.4168 26.3538 62.6654 25.593 60.8281 25.5911H55.0177Z" fill="white"/>
<path id="Vector_6" d="M4.3207 17.1998V25.531C2.16974 25.6832 0.187842 23.7502 0.142757 21.4884C0.0939138 19.114 2.01569 17.1246 4.3207 17.1998Z" fill="white"/>
<path id="Vector_7" d="M47.9505 48.7796C47.9532 49.1969 47.8317 49.6057 47.6015 49.9539C47.3714 50.302 47.043 50.574 46.658 50.7352C46.273 50.8964 45.8487 50.9395 45.4392 50.8591C45.0296 50.7787 44.6532 50.5785 44.3576 50.2838C44.0621 49.989 43.8608 49.6131 43.7793 49.2038C43.6979 48.7944 43.7399 48.3701 43.9 47.9847C44.0602 47.5993 44.3312 47.2701 44.6788 47.0391C45.0264 46.808 45.4348 46.6854 45.8522 46.6869C46.4058 46.6932 46.935 46.9155 47.327 47.3065C47.719 47.6974 47.9427 48.226 47.9505 48.7796Z" fill="white"/>
</g>
</g>
</g>
</g>
<defs>
<clipPath id="clip0_22_278">
<path d="M0 18C0 8.05888 8.05888 0 18 0H54C63.9411 0 72 8.05888 72 18V72H0V18Z" fill="white"/>
</clipPath>
</defs>
</svg>
