<svg width="32" height="32" viewBox="0 0 32 32" fill="none" xmlns="http://www.w3.org/2000/svg">
<g id="TK 1" clip-path="url(#clip0_54_147)">
<g id="Layer 2">
<g id="Graphic Elements">
<path id="Vector" d="M16 32C24.8366 32 32 24.8366 32 16C32 7.16344 24.8366 0 16 0C7.16344 0 0 7.16344 0 16C0 24.8366 7.16344 32 16 32Z" fill="#1D2BB2"/>
<path id="Vector_2" d="M24.9647 10.7115C24.9647 10.619 24.9647 10.6166 24.8652 10.6166C24.6316 10.6151 24.3985 10.5944 24.1683 10.555C23.3315 10.4294 20.6222 9.00717 20.1481 6.67472C20.0931 6.38732 20.0559 6.09679 20.0367 5.8048C20.0367 5.69576 20.0367 5.69576 19.9277 5.69339H16.6732C16.4598 5.69339 16.4907 5.66731 16.4907 5.88065C16.4907 10.4886 16.4907 15.0974 16.4907 19.707C16.4943 19.8784 16.4824 20.0498 16.4551 20.219C16.389 20.6163 16.2435 20.9962 16.0273 21.336C15.8111 21.6757 15.5286 21.9684 15.1967 22.1966C14.8648 22.4247 14.4903 22.5836 14.0956 22.6637C13.7009 22.7438 13.2941 22.7435 12.8995 22.6629C12.656 22.6049 12.4181 22.5256 12.1884 22.4258C12.1714 22.4073 12.1532 22.3898 12.1339 22.3737C12.0557 22.3097 11.9727 22.2575 11.8969 22.1983C10.9132 21.518 10.4462 20.5722 10.5884 19.3894C10.7307 18.2066 11.4228 17.3841 12.563 16.9645C12.9016 16.8396 13.2622 16.7856 13.6225 16.8057C13.8565 16.8153 14.0886 16.8511 14.3147 16.9124C14.3929 16.9337 14.4355 16.9124 14.4379 16.8246C14.4379 16.7938 14.4379 16.7654 14.4379 16.7369C14.4379 15.9097 14.4071 14.1011 14.4047 14.0987C14.4047 13.8617 14.4047 13.6246 14.4047 13.3876C14.4047 13.3189 14.3715 13.307 14.3147 13.3023C13.8907 13.2521 13.4628 13.2426 13.037 13.2738C12.4455 13.3175 11.8626 13.4411 11.3043 13.6412C10.1127 14.0685 9.0719 14.8344 8.3097 15.8451C7.5475 16.8557 7.09713 18.067 7.01392 19.3301C6.99059 19.6681 6.99456 20.0073 7.02577 20.3446C7.06697 20.8108 7.15918 21.271 7.30074 21.7171C7.69455 22.9733 8.46188 24.0796 9.50044 24.8886C9.60118 24.9828 9.71445 25.0626 9.83703 25.1257L10.0006 25.2703C10.1712 25.397 10.3529 25.508 10.5434 25.6021C11.6953 26.1886 12.9958 26.4189 14.2791 26.2635C15.8792 26.0773 17.3549 25.3092 18.4254 24.1055C19.4958 22.9017 20.0862 21.3463 20.0841 19.7355C20.0984 17.4409 20.0841 15.1464 20.0841 12.8495C20.0841 12.795 20.0533 12.7168 20.1126 12.6907C20.1718 12.6646 20.2074 12.731 20.2524 12.7618C21.099 13.3188 22.0382 13.7201 23.0258 13.947C23.6036 14.0848 24.1953 14.1556 24.7893 14.158C24.9766 14.158 25.0027 14.158 25.0027 13.9612C25.0074 13.1577 24.9647 10.9295 24.9647 10.7115Z" fill="white"/>
</g>
</g>
</g>
<defs>
<clipPath id="clip0_54_147">
<rect width="32" height="32" fill="white"/>
</clipPath>
</defs>
</svg>
