<svg width="55" height="55" viewBox="0 0 55 55" fill="none" xmlns="http://www.w3.org/2000/svg">
<g id="Wtsp 1" clip-path="url(#clip0_60_181)">
<g id="Layer 2">
<g id="Graphic Elements">
<path id="Vector" d="M27.7518 54.8275C42.7429 54.8275 54.8956 42.6748 54.8956 27.6837C54.8956 12.6925 42.7429 0.53978 27.7518 0.53978C12.7606 0.53978 0.60788 12.6925 0.60788 27.6837C0.60788 42.6748 12.7606 54.8275 27.7518 54.8275Z" fill="#00FAAC"/>
<g id="WA Logo">
<path id="Vector_2" fill-rule="evenodd" clip-rule="evenodd" d="M40.821 14.9602C37.8673 12.0094 33.9422 10.2319 29.776 9.95855C25.6098 9.68518 21.4861 10.9345 18.1721 13.4741C14.8581 16.0137 12.5794 19.6706 11.76 23.7646C10.9405 27.8586 11.6361 32.1108 13.7174 35.7303L11.2644 44.6496L20.3928 42.2368C22.9134 43.6259 25.7424 44.3601 28.6204 44.3721C32.0316 44.3804 35.3684 43.3753 38.2075 41.4842C41.0466 39.5932 43.2601 36.9016 44.5671 33.7507C45.8742 30.5998 46.2159 27.1317 45.549 23.7863C44.882 20.4409 43.2365 17.369 40.821 14.9602ZM28.6284 41.4446C26.0632 41.4401 23.5464 40.7456 21.3418 39.434L20.815 39.1444L15.3983 40.5599L16.846 35.2799L16.5041 34.7411C14.8173 32.0535 14.0715 28.8816 14.3838 25.724C14.6961 22.5664 16.0489 19.6021 18.2296 17.2971C20.4102 14.9921 23.295 13.4771 26.4305 12.9903C29.566 12.5035 32.7743 13.0725 35.5512 14.6078C38.3281 16.1432 40.516 18.5578 41.771 21.4721C43.026 24.3864 43.2769 27.6351 42.4844 30.7076C41.6918 33.7801 39.9006 36.502 37.3925 38.4456C34.8844 40.3892 31.8015 41.4441 28.6284 41.4446ZM36.478 30.7278C36.0477 30.5147 33.9325 29.4732 33.5384 29.3284C33.1444 29.1836 32.8588 29.1153 32.5693 29.5455C32.2798 29.9758 31.4594 30.945 31.2101 31.2305C30.9608 31.516 30.7074 31.5562 30.2772 31.339C29.0069 30.8356 27.8349 30.1128 26.8148 29.2037C25.8675 28.3354 25.0543 27.3312 24.402 26.2239C24.1527 25.7936 24.3779 25.5604 24.591 25.3473C24.8041 25.1342 25.0213 24.8446 25.2384 24.5953C25.4224 24.3738 25.574 24.1274 25.6888 23.8634C25.7446 23.7446 25.7705 23.614 25.7642 23.4829C25.7579 23.3519 25.7196 23.2243 25.6526 23.1114C25.5441 22.8943 24.6835 20.7791 24.3256 19.9185C23.9677 19.0579 23.6219 19.1906 23.3565 19.1786C23.0911 19.1665 22.8176 19.1786 22.5522 19.1786C22.3344 19.1848 22.1202 19.2358 21.923 19.3285C21.7258 19.4212 21.5498 19.5536 21.4061 19.7174C20.9196 20.1779 20.5342 20.7347 20.2746 21.3522C20.0149 21.9698 19.8867 22.6346 19.8981 23.3045C19.8981 25.4237 21.4423 27.4665 21.6555 27.7561C21.8686 28.0456 24.6915 32.3886 29.0064 34.2505C29.8072 34.596 30.6261 34.898 31.4594 35.1553C32.3371 35.4229 33.2652 35.4821 34.1698 35.3282C34.9741 35.2035 36.7153 34.2867 37.0732 33.2813C37.4311 32.276 37.4311 31.4155 37.3225 31.2345C37.2139 31.0535 36.9083 30.945 36.478 30.7278Z" fill="#1D2BB2"/>
</g>
</g>
</g>
</g>
<defs>
<clipPath id="clip0_60_181">
<rect width="54.2878" height="54.2878" fill="white" transform="translate(0.60788 0.53978)"/>
</clipPath>
</defs>
</svg>
